<?xml version="1.0" encoding="UTF-8"?>
<svg version="1.1" xmlns="http://www.w3.org/2000/svg" width="360" height="360">
<path d="M0 0 C0.77085937 0.67675781 1.54171875 1.35351562 2.3359375 2.05078125 C15.81079518 14.62884806 23.25270799 32.61462888 24.203125 50.91015625 C24.75195289 80.09591437 10.49569982 104.19022116 -8.24511719 125.5625 C-11.15306404 128.89330266 -13.62325455 132.28564432 -16 136 C-15.31164062 136.23589844 -14.62328125 136.47179687 -13.9140625 136.71484375 C-10.41307628 138.25884438 -7.44936395 140.31872388 -4.375 142.5625 C-3.75818359 143.01012695 -3.14136719 143.45775391 -2.50585938 143.91894531 C18.64376506 159.39294664 39.98253657 178.99051544 45.6015625 205.80859375 C47.96310873 224.72411604 43.97874223 242.02163453 32.1875 257.25 C24.67554245 266.06210405 16.66662366 273.60573532 7 280 C5.91332031 280.71929687 4.82664062 281.43859375 3.70703125 282.1796875 C-16.22193383 294.93433604 -39.24657686 302.57148839 -62.3125 307.3125 C-63.02672119 307.45985596 -63.74094238 307.60721191 -64.47680664 307.7590332 C-79.27087401 310.56279394 -94.1030045 311.38186596 -109.125 311.3125 C-109.97306213 311.31034485 -110.82112427 311.3081897 -111.69488525 311.30596924 C-141.64976907 311.18443274 -170.0308002 305.86041438 -198 295 C-198.65532715 294.74750488 -199.3106543 294.49500977 -199.98583984 294.23486328 C-215.92052828 288.00497856 -234.27979565 279.28175277 -242.8125 263.6875 C-247.94664208 247.74463776 -241.55076621 231.66481607 -236.0625 216.625 C-231.78284945 204.87591351 -228.35719711 193.290304 -226 181 C-225.66742188 179.31414795 -225.66742188 179.31414795 -225.328125 177.59423828 C-223.74128814 168.5895018 -223.55558802 159.61869275 -223.5625 150.5 C-223.56276184 149.70564545 -223.56302368 148.91129089 -223.56329346 148.09286499 C-223.64366552 127.44839304 -228.64956444 111.00912552 -236.5546875 92 C-238.76034772 86.66553838 -240.74523373 81.29069421 -242.5625 75.8125 C-242.80154053 75.1006958 -243.04058105 74.3888916 -243.28686523 73.65551758 C-246.84618331 62.72000732 -247.97739414 50.52281759 -243.44921875 39.71875 C-232.55938324 19.28930117 -212.32303084 7.4065698 -192 -2 C-190.91847656 -2.51046875 -189.83695313 -3.0209375 -188.72265625 -3.546875 C-135.11137747 -27.72068798 -48.46004813 -43.19265159 0 0 Z M-134 60 C-138.59840241 66.30528863 -139.63342903 72.3749487 -139 80 C-137.16984318 90.71229404 -131.02845982 97.51569002 -122.92578125 104.3125 C-118.08506434 108.55426411 -113.4929813 113.25779027 -112.79855347 119.93780518 C-112.70263405 122.27950075 -112.67039244 124.61336374 -112.6640625 126.95703125 C-112.6574057 127.81882492 -112.6507489 128.68061859 -112.64389038 129.56852722 C-112.63378827 131.38819249 -112.6290726 133.20789461 -112.62939453 135.02758789 C-112.6250306 137.79311116 -112.58871186 140.55702535 -112.55078125 143.32226562 C-112.54491048 145.09634875 -112.54094283 146.8704394 -112.5390625 148.64453125 C-112.52469147 149.46250687 -112.51032043 150.28048248 -112.49551392 151.12324524 C-112.55021007 158.09297629 -114.54343936 163.09281549 -119.04296875 168.41772461 C-119.75066406 169.07264893 -120.45835937 169.72757324 -121.1875 170.40234375 C-121.96867187 171.14806641 -122.74984375 171.89378906 -123.5546875 172.66210938 C-125.18294911 174.17722501 -126.81315549 175.69025336 -128.4453125 177.20117188 C-134.56191252 183.05029681 -138.29988742 188.17643024 -139.53125 196.66015625 C-139.44389701 206.17071336 -138.19019404 211.79328904 -131.6875 218.75 C-124.46554376 225.48129254 -116.02021382 228.58091495 -106.09375 228.24609375 C-98.17554998 227.31540979 -91.02211768 224.26763825 -85 219 C-84.67 218.01 -84.34 217.02 -84 216 C-83.34 216 -82.68 216 -82 216 C-76.94002184 207.83174954 -75.46234537 200.81828433 -77.59375 191.3671875 C-80.95245129 181.44657906 -89.638624 173.05548094 -98 167 C-98.66 167 -99.32 167 -100 167 C-100.309375 166.05125 -100.61875 165.1025 -100.9375 164.125 C-101.87394742 161.13919592 -101.87394742 161.13919592 -103 159 C-103.13609613 155.95857999 -103.21283359 152.94129728 -103.23828125 149.8984375 C-103.246353 148.9880069 -103.25442474 148.07757629 -103.26274109 147.13955688 C-103.27658904 145.20780342 -103.28730801 143.2760254 -103.29516602 141.34423828 C-103.31231088 138.40739544 -103.35618196 135.47169836 -103.40039062 132.53515625 C-103.4105237 130.65625826 -103.41903787 128.77735071 -103.42578125 126.8984375 C-103.44328934 126.02730316 -103.46079742 125.15616882 -103.47883606 124.25863647 C-103.45433716 117.276238 -101.71570717 112.17929431 -97.15649414 106.84179688 C-96.53895264 106.30619141 -95.92141113 105.77058594 -95.28515625 105.21875 C-94.25551758 104.29642578 -94.25551758 104.29642578 -93.20507812 103.35546875 C-92.49802734 102.74316406 -91.79097656 102.13085938 -91.0625 101.5 C-84.19001005 95.51570536 -77.52982347 89.31246824 -76.7265625 79.7421875 C-76.47947957 70.33402962 -77.36652825 64.25196684 -83.7265625 57.04296875 C-90.41381705 50.50707181 -98.24693619 47.84026688 -107.5 47.5 C-118.53173202 47.91826472 -126.62024795 51.79175187 -134 60 Z " fill="#1E264B" transform="translate(280,37)"/>
</svg>
