<?xml version="1.0" standalone="no"?>
<!DOCTYPE svg PUBLIC "-//W3C//DTD SVG 20010904//EN"
 "http://www.w3.org/TR/2001/REC-SVG-20010904/DTD/svg10.dtd">
<svg version="1.0" xmlns="http://www.w3.org/2000/svg"
 width="816.000000pt" height="816.000000pt" viewBox="0 0 816.000000 816.000000"
 preserveAspectRatio="xMidYMid meet">

<g transform="translate(0.000000,816.000000) scale(0.100000,-0.100000)"
fill="#000000" stroke="none">
<path d="M4215 6755 c-247 -25 -560 -95 -780 -175 -232 -84 -509 -213 -645
-301 -148 -95 -203 -133 -272 -185 -81 -61 -318 -292 -318 -310 0 -7 12 -20
28 -29 50 -33 223 -209 269 -275 96 -136 192 -349 222 -495 7 -33 17 -79 22
-102 17 -79 11 -351 -11 -451 -49 -232 -132 -420 -256 -582 -47 -61 -211 -224
-261 -259 -18 -12 -33 -28 -33 -34 0 -14 143 -156 210 -208 190 -149 479 -307
718 -393 334 -120 684 -174 1052 -163 190 6 349 18 455 36 211 34 487 105 594
152 24 10 48 19 53 19 5 0 60 25 122 55 442 215 666 500 666 847 0 331 -228
661 -648 937 -61 41 -112 78 -112 83 0 5 47 58 104 118 140 148 259 328 324
490 50 125 72 230 72 349 0 103 -18 216 -39 246 -4 6 -13 28 -20 50 -22 64
-117 200 -179 255 -121 108 -260 186 -435 244 -261 86 -572 114 -902 81z m-80
-826 c116 -31 229 -119 275 -214 20 -41 24 -66 25 -140 0 -131 -24 -177 -176
-325 -65 -63 -127 -131 -138 -150 -20 -33 -21 -50 -21 -298 0 -203 3 -270 14
-295 8 -18 69 -86 136 -152 151 -148 172 -186 178 -321 5 -108 -11 -155 -80
-230 -122 -133 -285 -176 -456 -118 -217 72 -305 249 -235 469 14 42 36 70
144 176 175 173 169 158 169 456 0 142 -5 254 -11 278 -9 31 -38 67 -138 165
-163 161 -176 185 -176 335 0 124 11 158 73 227 102 113 284 173 417 137z"/>
<path d="M2879 2171 l-29 -29 0 -137 0 -137 29 -29 29 -29 154 0 c163 0 178
-4 220 -55 23 -28 39 -97 31 -137 -18 -96 -107 -196 -232 -262 -85 -45 -100
-62 -108 -124 -5 -46 -3 -53 22 -76 34 -32 82 -34 117 -6 21 16 26 31 30 76 6
65 20 82 124 144 84 51 198 165 229 231 27 59 34 145 14 196 -15 40 -57 82
-104 104 -33 15 -65 19 -180 19 -183 0 -185 1 -185 111 0 123 -27 169 -100
169 -22 0 -41 -9 -61 -29z"/>
<path d="M498 1921 l-33 -29 0 -175 c0 -163 2 -178 21 -204 28 -37 73 -50 110
-32 48 23 54 48 54 237 l0 174 -29 29 c-39 39 -80 39 -123 0z"/>
<path d="M1719 1921 l-29 -29 0 -356 0 -356 28 -30 c51 -58 132 -36 152 40 7
27 10 155 8 371 l-3 331 -33 29 c-43 39 -84 39 -123 0z"/>
<path d="M2056 1929 c-51 -40 -24 -131 75 -242 l42 -49 -50 -46 c-83 -77 -97
-114 -101 -269 l-4 -133 30 -30 c42 -42 90 -42 127 1 25 31 26 36 25 153 -1
66 -1 129 -1 138 1 25 29 48 60 48 32 0 47 -15 206 -205 152 -183 186 -204
240 -150 48 47 30 105 -66 215 -27 31 -49 60 -49 64 0 5 31 38 69 75 61 58 70
72 80 119 16 76 14 226 -3 267 -38 89 -163 69 -181 -29 -4 -19 -2 -86 4 -147
7 -75 7 -117 1 -130 -15 -27 -55 -34 -85 -15 -14 9 -90 94 -169 189 -167 201
-194 220 -250 176z"/>
<path d="M4108 1934 c-40 -21 -50 -73 -46 -244 3 -132 5 -152 24 -176 41 -56
119 -52 149 7 22 41 21 338 0 380 -25 47 -77 61 -127 33z"/>
<path d="M781 1901 c-28 -52 -3 -91 62 -96 59 -5 67 -10 67 -43 0 -20 -13 -38
-47 -68 l-48 -42 0 -237 0 -237 34 -30 c28 -25 39 -29 69 -24 20 3 45 15 56
26 20 19 21 35 26 268 5 234 6 249 29 295 30 61 84 99 143 99 104 2 166 -78
183 -233 8 -73 -9 -219 -31 -260 -21 -42 -62 -69 -104 -69 -83 0 -130 -38
-107 -88 13 -29 42 -36 126 -30 215 16 352 203 339 463 -7 139 -71 239 -187
294 -55 26 -58 26 -328 29 -263 3 -272 3 -282 -17z"/>
<path d="M3622 1908 c-16 -16 -15 -73 1 -86 6 -5 27 -13 45 -17 67 -14 72 -30
72 -210 0 -152 1 -164 25 -211 30 -60 31 -75 4 -100 -17 -16 -40 -20 -135 -23
-106 -3 -116 -5 -130 -26 -20 -31 -2 -70 39 -85 16 -5 95 -10 174 -10 155 0
198 10 227 51 20 29 21 98 1 163 -11 36 -15 101 -15 245 0 185 -2 198 -23 236
-38 68 -75 85 -181 85 -58 0 -96 -4 -104 -12z"/>
<path d="M4384 1895 c-16 -25 -16 -30 -3 -54 15 -26 16 -26 155 -31 170 -7
197 -19 241 -108 24 -50 28 -68 27 -152 0 -112 -25 -187 -77 -238 -44 -42 -71
-49 -206 -51 -62 -1 -119 -5 -127 -8 -20 -7 -29 -50 -15 -79 l11 -24 315 0
315 0 17 26 c15 24 15 29 2 53 -12 22 -24 27 -68 31 -59 6 -86 29 -75 64 4 11
29 49 55 83 65 86 86 155 71 242 -19 114 -89 195 -209 242 -51 20 -81 23 -235
27 l-176 4 -18 -27z"/>
<path d="M5501 1901 c-29 -29 -28 -85 1 -105 18 -13 57 -16 214 -16 181 0 193
-1 225 -23 19 -12 45 -44 59 -72 22 -44 25 -63 25 -155 0 -90 -3 -112 -24
-153 -26 -53 -81 -97 -122 -97 -61 0 -95 -67 -59 -113 26 -32 68 -35 151 -11
173 50 298 219 299 401 0 168 -74 284 -214 334 -55 20 -86 22 -297 27 -231 4
-238 3 -258 -17z"/>
<path d="M6313 1910 c-12 -5 -27 -18 -32 -29 -18 -33 5 -64 75 -105 94 -54 94
-54 94 -320 0 -124 4 -236 10 -250 26 -71 139 -86 192 -27 l28 31 0 189 c0
142 -4 199 -15 231 -31 89 -16 136 47 147 56 8 92 44 83 81 -13 56 -18 57
-248 59 -117 1 -222 -2 -234 -7z"/>
<path d="M6890 1902 c-30 -25 -30 -80 1 -104 18 -15 42 -18 141 -18 131 0 158
-8 201 -60 55 -65 62 -234 13 -334 -41 -85 -70 -98 -229 -105 -129 -6 -132 -6
-146 -33 -19 -34 -6 -77 29 -95 36 -18 564 -18 600 0 35 18 48 61 29 95 -12
22 -24 28 -66 33 -91 11 -93 26 -23 119 63 82 84 144 77 220 -13 151 -121 258
-292 289 -32 6 -116 11 -186 11 -108 0 -130 -3 -149 -18z"/>
<path d="M5581 1697 c-14 -6 -34 -28 -45 -47 -20 -33 -21 -54 -24 -300 -2
-146 0 -285 3 -309 14 -94 112 -143 180 -89 52 40 55 63 55 368 0 305 -3 328
-55 368 -31 24 -77 28 -114 9z"/>
</g>
</svg>
