<?xml version="1.0" encoding="UTF-8"?>
<svg version="1.1" xmlns="http://www.w3.org/2000/svg" width="1557" height="1474">
<path d="M0 0 C2.11289317 0.26214365 4.2271772 0.50924963 6.34216309 0.75390625 C95.63558792 11.18564993 182.40214273 42.45499969 275.01501465 101.25 C274.46291895 105.10604339 272.82335948 106.70405472 270.01501465 109.3125 C264.88453204 114.29778027 260.38442281 119.594695 256.01501465 125.25 C255.54080078 125.85360352 255.06658691 126.45720703 254.57800293 127.07910156 C219.06288664 172.63924115 203.78717605 231.28271445 210.7298584 288.3984375 C215.5782722 324.75468907 228.4314276 361.95450771 251.01501465 391.25 C251.43460449 391.80655273 251.85419434 392.36310547 252.28649902 392.93652344 C259.29061187 402.22591982 266.78239966 411.01738501 275.01501465 419.25 C274.72356457 423.08048669 272.49322023 425.54478343 270.20251465 428.5 C269.38182615 429.56872178 268.56153462 430.63774849 267.74157715 431.70703125 C267.30104004 432.27760254 266.86050293 432.84817383 266.40661621 433.43603516 C264.44765098 435.98956351 262.52448265 438.56925675 260.5994873 441.1484375 C256.38303991 446.79742188 252.13508246 452.42018329 247.82751465 458 C242.06868911 465.46237912 236.39927993 472.98790652 230.8314209 480.59375 C224.3869063 489.39176263 217.85306312 498.09823653 211.13000488 506.68554688 C205.81062001 513.48647784 200.62428887 520.38125911 195.46520996 527.30419922 C187.61883418 537.83208053 179.70011806 548.30283189 171.73571777 558.74169922 C166.79491475 565.21966738 161.89077767 571.72290904 157.01501465 578.25 C154.56834896 581.51489487 152.11935006 584.77803989 149.67077637 588.04150391 C147.08910901 591.48290981 144.50914777 594.92556599 141.9329834 598.37109375 C137.32915505 604.52524343 132.71388952 610.66799239 128.01501465 616.75 C121.38848583 625.33364166 114.90431038 634.02454428 108.42907715 642.72265625 C104.73740412 647.67146046 101.04448148 652.57061916 97.01501465 657.25 C92.11627133 655.67540393 87.31087226 653.98131312 82.52233887 652.09521484 C73.50958033 648.5808748 64.49509414 646.13987381 55.01501465 644.25 C53.93606934 644.023125 52.85712402 643.79625 51.7454834 643.5625 C15.36780532 637.10333151 -24.98556104 646.33827445 -55.3326416 667.27734375 C-58.67333809 669.76195601 -61.85215149 672.41396806 -64.9498291 675.1953125 C-66.98498535 676.25 -66.98498535 676.25 -69.21936035 675.828125 C-73.21737603 673.54677142 -76.70994903 670.74855301 -80.29748535 667.875 C-81.91507475 666.59781739 -83.53358171 665.32179614 -85.1529541 664.046875 C-85.96425781 663.40685547 -86.77556152 662.76683594 -87.6114502 662.10742188 C-91.07451732 659.39738127 -94.58556124 656.75449251 -98.10998535 654.125 C-98.76208984 653.63781494 -99.41419434 653.15062988 -100.08605957 652.64868164 C-101.39751248 651.66971661 -102.70935924 650.69127897 -104.02160645 649.71337891 C-107.32532612 647.25099446 -110.62469157 644.78281353 -113.92248535 642.3125 C-114.57716797 641.82209229 -115.23185059 641.33168457 -115.90637207 640.82641602 C-121.59850153 636.55488282 -127.2510836 632.23260066 -132.89953613 627.90356445 C-138.89663629 623.30976079 -144.93239041 618.77050554 -150.98498535 614.25 C-152.90196839 612.81292193 -154.8186274 611.37541153 -156.73498535 609.9375 C-157.7198291 609.19886719 -158.70467285 608.46023438 -159.71936035 607.69921875 C-162.10477702 605.91015625 -164.49019368 604.12109375 -166.87561035 602.33203125 C-167.88579224 601.57442505 -167.88579224 601.57442505 -168.91638184 600.80151367 C-170.29618001 599.76662433 -171.67589999 598.73163073 -173.05554199 597.6965332 C-176.10705441 595.40726065 -179.15915533 593.1188173 -182.2154541 590.8359375 C-188.48849643 586.1456575 -194.72175315 581.40748773 -200.9185791 576.6171875 C-202.86381025 575.11551862 -204.813792 573.61996746 -206.7701416 572.1328125 C-207.58354004 571.51148438 -208.39693848 570.89015625 -209.23498535 570.25 C-210.29459473 569.445625 -210.29459473 569.445625 -211.37561035 568.625 C-212.98498535 567.25 -212.98498535 567.25 -213.98498535 565.25 C-212.73498535 563.58333333 -211.48498535 561.91666667 -210.23498535 560.25 C-209.83303955 559.71383057 -209.43109375 559.17766113 -209.01696777 558.62524414 C-206.74966053 555.60116338 -204.48037821 552.57859664 -202.2076416 549.55859375 C-196.09681318 541.43296697 -190.03999643 533.26953584 -184.01696777 525.07861328 C-179.37806553 518.77314486 -174.69975532 512.49894115 -169.98498535 506.25 C-170.87202148 505.82920166 -170.87202148 505.82920166 -171.77697754 505.39990234 C-173.79973063 504.3464783 -175.50145843 503.22762889 -177.31311035 501.8515625 C-177.93983643 501.37831543 -178.5665625 500.90506836 -179.21228027 500.41748047 C-179.87977295 499.90846191 -180.54726563 499.39944336 -181.23498535 498.875 C-182.67369924 497.78634177 -184.1125039 496.69780349 -185.5513916 495.609375 C-186.28631836 495.05185547 -187.02124512 494.49433594 -187.77844238 493.91992188 C-190.56478282 491.8112066 -193.36325556 489.71901051 -196.16247559 487.62744141 C-202.5899203 482.82305725 -208.9737263 477.96636991 -215.32873535 473.06640625 C-232.09801366 460.14133557 -232.09801366 460.14133557 -249.17248535 447.625 C-255.97515949 442.7635914 -262.59668895 437.70966331 -269.17199707 432.54589844 C-274.47785643 428.39069355 -279.85843657 424.35398088 -285.29748535 420.375 C-292.1461221 415.3644061 -298.93034043 410.27805627 -305.67248535 405.125 C-312.15843159 400.16864511 -318.64851853 395.2187626 -325.17248535 390.3125 C-325.8378833 389.81024902 -326.50328125 389.30799805 -327.18884277 388.79052734 C-330.45279886 386.31016736 -330.45279886 386.31016736 -333.98498535 384.25 C-334.3410083 384.73654053 -334.69703125 385.22308105 -335.06384277 385.72436523 C-342.61021935 396.02716658 -350.24003812 406.25541847 -358.0201416 416.3828125 C-362.73032529 422.51553489 -367.34820188 428.71702097 -371.9732666 434.9140625 C-376.95740745 441.57835628 -381.99613065 448.19904958 -387.04748535 454.8125 C-391.82534097 461.06922873 -396.55342964 467.34655898 -401.14904785 473.73828125 C-403.70519262 477.23530484 -406.35694456 480.65651712 -409.00744629 484.08203125 C-412.24776949 488.27567753 -415.43785873 492.50458948 -418.60998535 496.75 C-423.31938148 503.0522575 -428.08129915 509.31265622 -432.85998535 515.5625 C-445.27478138 531.65129982 -445.27478138 531.65129982 -456.98498535 548.25 C-456.39362793 548.53053223 -455.80227051 548.81106445 -455.19299316 549.10009766 C-453.17024008 550.1535217 -451.46851227 551.27237111 -449.65686035 552.6484375 C-449.03037598 553.12152344 -448.4038916 553.59460938 -447.75842285 554.08203125 C-446.75682129 554.84580078 -446.75682129 554.84580078 -445.73498535 555.625 C-444.29234127 556.71623078 -442.84963111 557.80737421 -441.40686035 558.8984375 C-440.6714502 559.4562793 -439.93604004 560.01412109 -439.17834473 560.58886719 C-435.78991787 563.15508004 -432.38720728 565.70212315 -428.98498535 568.25 C-427.65678207 569.24598937 -426.32865738 570.24208355 -425.00061035 571.23828125 C-424.01157715 571.98005615 -424.01157715 571.98005615 -423.00256348 572.73681641 C-420.9498291 574.27636719 -418.89709473 575.81591797 -416.84436035 577.35546875 C-415.8240271 578.12068848 -415.8240271 578.12068848 -414.78308105 578.90136719 C-413.41955889 579.92404945 -412.05611465 580.94683563 -410.69274902 581.96972656 C-407.8140725 584.12935109 -404.93450683 586.28770765 -402.0513916 588.44140625 C-397.43080881 591.89537381 -392.82595676 595.36764725 -388.24279785 598.87109375 C-378.75356815 606.12469673 -369.22777409 613.31534783 -359.59484863 620.37719727 C-354.0658785 624.43624204 -348.61361821 628.5803612 -343.1920166 632.78125 C-339.65168593 635.51760996 -336.06924087 638.19658199 -332.48498535 640.875 C-325.98107594 645.73850742 -319.50766302 650.64105647 -313.04748535 655.5625 C-312.18381348 656.22008301 -311.3201416 656.87766602 -310.43029785 657.55517578 C-304.92313975 661.7544899 -299.44365918 665.98786087 -293.98498535 670.25 C-288.54861139 663.86671664 -283.30678778 657.44280523 -278.4342041 650.61328125 C-275.11158956 646.00233565 -271.62678791 641.51247832 -268.17248535 637 C-261.66712838 628.49439351 -255.2704546 619.91915357 -248.98498535 611.25 C-244.60876922 613.73515524 -240.67106183 616.65045804 -236.67248535 619.6875 C-235.23894007 620.76959547 -233.80534494 621.85162488 -232.3717041 622.93359375 C-231.64257812 623.48515137 -230.91345215 624.03670898 -230.16223145 624.60498047 C-226.77689601 627.1627726 -223.38066421 629.70596645 -219.98498535 632.25 C-218.64510262 633.25515637 -217.30525893 634.26036479 -215.9654541 635.265625 C-213.36552302 637.2157318 -210.76389322 639.16353618 -208.1607666 641.109375 C-200.63284008 646.74025256 -193.14126556 652.41586577 -185.67248535 658.125 C-178.0387102 663.95862542 -170.3422099 669.69760851 -162.59387207 675.37792969 C-157.07194731 679.43176523 -151.62663694 683.57064459 -146.21154785 687.765625 C-140.5504782 692.14088854 -134.8030596 696.40300431 -129.07287598 700.68701172 C-126.93196899 702.28968788 -124.79401537 703.8962309 -122.65686035 705.50390625 C-121.94763428 706.03709473 -121.2384082 706.5702832 -120.50769043 707.11962891 C-119.1633444 708.13044616 -117.81940081 709.14179898 -116.47595215 710.15380859 C-112.35561326 713.249308 -108.1888776 716.26886148 -103.98498535 719.25 C-104.68099333 724.30629326 -106.76932729 728.7127244 -108.73498535 733.375 C-123.4822015 769.39109639 -124.48684072 810.12827897 -109.59362793 846.38085938 C-100.50006652 867.50005461 -87.24553492 888.9001168 -68.98498535 903.25 C-68.01947754 904.02859375 -67.05396973 904.8071875 -66.0592041 905.609375 C-32.69692434 932.17008074 6.49043093 942.72357174 48.6439209 938 C81.41464639 933.77993189 110.52738513 918.08610027 134.01501465 895.25 C134.56971436 894.72229004 135.12441406 894.19458008 135.69592285 893.65087891 C160.13118387 869.97301336 175.49494154 833.22752309 176.21813965 799.3203125 C176.42997152 778.11618603 176.42997152 778.11618603 173.01501465 757.25 C172.74092773 756.10724609 172.74092773 756.10724609 172.46130371 754.94140625 C167.8370481 736.20140158 159.68246301 717.69221107 148.01501465 702.25 C147.3395459 701.35539063 146.66407715 700.46078125 145.96813965 699.5390625 C144.3401299 697.42264982 142.69316938 695.32671648 141.01501465 693.25 C143.59050819 688.53613797 146.37282392 684.2969681 149.76501465 680.125 C150.74177313 678.90223684 151.71693067 677.67819373 152.6907959 676.453125 C153.48477783 675.45442383 153.48477783 675.45442383 154.2947998 674.43554688 C157.56151196 670.28516265 160.75489603 666.07870048 163.95251465 661.875 C164.6382959 660.97354248 165.32407715 660.07208496 166.03063965 659.14331055 C172.06107934 651.20547254 178.04762307 643.23529052 184.01501465 635.25 C190.59538303 626.44445196 197.214039 617.67087184 203.89001465 608.9375 C209.10661578 602.11287645 214.2536148 595.24383469 219.32751465 588.3125 C223.76793696 582.24822991 228.29438896 576.2748044 232.96887207 570.3894043 C238.46567369 563.45496209 243.7290372 556.34553992 249.01501465 549.25 C253.19555929 543.64866527 257.39140643 538.06067127 261.6361084 532.5078125 C268.28923053 523.80413734 274.91153516 515.08477741 281.39001465 506.25 C285.93467274 500.05331175 290.53491363 493.91472341 295.24157715 487.83984375 C298.94343775 483.06003058 302.60161406 478.2468063 306.26501465 473.4375 C306.9390332 472.55336426 307.61305176 471.66922852 308.30749512 470.75830078 C312.23250904 465.60556659 316.13776598 460.43877809 320.01501465 455.25 C324.54557583 456.58424294 328.5868099 458.46569201 332.78820801 460.57543945 C385.99132176 487.14953859 447.05019934 489.35307256 503.23376465 471.20410156 C508.91907238 469.25376952 514.44555502 466.95469743 519.94470215 464.53515625 C523.01501465 463.25 523.01501465 463.25 525.01501465 463.25 C532.01552042 495.73089025 537.5433345 528.08330235 540.01501465 561.25 C540.15858398 563.14008789 540.15858398 563.14008789 540.30505371 565.06835938 C544.6768701 627.21012761 538.61597582 689.79032869 524.01501465 750.25 C523.85494934 750.91499512 523.69488403 751.57999023 523.52996826 752.26513672 C514.44030728 789.84211498 501.16543422 826.12366684 484.95983887 861.20019531 C483.95713797 863.37556398 482.97299515 865.55889921 481.9876709 867.7421875 C476.48270057 879.78880298 470.09682905 891.25683216 463.4720459 902.71923828 C462.24203244 904.85568591 461.02797601 906.99921741 459.82751465 909.15234375 C439.96934409 944.60745244 415.39724604 977.92598932 388.06970215 1007.9765625 C386.14565327 1010.10545309 384.26355652 1012.26419142 382.39001465 1014.4375 C379.64092576 1017.59831879 376.74055964 1020.54619417 373.7532959 1023.48046875 C371.98544149 1025.28010481 370.34246923 1027.14601912 368.70251465 1029.0625 C362.74737841 1035.95229887 356.25150611 1042.30131639 349.3314209 1048.21484375 C346.84637199 1050.39816665 344.43622798 1052.64917768 342.02526855 1054.91357422 C336.40459819 1060.19095157 330.71429516 1065.27711343 324.6907959 1070.09765625 C321.94239373 1072.30841478 319.26263485 1074.58795356 316.57751465 1076.875 C245.07921841 1136.51865645 157.24800383 1177.82670094 1.01501465 1209.25 C0.31531555 1209.3335675 -0.38438354 1209.41713501 -1.10528564 1209.50323486 C-23.077547 1212.0927566 -45.05617496 1212.53169456 -67.15995789 1212.55962753 C-69.19673504 1212.56244705 -71.23349275 1212.56796731 -73.27026367 1212.57363892 C-90.93637338 1212.59911129 -108.39685445 1211.90774316 -125.98498535 1210.25 C-126.76925903 1210.1791922 -127.55353271 1210.1083844 -128.36157227 1210.03543091 C-212.00950704 1202.46900687 -294.05979061 1175.66664443 -366.98498535 1134.25 C-367.84269531 1133.76660156 -368.70040527 1133.28320312 -369.58410645 1132.78515625 C-381.57280643 1125.99493669 -393.14497938 1118.63106266 -404.60998535 1111 C-405.23928955 1110.58202148 -405.86859375 1110.16404297 -406.51696777 1109.73339844 C-414.88514553 1104.16264871 -422.984192 1098.33989286 -430.98498535 1092.25 C-432.37588777 1091.21950829 -433.76883609 1090.19176678 -435.16467285 1089.16796875 C-442.95954877 1083.42118647 -450.43713518 1077.43601695 -457.7310791 1071.06640625 C-460.71268165 1068.46554633 -463.77312766 1065.97543059 -466.85998535 1063.5 C-470.77017357 1060.32833928 -474.37548007 1057.01879947 -477.8404541 1053.3671875 C-479.6546358 1051.57613744 -481.50142138 1049.93866083 -483.43811035 1048.28515625 C-488.83143247 1043.6012687 -493.84674214 1038.53797268 -498.88513184 1033.48022461 C-500.54425855 1031.81573723 -502.20866587 1030.15666553 -503.87365723 1028.49804688 C-509.45489991 1022.92029507 -514.87085517 1017.26351479 -519.98498535 1011.25 C-521.43944052 1009.64231627 -522.8971943 1008.03760285 -524.35998535 1006.4375 C-542.02532072 986.83255855 -558.47420844 965.27944968 -572.78137207 943.10839844 C-574.03628799 941.1707879 -575.30811361 939.24507138 -576.5826416 937.3203125 C-593.00565351 912.39996992 -607.51189498 886.35575393 -619.98498535 859.25 C-620.43341797 858.27998047 -620.88185059 857.30996094 -621.34387207 856.31054688 C-648.93710033 796.25528162 -665.82249053 731.66077983 -672.35998535 665.9375 C-672.43979645 665.135401 -672.51960754 664.333302 -672.60183716 663.50689697 C-674.65423185 642.43738708 -675.22444834 621.41314412 -675.23498535 600.25 C-675.2356601 599.02044586 -675.23633484 597.79089172 -675.23703003 596.52407837 C-675.21919718 575.95180655 -674.48143933 555.67137377 -671.98498535 535.25 C-671.89777222 534.52931335 -671.81055908 533.80862671 -671.72070312 533.06610107 C-661.57378027 449.95200444 -635.23575307 369.16713158 -526.42248535 205.5625 C-525.9530249 205.0173877 -525.48356445 204.47227539 -524.99987793 203.91064453 C-515.72698267 193.26197185 -505.98340993 183.08156778 -495.98352051 173.11816406 C-494.21849992 171.3585652 -492.45897402 169.59359603 -490.6998291 167.828125 C-484.96153123 162.08645562 -479.16865005 156.51526243 -472.98498535 151.25 C-471.18850985 149.609417 -469.39629333 147.96414784 -467.60998535 146.3125 C-463.44088478 142.51462071 -459.18669333 138.90629289 -454.75061035 135.42578125 C-452.70319146 133.81502938 -450.67508592 132.18950635 -448.65686035 130.54296875 C-439.7870052 123.32681541 -430.66801968 116.53467145 -421.33850098 109.92529297 C-418.99610328 108.25791403 -416.66959148 106.57011655 -414.34436035 104.87890625 C-401.76835552 95.81031865 -388.6156816 87.85983229 -375.20178223 80.11035156 C-372.27310432 78.41662618 -369.35430387 76.70728311 -366.43811035 74.9921875 C-297.5189816 34.69542299 -219.11717385 10.29644332 -140.05725098 0.50714111 C-138.06632698 0.26009343 -136.07640968 0.00497369 -134.08654785 -0.25048828 C-90.5765942 -5.5844291 -43.48750328 -5.45861445 0 0 Z " fill="#E6005E" transform="translate(674.9849853515625,261.75)"/>
<path d="M0 0 C0.92447937 0.00215515 1.84895874 0.0043103 2.80145264 0.00653076 C16.49781377 0.05772382 29.87614388 0.41767531 43.3125 3.3125 C44.25577148 3.51117676 45.19904297 3.70985352 46.17089844 3.91455078 C86.05353929 12.5551424 122.45577497 30.59857554 152.81787109 57.96923828 C154.246848 59.25349684 155.69528663 60.51600119 157.14453125 61.77734375 C161.5505281 65.64167382 165.66377266 69.57358227 169.4296875 74.06640625 C170.82059193 75.7256802 172.24835639 77.35421555 173.6953125 78.96484375 C213.13029616 123.23369836 230.52859366 182.81583517 228.3125 241.3125 C225.1333822 293.64507916 203.80055875 344.78761003 167.58984375 382.859375 C165.31361776 385.21137864 165.31361776 385.21137864 163.62890625 387.640625 C163.19449219 388.19234375 162.76007813 388.7440625 162.3125 389.3125 C161.6525 389.3125 160.9925 389.3125 160.3125 389.3125 C160.3125 389.9725 160.3125 390.6325 160.3125 391.3125 C159.01953125 392.65234375 159.01953125 392.65234375 157.125 394.25 C156.38894531 394.87261719 155.65289063 395.49523437 154.89453125 396.13671875 C154.04246094 396.85472656 153.19039062 397.57273437 152.3125 398.3125 C151.36761719 399.14394531 150.42273437 399.97539062 149.44921875 400.83203125 C115.56070644 430.5013187 72.8853722 448.6897822 28.3125 454.3125 C27.62780136 454.39982895 26.94310272 454.4871579 26.23765564 454.57713318 C20.97412255 455.20821077 15.79114827 455.48475775 10.4921875 455.515625 C9.67919693 455.52268463 8.86620636 455.52974426 8.02857971 455.53701782 C-30.54418034 455.79569343 -66.99720736 450.19366243 -101.6875 432.3125 C-102.45030273 431.92078613 -103.21310547 431.52907227 -103.99902344 431.12548828 C-121.43294292 422.07658561 -136.98080311 411.30177054 -151.6875 398.3125 C-152.53441406 397.58804687 -153.38132812 396.86359375 -154.25390625 396.1171875 C-180.91476698 372.92266661 -201.69921208 341.49170349 -213.6875 308.3125 C-214.0602002 307.29881348 -214.0602002 307.29881348 -214.44042969 306.26464844 C-218.95506218 293.86514449 -222.20323982 281.26775846 -224.6875 268.3125 C-224.85411133 267.44657227 -225.02072266 266.58064453 -225.19238281 265.68847656 C-229.83163834 240.2446093 -229.91009721 211.66211175 -224.6875 186.3125 C-224.48350586 185.31895508 -224.27951172 184.32541016 -224.06933594 183.30175781 C-216.37142539 146.94117596 -201.44159178 113.10210337 -177.6875 84.3125 C-177.22375977 83.74724609 -176.76001953 83.18199219 -176.28222656 82.59960938 C-138.35545193 36.64158053 -82.66526411 6.25313807 -23.13336182 0.50482178 C-15.43963499 -0.10014748 -7.7122742 -0.03245045 0 0 Z " fill="#000000" transform="translate(1328.6875,-0.3125)"/>
</svg>
