<?xml version="1.0" standalone="no"?>
<!DOCTYPE svg PUBLIC "-//W3C//DTD SVG 20010904//EN"
 "http://www.w3.org/TR/2001/REC-SVG-20010904/DTD/svg10.dtd">
<svg version="1.0" xmlns="http://www.w3.org/2000/svg"
 width="399.000000pt" height="399.000000pt" viewBox="0 0 399.000000 399.000000"
 preserveAspectRatio="xMidYMid meet">

<g transform="translate(0.000000,399.000000) scale(0.100000,-0.100000)"
fill="#000000" stroke="none">
<path d="M1257 2775 c-37 -36 -56 -261 -28 -329 11 -27 8 -34 -33 -96 -103
-153 -126 -315 -79 -540 29 -138 74 -224 163 -308 86 -82 215 -139 367 -162
43 -7 82 -16 86 -20 4 -3 -8 -32 -27 -64 -19 -31 -38 -75 -41 -98 -6 -33 -13
-42 -41 -54 -19 -8 -55 -17 -79 -21 -38 -5 -42 -8 -29 -18 27 -19 14 -50 -21
-50 -36 0 -47 31 -19 52 16 11 13 13 -24 13 -37 0 -42 -2 -39 -22 2 -19 -4
-24 -27 -26 -44 -5 -65 42 -25 56 18 7 17 9 -15 25 -35 16 -36 16 -36 -3 0
-24 -14 -33 -39 -25 -34 10 -37 60 -5 67 12 3 12 7 -2 26 l-16 23 -15 -20
c-19 -28 -53 -12 -53 26 0 22 4 25 25 21 21 -5 23 -3 14 14 -6 11 -29 37 -51
59 -36 35 -42 37 -52 23 -19 -25 -52 -13 -48 18 3 27 -16 38 -70 38 -23 0 -28
-4 -28 -25 0 -18 11 -31 38 -49 56 -35 97 -87 143 -179 23 -45 55 -97 73 -115
71 -77 209 -114 338 -93 42 7 75 8 80 3 5 -5 8 -82 6 -170 -3 -160 -3 -161 20
-172 25 -11 620 -13 661 -1 l24 6 -2 250 c-2 283 -10 343 -57 421 -19 31 -32
60 -29 64 3 4 30 11 60 15 31 3 87 15 126 26 271 75 414 247 450 540 23 190
-13 342 -110 474 l-30 40 15 55 c24 87 4 274 -33 311 -26 26 -204 -35 -322
-109 l-54 -35 -96 19 c-134 26 -408 26 -541 0 l-96 -18 -65 39 c-85 52 -150
81 -224 98 -74 18 -71 18 -88 0z m-92 -1481 c20 -21 15 -38 -13 -42 -24 -4
-38 18 -28 43 7 19 21 19 41 -1z m475 -240 c0 -16 -38 -34 -57 -27 -19 7 -16
40 4 52 21 11 53 -3 53 -25z"/>
</g>
</svg>
