<?xml version="1.0" encoding="UTF-8"?>
<svg version="1.1" xmlns="http://www.w3.org/2000/svg" width="399" height="399">
<path d="M0 0 C1.20833496 -0.0066568 2.41666992 -0.0133136 3.66162109 -0.02017212 C6.20978282 -0.03025291 8.7579707 -0.03499056 11.30615234 -0.03466797 C15.14857055 -0.03901842 18.98981739 -0.07532737 22.83203125 -0.11328125 C40.0415364 -0.1935548 55.93024432 0.83895907 71.8125 8.0234375 C72.5947998 8.36737549 73.37709961 8.71131348 74.18310547 9.06567383 C94.837128 18.34262237 113.17619311 31.27871557 128.1875 48.3359375 C128.1875 48.9959375 128.1875 49.6559375 128.1875 50.3359375 C129.1775 50.6659375 130.1675 50.9959375 131.1875 51.3359375 C132.14962703 52.676043 133.09677733 54.02924655 133.96875 55.4296875 C135.3674365 57.61737665 136.90198538 59.67955392 138.4375 61.7734375 C142.60697526 67.700369 145.95250576 74.02373124 149.23266602 80.47241211 C149.87373358 81.72356749 150.53079478 82.96664571 151.20288086 84.20141602 C154.0746723 89.60871233 155.77135397 95.12951769 157.375 101.0234375 C157.63474609 101.94705078 157.89449219 102.87066406 158.16210938 103.82226562 C159.85644651 109.90349115 161.29552077 115.57950522 161.38037109 121.92626953 C161.40446548 123.57551926 161.40446548 123.57551926 161.42904663 125.25808716 C161.47408462 130.32195124 161.51463862 135.38568835 161.53759766 140.44970703 C161.55080202 143.09943568 161.5811707 145.74730075 161.61962891 148.39697266 C161.84687865 164.16415272 161.42543941 178.37777945 156.1875 193.3359375 C155.86281738 194.34317871 155.53813477 195.35041992 155.20361328 196.38818359 C154.39767182 198.78514512 153.51772549 201.12001342 152.5625 203.4609375 C152.23185547 204.27804199 151.90121094 205.09514648 151.56054688 205.93701172 C146.56144957 217.74703638 139.21619989 228.33955036 131.00390625 238.14453125 C129.19040661 240.33243081 127.54340621 242.59895566 125.875 244.8984375 C121.72802766 250.27238101 116.50918673 254.18759564 111.1875 258.3359375 C110.21167969 259.15835937 109.23585938 259.98078125 108.23046875 260.828125 C88.15378506 277.37399269 70.04511672 285.13597745 44.16796875 285.0703125 C41.93800902 285.07877953 39.70805349 285.08842433 37.47810364 285.09918213 C32.82077416 285.11550591 28.16392069 285.11292783 23.5065918 285.09765625 C17.57888005 285.08039117 11.65294298 285.11751041 5.72548962 285.16991806 C1.12418545 285.20322036 -3.47670138 285.20356251 -8.0781002 285.19477081 C-10.26149082 285.19512744 -12.44491031 285.20621426 -14.62818336 285.22887421 C-28.37269462 285.35260704 -38.71308346 284.00373059 -50.8125 277.3359375 C-52.38394524 276.5420462 -52.38394524 276.5420462 -53.98713684 275.7321167 C-60.77064711 272.30243669 -66.78395909 267.93808257 -72.8125 263.3359375 C-73.988125 262.45228516 -73.988125 262.45228516 -75.1875 261.55078125 C-83.38269578 255.30479002 -90.65569907 248.91583631 -96.9609375 240.7265625 C-99.03260236 238.05175471 -101.2298222 235.52121447 -103.48828125 233.00390625 C-105.16147003 230.89637937 -106.45213891 228.65850521 -107.8125 226.3359375 C-108.48925781 225.25441406 -109.16601562 224.17289063 -109.86328125 223.05859375 C-124.47550249 199.57087263 -129.85190605 176.27934151 -129.48486328 148.69946289 C-129.43723998 144.87757021 -129.44385237 141.05844739 -129.45703125 137.23632812 C-129.42735289 124.36462839 -128.96208229 112.58974411 -124.8125 100.3359375 C-124.56661133 99.53244873 -124.32072266 98.72895996 -124.06738281 97.90112305 C-115.97346858 72.29195378 -99.80958053 51.34418782 -80.375 33.2734375 C-79.82779297 32.75716797 -79.28058594 32.24089844 -78.71679688 31.70898438 C-75.28191213 28.51799678 -71.7955632 25.84149606 -67.8125 23.3359375 C-66.74515625 22.65015625 -65.6778125 21.964375 -64.578125 21.2578125 C-44.77095248 8.90340294 -23.57839475 0.04608413 0 0 Z " fill="#FDFCFD" transform="translate(183.8125,58.6640625)"/>
<path d="M0 0 C9.98561012 6.287236 18.81290149 13.6488477 27.1875 21.9375 C28.0532666 22.7893689 28.0532666 22.7893689 28.93652344 23.65844727 C33 27.75341886 33 27.75341886 33 30 C33.99 30.33 34.98 30.66 36 31 C36.96212703 32.3401055 37.90927733 33.69330905 38.78125 35.09375 C40.1799365 37.28143915 41.71448538 39.34361642 43.25 41.4375 C47.41947526 47.3644315 50.76500576 53.68779374 54.04516602 60.13647461 C54.68623358 61.38762999 55.34329478 62.63070821 56.01538086 63.86547852 C58.8871723 69.27277483 60.58385397 74.79358019 62.1875 80.6875 C62.44724609 81.61111328 62.70699219 82.53472656 62.97460938 83.48632812 C64.66894651 89.56755365 66.10802077 95.24356772 66.19287109 101.59033203 C66.21696548 103.23958176 66.21696548 103.23958176 66.24154663 104.92214966 C66.28658462 109.98601374 66.32713862 115.04975085 66.35009766 120.11376953 C66.36330202 122.76349818 66.3936707 125.41136325 66.43212891 128.06103516 C66.65937865 143.82821522 66.23793941 158.04184195 61 173 C60.67531738 174.00724121 60.35063477 175.01448242 60.01611328 176.05224609 C59.21017182 178.44920762 58.33022549 180.78407592 57.375 183.125 C57.04435547 183.94210449 56.71371094 184.75920898 56.37304688 185.60107422 C51.37394957 197.41109888 44.02869989 208.00361286 35.81640625 217.80859375 C34.00290661 219.99649331 32.35590621 222.26301816 30.6875 224.5625 C26.54052766 229.93644351 21.32168673 233.85165814 16 238 C15.02417969 238.82242188 14.04835938 239.64484375 13.04296875 240.4921875 C-7.03371494 257.03805519 -25.14238328 264.80003995 -51.01953125 264.734375 C-53.24949098 264.74284203 -55.47944651 264.75248683 -57.70939636 264.76324463 C-62.36672584 264.77956841 -67.02357931 264.77699033 -71.6809082 264.76171875 C-77.60861995 264.74445367 -83.53455702 264.78157291 -89.46201038 264.83398056 C-94.06331455 264.86728286 -98.66420138 264.86762501 -103.2656002 264.85883331 C-105.44899082 264.85918994 -107.63241031 264.87027676 -109.81568336 264.89293671 C-123.56019462 265.01666954 -133.90058346 263.66779309 -146 257 C-147.04763016 256.47073914 -148.09526031 255.94147827 -149.17463684 255.3961792 C-155.95814711 251.96649919 -161.97145909 247.60214507 -168 243 C-168.78375 242.41089844 -169.5675 241.82179688 -170.375 241.21484375 C-178.57019578 234.96885252 -185.84319907 228.57989881 -192.1484375 220.390625 C-194.22010236 217.71581721 -196.4173222 215.18527697 -198.67578125 212.66796875 C-200.34897003 210.56044187 -201.63963891 208.32256771 -203 206 C-203.67675781 204.91847656 -204.35351562 203.83695313 -205.05078125 202.72265625 C-219.87746782 178.89020302 -225.02375956 155.47344179 -224.375 127.5625 C-224.34479318 125.2584993 -224.31743674 122.95445942 -224.29296875 120.65039062 C-224.22798504 115.09938025 -224.128526 109.54988483 -224 104 C-223.34 104 -222.68 104 -222 104 C-222.01047363 104.99217529 -222.02094727 105.98435059 -222.03173828 107.0065918 C-222.06842909 110.75085726 -222.09107555 114.49510747 -222.10986328 118.23950195 C-222.11981068 119.84825325 -222.13337343 121.45698702 -222.15087891 123.06567383 C-222.29123945 136.31323265 -221.15490079 148.71726216 -217.6875 161.5625 C-217.46876221 162.3769458 -217.25002441 163.1913916 -217.0246582 164.03051758 C-215.20272421 170.61730871 -212.93671996 176.82165473 -210 183 C-209.58476074 183.8976709 -209.58476074 183.8976709 -209.16113281 184.81347656 C-199.04787472 207.35980859 -199.04787472 207.35980859 -182 224 C-182 224.66 -182 225.32 -182 226 C-181.401875 226.061875 -180.80375 226.12375 -180.1875 226.1875 C-177.11811288 227.32755807 -176.6500131 229.20767014 -175 232 C-172.2476676 234.51299915 -169.57757249 236.65620685 -166.375 238.5625 C-164 240 -164 240 -162.31640625 241.81640625 C-159.34452799 244.61789014 -156.1285298 246.41984508 -152.5625 248.375 C-151.85891357 248.7656665 -151.15532715 249.15633301 -150.43041992 249.55883789 C-144.09716393 253.03223632 -137.63712663 256.14481858 -131 259 C-130.12988281 259.37511719 -129.25976562 259.75023437 -128.36328125 260.13671875 C-125.07079415 261.33942891 -122.47081958 261.38564662 -119 261 C-116.57271602 258.68319151 -116.0313486 257.22593653 -115.56762695 253.88378906 C-115.54144287 252.68979492 -115.51525879 251.49580078 -115.48828125 250.265625 C-115.43510742 248.32236328 -115.43510742 248.32236328 -115.38085938 246.33984375 C-115.35776133 244.97656774 -115.33497886 243.61328636 -115.3125 242.25 C-115.27931352 240.87106138 -115.24482262 239.4921535 -115.20898438 238.11328125 C-115.12647709 234.74226941 -115.05733229 231.37151872 -115 228 C-115.91064209 228.32307129 -116.82128418 228.64614258 -117.75952148 228.97900391 C-127.91738912 232.17950134 -141.61682737 230.83082049 -151 226 C-157.55188575 221.42448248 -161.02447811 216.14640011 -164.5 209.0625 C-168.48046255 200.98593456 -172.92803483 193.97702303 -180.875 189.3125 C-183.60300241 187.62755733 -184.10418809 186.0131855 -185 183 C-181.15434323 180.43622882 -179.58969584 180.4900338 -175 181 C-163.97280061 185.12413717 -157.05206723 192.0670874 -151 202 C-150.67 202.99 -150.34 203.98 -150 205 C-143.45999291 209.44720482 -134.59464293 209.37359113 -127 209.625 C-125.55173828 209.68300781 -125.55173828 209.68300781 -124.07421875 209.7421875 C-121.7163256 209.83556941 -119.35842244 209.92134329 -117 210 C-117 209.34 -117 208.68 -117 208 C-116.01 208 -115.02 208 -114 208 C-113.97421875 207.43152344 -113.9484375 206.86304688 -113.921875 206.27734375 C-113.35729844 198.59140373 -110.6358059 194.10601863 -106 188 C-106.79921875 187.96261719 -107.5984375 187.92523438 -108.421875 187.88671875 C-127.81360243 186.72594633 -143.87351538 180.45278619 -157 166 C-169.72750739 149.49796963 -172.49947359 129.2964461 -171 109 C-169.74285299 99.57139743 -166.08012817 89.70117423 -159.79296875 82.45703125 C-157.80353503 80.18607581 -157.80353503 80.18607581 -157.828125 77.6328125 C-158.03695312 76.39144531 -158.03695312 76.39144531 -158.25 75.125 C-159.75244817 63.49667722 -160.3974732 50.7949464 -155 40 C-142.19323042 38.87659916 -131.12016609 44.34614713 -120.8046875 51.328125 C-115.45956756 54.51435249 -111.79265325 53.93888058 -105.83203125 52.58203125 C-97.52324198 50.85478564 -89.48103317 50.57197578 -81.01635742 50.66381836 C-78.67136744 50.68766405 -76.32750479 50.68431416 -73.98242188 50.67773438 C-64.99990755 50.69488674 -56.57553332 51.5038979 -47.80566406 53.49926758 C-43.2115487 54.35806758 -40.60565487 53.73720163 -36.72485352 51.14038086 C-36.13502686 50.72280518 -35.5452002 50.30522949 -34.9375 49.875 C-26.21509154 44.18868403 -14.70260426 37.94180687 -4 40 C2.4005374 46.61388865 1.25694798 58.39401829 1.1640625 66.97265625 C1.08596595 70.05747007 0.69868237 72.91293803 0.0625 75.9375 C-0.50292801 79.903137 0.89141736 81.80014015 3.1875 85 C3.83460938 85.8353125 4.48171875 86.670625 5.1484375 87.53125 C14.75866942 100.34489256 14.397396 118.13758924 12.53515625 133.359375 C10.59108837 146.27188316 5.9812959 158.38385158 -3 168 C-3.60972656 168.67417969 -4.21945312 169.34835938 -4.84765625 170.04296875 C-17.05907147 182.2073265 -35.28505413 187.15404288 -52 188 C-51.60167969 188.53367187 -51.20335937 189.06734375 -50.79296875 189.6171875 C-50.26316406 190.36226562 -49.73335937 191.10734375 -49.1875 191.875 C-48.66542969 192.59429687 -48.14335937 193.31359375 -47.60546875 194.0546875 C-43.24506122 202.0540726 -42.55957859 210.0599382 -42.55859375 219.02734375 C-42.53878197 220.69344444 -42.53878197 220.69344444 -42.51856995 222.39320374 C-42.47797665 225.90799574 -42.45606966 229.4225278 -42.4375 232.9375 C-42.41370687 236.47738869 -42.38565317 240.01703302 -42.34571838 243.55677795 C-42.32136558 245.75138296 -42.30650363 247.94611817 -42.30210876 250.14085388 C-42.28682884 251.62368614 -42.28682884 251.62368614 -42.27124023 253.13647461 C-42.26482765 254.44025307 -42.26482765 254.44025307 -42.25828552 255.77037048 C-42.13835763 258.28567163 -42.13835763 258.28567163 -40 261 C-26.12230394 263.0668909 -7.97707023 250.85485681 2.9765625 243.27734375 C10.61993745 237.52012464 18.10481356 231.57434815 24 224 C25.65871135 222.32541581 27.32565886 220.65895669 29 219 C55.26144613 190.25378409 65.8704619 151.72136364 64.21875 113.43261719 C63.14538941 96.58948107 59.45703351 74.64142966 49 61 C48.31125551 59.32733481 47.62283203 57.654535 46.9375 55.98046875 C45.07612739 52.04831912 42.46278825 48.57252656 40 45 C38.4287702 42.58558069 36.85970469 40.16986533 35.296875 37.75 C34.10280891 35.86292981 34.10280891 35.86292981 32 35 C31.566875 34.236875 31.13375 33.47375 30.6875 32.6875 C28.78692618 29.66066022 26.79249982 28.22130668 24 26 C23.02765313 24.84498681 22.07112379 23.67658984 21.125 22.5 C14.98915735 15.27334088 6.8694678 9.24631186 -1 4 C-0.67 2.68 -0.34 1.36 0 0 Z " fill="#7666F8" transform="translate(279,79)"/>
<path d="M0 0 C9.98561012 6.287236 18.81290149 13.6488477 27.1875 21.9375 C28.0532666 22.7893689 28.0532666 22.7893689 28.93652344 23.65844727 C33 27.75341886 33 27.75341886 33 30 C34.485 30.495 34.485 30.495 36 31 C36.96212703 32.3401055 37.90927733 33.69330905 38.78125 35.09375 C40.1799365 37.28143915 41.71448538 39.34361642 43.25 41.4375 C47.41947526 47.3644315 50.76500576 53.68779374 54.04516602 60.13647461 C54.68623358 61.38762999 55.34329478 62.63070821 56.01538086 63.86547852 C58.8871723 69.27277483 60.58385397 74.79358019 62.1875 80.6875 C62.44724609 81.61111328 62.70699219 82.53472656 62.97460938 83.48632812 C64.66894651 89.56755365 66.10802077 95.24356772 66.19287109 101.59033203 C66.21696548 103.23958176 66.21696548 103.23958176 66.24154663 104.92214966 C66.28658462 109.98601374 66.32713862 115.04975085 66.35009766 120.11376953 C66.36330202 122.76349818 66.3936707 125.41136325 66.43212891 128.06103516 C66.65937865 143.82821522 66.23793941 158.04184195 61 173 C60.67531738 174.00724121 60.35063477 175.01448242 60.01611328 176.05224609 C59.21017182 178.44920762 58.33022549 180.78407592 57.375 183.125 C56.8790332 184.35065674 56.8790332 184.35065674 56.37304688 185.60107422 C51.37394957 197.41109888 44.02869989 208.00361286 35.81640625 217.80859375 C34.00290661 219.99649331 32.35590621 222.26301816 30.6875 224.5625 C26.54052766 229.93644351 21.32168673 233.85165814 16 238 C15.02417969 238.82242188 14.04835938 239.64484375 13.04296875 240.4921875 C-3.40309941 254.04594329 -21.16934049 265.35875474 -43 264 C-42.34 263.67 -41.68 263.34 -41 263 C-40.67 262.34 -40.34 261.68 -40 261 C-39.071875 261.0825 -38.14375 261.165 -37.1875 261.25 C-17.0470318 261.08951818 6.36750059 242.24605902 20 229 C21.35417906 227.35022588 22.6890628 225.6843394 24 224 C25.65871135 222.32541581 27.32565886 220.65895669 29 219 C55.26144613 190.25378409 65.8704619 151.72136364 64.21875 113.43261719 C63.14538941 96.58948107 59.45703351 74.64142966 49 61 C48.31125551 59.32733481 47.62283203 57.654535 46.9375 55.98046875 C45.07612739 52.04831912 42.46278825 48.57252656 40 45 C38.4287702 42.58558069 36.85970469 40.16986533 35.296875 37.75 C34.10280891 35.86292981 34.10280891 35.86292981 32 35 C31.566875 34.236875 31.13375 33.47375 30.6875 32.6875 C28.78692618 29.66066022 26.79249982 28.22130668 24 26 C23.02765313 24.84498681 22.07112379 23.67658984 21.125 22.5 C14.98915735 15.27334088 6.8694678 9.24631186 -1 4 C-0.67 2.68 -0.34 1.36 0 0 Z " fill="#9184F0" transform="translate(279,79)"/>
<path d="M0 0 C0.66 0 1.32 0 2 0 C1.98952637 0.99217529 1.97905273 1.98435059 1.96826172 3.0065918 C1.93157091 6.75085726 1.90892445 10.49510747 1.89013672 14.23950195 C1.88018932 15.84825325 1.86662657 17.45698702 1.84912109 19.06567383 C1.70876055 32.31323265 2.84509921 44.71726216 6.3125 57.5625 C6.53123779 58.3769458 6.74997559 59.1913916 6.9753418 60.03051758 C8.79727579 66.61730871 11.06328004 72.82165473 14 79 C14.41523926 79.8976709 14.41523926 79.8976709 14.83886719 80.81347656 C24.95212528 103.35980859 24.95212528 103.35980859 42 120 C42 120.66 42 121.32 42 122 C42.8971875 122.0928125 42.8971875 122.0928125 43.8125 122.1875 C46.88188712 123.32755807 47.3499869 125.20767014 49 128 C51.7523324 130.51299915 54.42242751 132.65620685 57.625 134.5625 C60 136 60 136 61.68359375 137.81640625 C64.65547201 140.61789014 67.8714702 142.41984508 71.4375 144.375 C72.14108643 144.7656665 72.84467285 145.15633301 73.56958008 145.55883789 C79.90283607 149.03223632 86.36287337 152.14481858 93 155 C93.87011719 155.37511719 94.74023438 155.75023437 95.63671875 156.13671875 C98.92920585 157.33942891 101.52918042 157.38564662 105 157 C107.42728398 154.68319151 107.9686514 153.22593653 108.43237305 149.88378906 C108.45855713 148.68979492 108.48474121 147.49580078 108.51171875 146.265625 C108.56489258 144.32236328 108.56489258 144.32236328 108.61914062 142.33984375 C108.64223867 140.97656774 108.66502114 139.61328636 108.6875 138.25 C108.72068648 136.87106138 108.75517738 135.4921535 108.79101562 134.11328125 C108.87352291 130.74226941 108.94266771 127.37151872 109 124 C109.66 124.33 110.32 124.66 111 125 C111.07417023 129.50232334 111.1286105 134.00429091 111.16479492 138.50708008 C111.17987936 140.03871861 111.20034978 141.57031398 111.22631836 143.10180664 C111.26271847 145.30365654 111.27972913 147.50493533 111.29296875 149.70703125 C111.30845261 150.39150833 111.32393646 151.07598541 111.33988953 151.78120422 C111.34090062 154.63893591 111.32125373 156.54047409 109.65625 158.92211914 C105.3003008 161.75695341 98.93074379 160.85649196 94 160 C88.38378486 158.34090776 83.18950109 155.67283009 78 153 C76.98679687 152.49855469 75.97359375 151.99710938 74.9296875 151.48046875 C68.13454543 147.96674144 62.07058963 143.63424476 56 139 C55.21625 138.41089844 54.4325 137.82179688 53.625 137.21484375 C45.42980422 130.96885252 38.15680093 124.57989881 31.8515625 116.390625 C29.77989764 113.71581721 27.5826778 111.18527697 25.32421875 108.66796875 C23.65102997 106.56044187 22.36036109 104.32256771 21 102 C20.32324219 100.91847656 19.64648438 99.83695312 18.94921875 98.72265625 C4.12253218 74.89020302 -1.02375956 51.47344179 -0.375 23.5625 C-0.34479318 21.2584993 -0.31743674 18.95445942 -0.29296875 16.65039062 C-0.22798504 11.09938025 -0.128526 5.54988483 0 0 Z " fill="#9584EC" transform="translate(55,183)"/>
<path d="M0 0 C-1 3 -1 3 -2.65478516 3.91967773 C-3.35909668 4.17177002 -4.0634082 4.4238623 -4.7890625 4.68359375 C-5.56636719 4.97169922 -6.34367187 5.25980469 -7.14453125 5.55664062 C-7.96308594 5.84732422 -8.78164062 6.13800781 -9.625 6.4375 C-14.25019227 8.1054178 -18.71236663 9.72174789 -22.9609375 12.22265625 C-26 14 -26 14 -28 14 C-28.33 14.99 -28.66 15.98 -29 17 C-30.9099342 17.97172091 -32.8241742 18.93613293 -34.76171875 19.8515625 C-44.32098221 24.75631548 -52.66780354 33.29179346 -60 41 C-60.64195313 41.65871094 -61.28390625 42.31742188 -61.9453125 42.99609375 C-81.4452941 63.68509862 -91.27634044 89.59950209 -97 117 C-99.46507336 114.53492664 -99.66252408 113.44605689 -100 110 C-99.5831009 107.47847922 -99.09442133 105.14382758 -98.4375 102.6875 C-98.25405029 101.9874585 -98.07060059 101.28741699 -97.8815918 100.56616211 C-89.90371754 71.1693226 -73.72556509 47.54526228 -51.5625 26.9375 C-51.01529297 26.42123047 -50.46808594 25.90496094 -49.90429688 25.37304688 C-46.46941213 22.18205928 -42.9830632 19.50555856 -39 17 C-37.93265625 16.31421875 -36.8653125 15.6284375 -35.765625 14.921875 C-7.70679162 -2.56893054 -7.70679162 -2.56893054 0 0 Z " fill="#8D84EE" transform="translate(155,65)"/>
<path d="M0 0 C9.98561012 6.287236 18.81290149 13.6488477 27.1875 21.9375 C27.76467773 22.5054126 28.34185547 23.0733252 28.93652344 23.65844727 C33 27.75341886 33 27.75341886 33 30 C33.99 30.33 34.98 30.66 36 31 C36.96212703 32.3401055 37.90927733 33.69330905 38.78125 35.09375 C40.1799365 37.28143915 41.71448538 39.34361642 43.25 41.4375 C47.41947526 47.3644315 50.76500576 53.68779374 54.04516602 60.13647461 C54.68623358 61.38762999 55.34329478 62.63070821 56.01538086 63.86547852 C58.8871723 69.27277483 60.58385397 74.79358019 62.1875 80.6875 C62.44724609 81.61111328 62.70699219 82.53472656 62.97460938 83.48632812 C64.68578783 89.62799962 66.12800725 95.292789 66.11352539 101.70825195 C66.11341209 103.38942863 66.11341209 103.38942863 66.11329651 105.10456848 C66.10813522 106.3036937 66.10297394 107.50281891 66.09765625 108.73828125 C66.0962413 109.97418503 66.09482635 111.21008881 66.09336853 112.48344421 C66.08872618 115.75658345 66.07975311 119.02967287 66.06866455 122.30279541 C66.05840404 125.64782248 66.05394631 128.99285173 66.04882812 132.33789062 C66.03780907 138.8919465 66.02107836 145.44596918 66 152 C65.01 152 64.02 152 63 152 C62.87422052 144.57901071 62.87422052 144.57901071 63.49121094 141.73876953 C68.11780167 116.83421347 62.4167847 87.8249026 52 65 C51.01304179 63.65698427 50.01396732 62.32274262 49 61 C48.31125551 59.32733481 47.62283203 57.654535 46.9375 55.98046875 C45.07612739 52.04831912 42.46278825 48.57252656 40 45 C38.4287702 42.58558069 36.85970469 40.16986533 35.296875 37.75 C34.10280891 35.86292981 34.10280891 35.86292981 32 35 C31.566875 34.236875 31.13375 33.47375 30.6875 32.6875 C28.78692618 29.66066022 26.79249982 28.22130668 24 26 C23.02765313 24.84498681 22.07112379 23.67658984 21.125 22.5 C14.98915735 15.27334088 6.8694678 9.24631186 -1 4 C-0.67 2.68 -0.34 1.36 0 0 Z " fill="#8E85E9" transform="translate(279,79)"/>
<path d="M0 0 C11.02719939 4.12413717 17.94793277 11.0670874 24 21 C24.495 22.485 24.495 22.485 25 24 C27.00016466 25.20882096 27.00016466 25.20882096 29 26 C27.8125 28.5 27.8125 28.5 26 31 C23.3125 31.3125 23.3125 31.3125 21 31 C20.01 29.02 19.02 27.04 18 25 C18.33 24.67 18.66 24.34 19 24 C17.35 23.34 15.7 22.68 14 22 C14 21.34 14 20.68 14 20 C10.88667752 20.66868314 10.88667752 20.66868314 9.8125 23.0625 C9.544375 23.701875 9.27625 24.34125 9 25 C8.72027344 24.50371094 8.44054687 24.00742187 8.15234375 23.49609375 C4.5384069 17.37215574 0.42293581 11.97769625 -5.8125 8.375 C-8.56985667 6.64180438 -9.08909385 5.06395703 -10 2 C-6.15434323 -0.56377118 -4.58969584 -0.5099662 0 0 Z " fill="#7F6AEF" transform="translate(104,260)"/>
<path d="M0 0 C1.20409012 -0.00524185 2.40818024 -0.0104837 3.64875793 -0.0158844 C6.17899816 -0.02226255 8.70926821 -0.02102275 11.23950195 -0.01245117 C15.05540375 -0.00396546 18.86979314 -0.03272691 22.68554688 -0.06445312 C39.94091056 -0.11555628 55.80683677 1.00698081 71.70703125 8.24609375 C72.87359253 8.7555957 72.87359253 8.7555957 74.0637207 9.27539062 C80.87206428 12.29976247 87.43605244 15.72315709 93.89453125 19.43359375 C93.39953125 20.91859375 93.39953125 20.91859375 92.89453125 22.43359375 C88.23946725 21.82485461 84.49016766 19.84157316 80.39453125 17.68359375 C60.71585443 7.62899179 39.81205941 2.03197079 17.64453125 2.05859375 C15.83819214 2.0577478 15.83819214 2.0577478 13.99536133 2.05688477 C2.84912638 2.19068345 -7.82137258 3.79206377 -18.72900391 5.97607422 C-21.84364427 6.57570808 -24.96101912 7.02156242 -28.10546875 7.43359375 C-27.46833801 5.54127502 -27.46833801 5.54127502 -26.10546875 3.43359375 C-17.85873927 0.13393562 -8.76365735 -0.02290418 0 0 Z " fill="#796EF4" transform="translate(184.10546875,58.56640625)"/>
<path d="M0 0 C0.66 0 1.32 0 2 0 C1.98952637 0.99217529 1.97905273 1.98435059 1.96826172 3.0065918 C1.93157091 6.75085726 1.90892445 10.49510747 1.89013672 14.23950195 C1.88018932 15.84825325 1.86662657 17.45698702 1.84912109 19.06567383 C1.70876055 32.31323265 2.84509921 44.71726216 6.3125 57.5625 C6.53123779 58.3769458 6.74997559 59.1913916 6.9753418 60.03051758 C9.21400049 68.1238828 12.25710518 75.59041594 16.05859375 83.07421875 C16.41977295 83.78618408 16.78095215 84.49814941 17.15307617 85.23168945 C17.86598576 86.6246637 18.58832074 88.01286834 19.3215332 89.39526367 C21.33306939 93.27343518 22.53551452 96.58738789 23 101 C22.01 101 21.02 101 20 101 C5.0761776 76.07645904 -1.0507761 52.63574796 -0.375 23.5625 C-0.34479318 21.2584993 -0.31743674 18.95445942 -0.29296875 16.65039062 C-0.22798504 11.09938025 -0.128526 5.54988483 0 0 Z " fill="#917FE9" transform="translate(55,183)"/>
<path d="M0 0 C-1 3 -1 3 -2.65478516 3.91967773 C-3.35909668 4.17177002 -4.0634082 4.4238623 -4.7890625 4.68359375 C-5.56636719 4.97169922 -6.34367187 5.25980469 -7.14453125 5.55664062 C-7.96308594 5.84732422 -8.78164062 6.13800781 -9.625 6.4375 C-14.25019227 8.1054178 -18.71236663 9.72174789 -22.9609375 12.22265625 C-26 14 -26 14 -28 14 C-28.33 14.99 -28.66 15.98 -29 17 C-30.89749989 17.96539468 -32.79990551 18.92286148 -34.73046875 19.8203125 C-37.87531694 21.45498402 -40.55738051 23.54415399 -43.3359375 25.73046875 C-45 27 -45 27 -47 28 C-47.66 27.67 -48.32 27.34 -49 27 C-44.1644117 14.7480319 -23.39308851 7.56652323 -12.05444336 2.57617188 C-3.46018411 -1.1533947 -3.46018411 -1.1533947 0 0 Z " fill="#9288EE" transform="translate(155,65)"/>
<path d="M0 0 C0.95519531 0.15597656 1.91039062 0.31195313 2.89453125 0.47265625 C8.31293527 1.24866226 13.77136799 1.34588206 19.23632812 1.51757812 C20.04908203 1.55173828 20.86183594 1.58589844 21.69921875 1.62109375 C22.79496216 1.65867798 22.79496216 1.65867798 23.9128418 1.69702148 C26.26633035 2.03866136 27.93927894 2.83784748 30 4 C29.67 5.98 29.34 7.96 29 10 C27.02 10 25.04 10 23 10 C23 8.02 23 6.04 23 4 C21.35 4 19.7 4 18 4 C18.66 5.98 19.32 7.96 20 10 C19 11 19 11 16.125 11.1875 C13 11 13 11 10 9 C10 7.68 10 6.36 10 5 C9.649375 5.515625 9.29875 6.03125 8.9375 6.5625 C7 8 7 8 3.3125 7.6875 C2.219375 7.460625 1.12625 7.23375 0 7 C0 4.69 0 2.38 0 0 Z " fill="#BBAEEA" transform="translate(134,287)"/>
<path d="M0 0 C13.76504042 -1.20745969 26.06019823 5.29279907 37 13 C37.66 13.66 38.32 14.32 39 15 C31.87942468 14.84176499 26.52620374 11.32702752 21 7 C21 6.34 21 5.68 21 5 C19.38265411 4.7591187 17.76470226 4.52186365 16.14453125 4.30078125 C14.63889421 4.08960811 13.13633935 3.85581863 11.63671875 3.60546875 C10.45529297 3.42951172 10.45529297 3.42951172 9.25 3.25 C8.51265625 3.13140625 7.7753125 3.0128125 7.015625 2.890625 C4.94077939 2.83731023 4.94077939 2.83731023 3.265625 4.109375 C1.49900158 6.74840504 1.59268375 8.84875249 1.5 12 C1.33418388 17.63774819 1.33418388 17.63774819 -0.48828125 19.61328125 C-0.98714844 20.07089844 -1.48601562 20.52851563 -2 21 C-2.57017808 23.04100238 -2.57017808 23.04100238 -2.6875 25.1875 C-2.790625 26.445625 -2.89375 27.70375 -3 29 C-3.33 29 -3.66 29 -4 29 C-4.36511429 19.10134603 -4.55514999 9.11029998 0 0 Z " fill="#9792DF" transform="translate(124,119)"/>
<path d="M0 0 C3.15505579 2.87666851 5.56101723 5.71711817 7.875 9.3125 C12.86206429 17.25456899 12.86206429 17.25456899 20 23 C20 23.66 20 24.32 20 25 C20.8971875 25.0928125 20.8971875 25.0928125 21.8125 25.1875 C25.42558453 26.52950283 26.35516837 29.71033675 28 33 C26.234375 33.67578125 26.234375 33.67578125 24 34 C18.18245961 30.61458259 13.93008808 24.66999632 9.890625 19.421875 C8.2126906 17.2724549 6.4605706 15.26378134 4.625 13.25 C1.0462356 9.11691611 0 5.46830547 0 0 Z " fill="#9488F5" transform="translate(77,280)"/>
<path d="M0 0 C1.87017036 0.00636726 1.87017036 0.00636726 3.77812195 0.01286316 C7.71038595 0.02948442 11.64211301 0.06710557 15.57421875 0.10546875 C18.26105465 0.12225539 20.94790487 0.13442838 23.63476562 0.14648438 C30.17726258 0.17933354 36.71945228 0.22936478 43.26171875 0.29296875 C43.75671875 1.28296875 43.75671875 1.28296875 44.26171875 2.29296875 C42.86726126 2.49044094 41.47103723 2.67545462 40.07421875 2.85546875 C39.29691406 2.95988281 38.51960938 3.06429687 37.71875 3.171875 C35.26171875 3.29296875 35.26171875 3.29296875 32.96875 2.81542969 C16.01160693 -0.45732339 -2.64877561 2.48903471 -19.36181641 5.83544922 C-22.47645677 6.43508308 -25.59383162 6.88093742 -28.73828125 7.29296875 C-28.09867859 5.40119934 -28.09867859 5.40119934 -26.73828125 3.29296875 C-18.28410724 -0.13548484 -8.98075483 -0.11787377 0 0 Z " fill="#8989DE" transform="translate(184.73828125,58.70703125)"/>
<path d="M0 0 C6.00647701 2.25476785 10.82421197 5.1282473 15 10 C14.34 11.32 13.68 12.64 13 14 C11.125 13.6875 11.125 13.6875 9 13 C8.34 12.01 7.68 11.02 7 10 C6.34 9.855625 5.68 9.71125 5 9.5625 C3 9 3 9 1.75 7.125 C1 5 1 5 1 2 C-1.31 2 -3.62 2 -6 2 C-6 3.65 -6 5.3 -6 7 C-4.68 6.67 -3.36 6.34 -2 6 C-1.3503125 7.1446875 -1.3503125 7.1446875 -0.6875 8.3125 C0.73686785 10.58093768 2.03260097 12.2199723 4 14 C3.67 14.66 3.34 15.32 3 16 C-1.48717034 12.13635705 -5.87675353 8.25209792 -10 4 C-9.67 3.01 -9.34 2.02 -9 1 C-5.9728427 -0.51357865 -3.27173922 -0.53330548 0 0 Z " fill="#9588DF" transform="translate(104,260)"/>
<path d="M0 0 C0.495 0.99 0.495 0.99 1 2 C1.66 2.33 2.32 2.66 3 3 C-11.18089433 12.00280843 -22.86652061 18.06639913 -40 17 C-39.34 16.67 -38.68 16.34 -38 16 C-37.67 15.34 -37.34 14.68 -37 14 C-36.071875 14.0825 -35.14375 14.165 -34.1875 14.25 C-22.85993953 14.15974055 -9.24800706 6.16533804 0 0 Z " fill="#8670F0" transform="translate(276,326)"/>
<path d="M0 0 C6.0353373 5.38286841 8.65533604 11.51642268 9.15821838 19.51724243 C9.17376266 20.40310028 9.18930695 21.28895813 9.20532227 22.20166016 C9.22526749 23.21265778 9.24521271 24.2236554 9.26576233 25.26528931 C9.28247482 26.34563446 9.29918732 27.42597961 9.31640625 28.5390625 C9.33718735 29.65687103 9.35796844 30.77467957 9.37937927 31.92636108 C9.44465229 35.49251276 9.50362303 39.05873756 9.5625 42.625 C9.60571191 45.03386152 9.64932705 47.44271584 9.69335938 49.8515625 C10 66.86279853 10 66.86279853 10 71 C9.01 70.34 8.02 69.68 7 69 C6.63491821 66.74549866 6.63491821 66.74549866 6.64697266 63.89868164 C6.64331696 62.83319595 6.63966125 61.76771027 6.63589478 60.66993713 C6.64519012 59.51170944 6.65448547 58.35348175 6.6640625 57.16015625 C6.6515387 54.71028387 6.63850109 52.26041407 6.625 49.81054688 C6.62108524 45.94643864 6.62492345 42.08258894 6.63964844 38.21850586 C6.64827458 34.49033585 6.62642604 30.76323269 6.6015625 27.03515625 C6.61490631 25.89514664 6.62825012 24.75513702 6.64199829 23.58058167 C6.56932333 15.59908557 4.66941605 10.02664419 1 3 C0.67 2.01 0.34 1.02 0 0 Z " fill="#9787DD" transform="translate(227,269)"/>
<path d="M0 0 C11.62826008 7.32149709 21.48837375 16.15721462 31 26 C27.98968256 26.93423645 27.13349732 27.04449911 24 26 C22.703125 24.57421875 22.703125 24.57421875 21.25 22.6875 C15.08713768 15.369101 6.942603 9.29506866 -1 4 C-0.67 2.68 -0.34 1.36 0 0 Z " fill="#9896EF" transform="translate(279,79)"/>
<path d="M0 0 C3.84516615 3.54938414 7.15122083 7.61288008 10 12 C10 12.66 10 13.32 10 14 C11.32 14.66 12.64 15.32 14 16 C12.8125 18.5 12.8125 18.5 11 21 C8.3125 21.3125 8.3125 21.3125 6 21 C5.01 19.02 4.02 17.04 3 15 C3.33 14.67 3.66 14.34 4 14 C1.525 13.01 1.525 13.01 -1 12 C-1.10000385 8.49986539 -0.73880926 5.41699284 0 2 C0 1.34 0 0.68 0 0 Z " fill="#8D7CE4" transform="translate(119,270)"/>
<path d="M0 0 C0.66 0.33 1.32 0.66 2 1 C2.07417023 5.50232334 2.1286105 10.00429091 2.16479492 14.50708008 C2.17987936 16.03871861 2.20034978 17.57031398 2.22631836 19.10180664 C2.26271847 21.30365654 2.27972913 23.50493533 2.29296875 25.70703125 C2.30845261 26.39150833 2.32393646 27.07598541 2.33988953 27.78120422 C2.3408952 30.62362403 2.30816067 32.54578102 0.68701172 34.93530273 C-2.11189434 36.70173245 -4.81607527 36.31714425 -8.0625 36.25 C-9.31160156 36.23453125 -10.56070313 36.2190625 -11.84765625 36.203125 C-15 36 -15 36 -17 35 C-17 34.34 -17 33.68 -17 33 C-13.25 31.875 -13.25 31.875 -11 33 C-7.54199641 33.41673207 -7.54199641 33.41673207 -4 33 C-1.55885596 30.6917529 -1.03161773 29.22787619 -0.56762695 25.88378906 C-0.54144287 24.68979492 -0.51525879 23.49580078 -0.48828125 22.265625 C-0.45283203 20.97011719 -0.41738281 19.67460937 -0.38085938 18.33984375 C-0.35776133 16.97656774 -0.33497886 15.61328636 -0.3125 14.25 C-0.27931352 12.87106138 -0.24482262 11.4921535 -0.20898438 10.11328125 C-0.12647709 6.74226941 -0.05733229 3.37151872 0 0 Z " fill="#9381E8" transform="translate(164,307)"/>
<path d="M0 0 C8.05557406 9.56740448 6.73974004 25.23990065 6 37 C5.54198205 40.73460791 4.93603933 44.35613262 4 48 C3.67 48 3.34 48 3 48 C2.97494385 47.01193359 2.9498877 46.02386719 2.92407227 45.00585938 C2.82925282 41.30815676 2.72922025 37.61060975 2.62768555 33.91308594 C2.58461643 32.31872216 2.54292424 30.72432053 2.50268555 29.12988281 C2.44429695 26.82605625 2.38080789 24.52241541 2.31640625 22.21875 C2.29133751 21.16512268 2.29133751 21.16512268 2.26576233 20.09020996 C2.51718156 11.96732445 2.51718156 11.96732445 0 5 C-0.04063832 3.33382885 -0.042721 1.66611905 0 0 Z " fill="#968ED9" transform="translate(286,171)"/>
<path d="M0 0 C0.94766957 2.55870783 1.16824798 3.62265598 0.03564453 6.1628418 C-1.26225109 9.71843939 -1.25062216 12.97762256 -1.1953125 16.70703125 C-1.1924826 17.43242599 -1.18965271 18.15782074 -1.18673706 18.90519714 C-1.17559799 21.20780368 -1.15050566 23.51001227 -1.125 25.8125 C-1.11496206 27.37955165 -1.10583763 28.94660943 -1.09765625 30.51367188 C-1.0756793 34.34259978 -1.04119339 38.17123256 -1 42 C-0.34 42 0.32 42 1 42 C1 45.3 1 48.6 1 52 C1.66 52 2.32 52 3 52 C5.09230769 56.43076923 5.09230769 56.43076923 4.625 59.3125 C4.41875 59.869375 4.2125 60.42625 4 61 C0.630008 55.69721847 -1.07027841 50.96524847 -2.25 44.8125 C-2.41765869 43.94753906 -2.58531738 43.08257812 -2.75805664 42.19140625 C-5.15063386 28.72388468 -6.30147272 12.60294543 0 0 Z " fill="#968DE4" transform="translate(112,174)"/>
<path d="M0 0 C2.34498998 0.02384569 4.68885263 0.0204958 7.03393555 0.01391602 C15.22553403 0.03040721 23.00357082 0.4209623 31.01635742 2.33618164 C31.01635742 2.66618164 31.01635742 2.99618164 31.01635742 3.33618164 C28.89142601 3.36311739 26.7663983 3.38254792 24.64135742 3.39868164 C23.45799805 3.4102832 22.27463867 3.42188477 21.05541992 3.43383789 C18.01635742 3.33618164 18.01635742 3.33618164 16.01635742 2.33618164 C14.40793624 2.24015109 12.79561023 2.20543584 11.18432617 2.20336914 C9.73896484 2.20143555 9.73896484 2.20143555 8.2644043 2.19946289 C6.74943359 2.20526367 6.74943359 2.20526367 5.20385742 2.21118164 C3.70628906 2.20538086 3.70628906 2.20538086 2.1784668 2.19946289 C0.72730469 2.20139648 0.72730469 2.20139648 -0.75317383 2.20336914 C-2.077323 2.20506104 -2.077323 2.20506104 -3.42822266 2.20678711 C-6.03893808 2.33898155 -8.43134125 2.78832194 -10.98364258 3.33618164 C-14.29532248 3.62803103 -17.60756846 3.84015834 -20.92504883 4.05493164 C-23.42440326 4.28475734 -25.5717802 4.71393143 -27.98364258 5.33618164 C-30.3166519 5.37506513 -32.65074058 5.38104514 -34.98364258 5.33618164 C-25.56723558 -0.94142303 -10.96558316 -0.11897767 0 0 Z " fill="#938EE3" transform="translate(197.983642578125,129.663818359375)"/>
<path d="M0 0 C4.80912327 2.40456164 6.19361954 8.9114437 8.01953125 13.640625 C8.98364157 16.13362962 8.98364157 16.13362962 10.6875 18.75 C12.27648001 21.47396573 12.6384299 23.89049711 13 27 C12.01 27 11.02 27 10 27 C5.37169371 19.20377533 1.01045278 11.59563492 -2 3 C-1.34 3 -0.68 3 0 3 C0 2.01 0 1.02 0 0 Z " fill="#8368F4" transform="translate(65,257)"/>
<path d="M0 0 C0.33 0 0.66 0 1 0 C1.95065522 4.7910005 2.15313491 9.44515994 2.125 14.3125 C2.1264502 15.44026855 2.1264502 15.44026855 2.12792969 16.59082031 C2.10906154 20.55484674 1.89783699 24.32992513 1.25 28.25 C0.62493057 32.07330261 0.62493057 32.07330261 2.9375 35.0625 C3.9584375 36.0215625 3.9584375 36.0215625 5 37 C4.67 37.66 4.34 38.32 4 39 C2.5 37.625 2.5 37.625 1 36 C1 35.34 1 34.68 1 34 C0.01 33.67 -0.98 33.34 -2 33 C-2.22673326 31.64879233 -2.43028793 30.29369222 -2.625 28.9375 C-2.74101562 28.18339844 -2.85703125 27.42929688 -2.9765625 26.65234375 C-3 24 -3 24 -2.0625 20.75 C-0.84508456 16.45323962 -0.55754445 12.50061186 -0.375 8.0625 C-0.33632813 7.28326172 -0.29765625 6.50402344 -0.2578125 5.70117188 C-0.16455873 3.80112621 -0.08124038 1.90059722 0 0 Z " fill="#8D84DD" transform="translate(278,127)"/>
<path d="M0 0 C5.51368655 0.5715943 9.88572211 2.56441432 14.8125 4.9375 C15.58787109 5.29779297 16.36324219 5.65808594 17.16210938 6.02929688 C22.87060295 8.7412059 22.87060295 8.7412059 24 11 C20.03403308 12.10728079 18.03035089 11.95384772 14.35546875 10.12890625 C13.51435547 9.71962891 12.67324219 9.31035156 11.80664062 8.88867188 C10.94232422 8.45103516 10.07800781 8.01339844 9.1875 7.5625 C8.30384766 7.12873047 7.42019531 6.69496094 6.50976562 6.24804688 C4.33344395 5.17753189 2.16424939 4.09466141 0 3 C0 2.01 0 1.02 0 0 Z " fill="#9A7BFA" transform="translate(125,329)"/>
<path d="M0 0 C3.86107457 2.57404971 3.94319692 4.61020259 5 9 C6.98 9 8.96 9 11 9 C11.33 9.99 11.66 10.98 12 12 C12.99 12.33 13.98 12.66 15 13 C14.67 14.65 14.34 16.3 14 18 C15.65 18 17.3 18 19 18 C19.33 18.99 19.66 19.98 20 21 C14.64316473 20.86607912 11.75405618 18.74750196 7.96875 15.24609375 C4.55307223 11.34923915 0 5.37533645 0 0 Z " fill="#8974EB" transform="translate(114,285)"/>
<path d="M0 0 C0.99 0.66 1.98 1.32 3 2 C1.03384594 3.96615406 -0.93271798 5.93185301 -2.90234375 7.89453125 C-4.53746639 9.53574373 -6.14862875 11.20083915 -7.75 12.875 C-9.79000383 14.80167028 -11.42142754 15.94947048 -14 17 C-13.33435831 9.23418025 -5.5334323 4.76451863 0 0 Z " fill="#827BE6" transform="translate(105,91)"/>
<path d="M0 0 C0.66 0.33 1.32 0.66 2 1 C0.6209902 5.51312297 -1.1666129 7.30847288 -5 10 C-5.73347656 10.52207031 -6.46695312 11.04414063 -7.22265625 11.58203125 C-13.58577283 16 -13.58577283 16 -17 16 C-17 15.01 -17 14.02 -17 13 C-14.8046875 11.38671875 -14.8046875 11.38671875 -11.875 9.6875 C-7.20969276 6.8582169 -3.64463639 4.03865114 0 0 Z " fill="#9F8BEE" transform="translate(294,312)"/>
<path d="M0 0 C0.33 0.99 0.66 1.98 1 3 C-1.52252667 6.77160389 -4.58678473 9.50833238 -8.125 12.3125 C-8.99382812 13.00988281 -9.86265625 13.70726562 -10.7578125 14.42578125 C-13 16 -13 16 -15 16 C-13.42254867 10.39128416 -6.51337221 0 0 0 Z " fill="#9483F3" transform="translate(309,300)"/>
<path d="M0 0 C2.31 0 4.62 0 7 0 C7.66 2.31 8.32 4.62 9 7 C10.32 7 11.64 7 13 7 C12.67 8.65 12.34 10.3 12 12 C10.25 11.8125 10.25 11.8125 8 11 C6.66666667 9.33333333 5.33333333 7.66666667 4 6 C1.87053397 5.13034494 1.87053397 5.13034494 0 5 C0 3.35 0 1.7 0 0 Z " fill="#7A66F0" transform="translate(98,262)"/>
<path d="M0 0 C0.33 0.66 0.66 1.32 1 2 C1.66 2 2.32 2 3 2 C1.54150642 5.16969644 -0.23945413 7.80680654 -2.375 10.5625 C-2.96023438 11.32691406 -3.54546875 12.09132813 -4.1484375 12.87890625 C-5.94884605 14.94139958 -7.75272822 16.45066946 -10 18 C-10.8046875 16.3828125 -10.8046875 16.3828125 -11 14 C-9.44466416 11.77048817 -7.93729017 9.87192027 -6.125 7.875 C-2.70773445 4.1875813 -2.70773445 4.1875813 0 0 Z " fill="#B3A1F4" transform="translate(319,284)"/>
<path d="M0 0 C-0.52019519 4.73799402 -1.80539445 7.87422173 -4.375 11.875 C-4.98085938 12.84179688 -5.58671875 13.80859375 -6.2109375 14.8046875 C-6.80132812 15.52914063 -7.39171875 16.25359375 -8 17 C-8.99 17 -9.98 17 -11 17 C-10.39655166 12.91741122 -9.05381582 9.8528697 -7.0625 6.25 C-6.27552734 4.80367188 -6.27552734 4.80367188 -5.47265625 3.328125 C-3.80006875 0.68392832 -3.12605414 0 0 0 Z " fill="#9986F2" transform="translate(331,269)"/>
<path d="M0 0 C1.98 0.66 3.96 1.32 6 2 C6 2.66 6 3.32 6 4 C6.99 4.33 7.98 4.66 9 5 C10.40113616 6.95309888 11.73339467 8.95708818 13 11 C13.99 12.485 13.99 12.485 15 14 C14.01 15.485 14.01 15.485 13 17 C12.38511719 16.25943359 12.38511719 16.25943359 11.7578125 15.50390625 C11.21898437 14.86324219 10.68015625 14.22257812 10.125 13.5625 C9.59132813 12.92441406 9.05765625 12.28632812 8.5078125 11.62890625 C7.0777243 9.89194996 7.0777243 9.89194996 5 9 C3.11858921 6.09949171 1.49905891 3.11343005 0 0 Z " fill="#8E81EC" transform="translate(306,105)"/>
<path d="M0 0 C0.33 0.66 0.66 1.32 1 2 C3.12534659 1.85930804 5.25027529 1.71229079 7.375 1.5625 C8.55835938 1.48128906 9.74171875 1.40007812 10.9609375 1.31640625 C13.91518901 1.18915064 13.91518901 1.18915064 16 0 C17.99960012 -0.039992 20.00047242 -0.04346799 22 0 C22 0.66 22 1.32 22 2 C17.03309964 3.97734422 12.81675663 4.30574808 7.5625 4.25 C6.83740234 4.25773437 6.11230469 4.26546875 5.36523438 4.2734375 C0.55193961 4.25613905 -3.43129241 3.51688315 -8 2 C-8 1.67 -8 1.34 -8 1 C-5.36 0.67 -2.72 0.34 0 0 Z " fill="#9583E7" transform="translate(142,305)"/>
<path d="M0 0 C3.54719411 0.33254945 5.27200522 1.18831131 8.25 3.25 C13.14194205 6.50814673 18.56363329 7.80960278 24.18457031 9.29980469 C29.81342516 10.81342516 29.81342516 10.81342516 32 13 C20.26628923 12.70864375 9.10839396 8.43734494 0 1 C0 0.67 0 0.34 0 0 Z " fill="#9D91E0" transform="translate(132,253)"/>
<path d="M0 0 C0.66 0.33 1.32 0.66 2 1 C1.34 1.66 0.68 2.32 0 3 C-0.34701137 6.05282155 -0.44296774 9.08265966 -0.55859375 12.15234375 C-1.05658217 15.36503012 -1.69932062 15.89005052 -4 18 C-4.57017808 20.04100238 -4.57017808 20.04100238 -4.6875 22.1875 C-4.790625 23.445625 -4.89375 24.70375 -5 26 C-5.33 26 -5.66 26 -6 26 C-6.02712351 23.60408962 -6.0468982 21.20849043 -6.0625 18.8125 C-6.07087891 18.13896484 -6.07925781 17.46542969 -6.08789062 16.77148438 C-6.10596926 13.06536498 -6.06801862 9.56677917 -5 6 C-4.34 5.67 -3.68 5.34 -3 5 C-1.9590934 3.35857037 -0.95495674 1.69287785 0 0 Z " fill="#837EE4" transform="translate(126,122)"/>
<path d="M0 0 C4.54647567 4.14531605 7.699637 8.83168961 11 14 C11.99 15.485 11.99 15.485 13 17 C11.68 17.33 10.36 17.66 9 18 C3.59583422 12.3068414 0 8.18204303 0 0 Z " fill="#A587EE" transform="translate(77,280)"/>
<path d="M0 0 C1.32 0.66 2.64 1.32 4 2 C-0.94954107 5.74108169 -5.93705634 9.41374824 -11 13 C-11.66 12.67 -12.32 12.34 -13 12 C-11.47236536 7.91403748 -8.88915809 6.20173821 -5.375 3.75 C-4.37210938 3.04359375 -3.36921875 2.3371875 -2.3359375 1.609375 C-1.56507812 1.07828125 -0.79421875 0.5471875 0 0 Z " fill="#817BEC" transform="translate(119,80)"/>
<path d="M0 0 C13.59838403 8.8878327 13.59838403 8.8878327 14.8125 12.25 C14.874375 12.8275 14.93625 13.405 15 14 C10.81641523 13.44151174 7.97370431 10.95553698 4.75 8.4375 C3.91855469 7.80038086 3.91855469 7.80038086 3.0703125 7.15039062 C1.70910589 6.10601659 0.35394167 5.05377536 -1 4 C-0.67 2.68 -0.34 1.36 0 0 Z " fill="#8583ED" transform="translate(279,79)"/>
<path d="M0 0 C0 9.57 0 19.14 0 29 C-0.33 29 -0.66 29 -1 29 C-1 20.42 -1 11.84 -1 3 C-8.7634463 3.0790305 -8.7634463 3.0790305 -16.52661133 3.18017578 C-17.4936499 3.1851709 -18.46068848 3.19016602 -19.45703125 3.1953125 C-20.9416687 3.21102295 -20.9416687 3.21102295 -22.45629883 3.22705078 C-25 3 -25 3 -28 1 C-27.35450195 1.00523682 -26.70900391 1.01047363 -26.04394531 1.01586914 C-23.11264015 1.03668657 -20.18135057 1.04967534 -17.25 1.0625 C-16.23421875 1.07087891 -15.2184375 1.07925781 -14.171875 1.08789062 C-13.1921875 1.09111328 -12.2125 1.09433594 -11.203125 1.09765625 C-9.85202637 1.10551147 -9.85202637 1.10551147 -8.47363281 1.11352539 C-5.55239729 0.97945763 -2.90026725 0 0 0 Z " fill="#EBE6FB" transform="translate(164,307)"/>
<path d="M0 0 C3.63 0 7.26 0 11 0 C11.66 1.98 12.32 3.96 13 6 C12 7 12 7 9.125 7.1875 C6 7 6 7 3 5 C3 3.68 3 2.36 3 1 C2.01 1.33 1.02 1.66 0 2 C0 1.34 0 0.68 0 0 Z " fill="#8A78DF" transform="translate(141,291)"/>
<path d="M0 0 C2.97 0 5.94 0 9 0 C10 3 10 3 9.4375 5.375 C8 8 8 8 5 10.4375 C1.74416006 13.21852995 0.9530724 14.90178869 0 19 C-1.53841275 14.6229676 -0.09361162 12.21181583 1.80859375 8.1953125 C3.25782593 5.52492402 4.96547012 3.25251522 7 1 C4.69 1 2.38 1 0 1 C0 0.67 0 0.34 0 0 Z " fill="#8A77E6" transform="translate(166,266)"/>
<path d="M0 0 C1.67255859 0.25716797 1.67255859 0.25716797 3.37890625 0.51953125 C6.0753357 1.10840665 8.06704782 1.81391279 10.4375 3.1875 C9.7775 3.1875 9.1175 3.1875 8.4375 3.1875 C8.7675 4.1775 9.0975 5.1675 9.4375 6.1875 C6.49816911 5.57027048 3.56124621 4.94409529 0.625 4.3125 C-0.20837891 4.13847656 -1.04175781 3.96445313 -1.90039062 3.78515625 C-2.70283203 3.61113281 -3.50527344 3.43710938 -4.33203125 3.2578125 C-5.07042236 3.10070801 -5.80881348 2.94360352 -6.56958008 2.78173828 C-8.5625 2.1875 -8.5625 2.1875 -11.5625 0.1875 C-7.44186471 -0.89849921 -4.19080124 -0.6749958 0 0 Z " fill="#8382E6" transform="translate(235.5625,60.8125)"/>
<path d="M0 0 C0.99 0.33 1.98 0.66 3 1 C3.96107533 8.56846822 3.96107533 8.56846822 1.32421875 12.49609375 C-0.70946843 14.76029026 -2.79635077 16.90168773 -5 19 C-6.00110926 19.99888951 -7.00157604 20.99842644 -8 22 C-7.0466937 17.42412975 -5.87027137 14.61693146 -2.875 11 C-0.66170116 8.2494927 0.40376113 6.56638056 0.375 3 C0.25125 2.01 0.1275 1.02 0 0 Z " fill="#928BE0" transform="translate(121,152)"/>
<path d="M0 0 C0.99 0.66 1.98 1.32 3 2 C0.03 2 -2.94 2 -6 2 C-6 3.65 -6 5.3 -6 7 C-4.68 6.67 -3.36 6.34 -2 6 C-1.3503125 7.1446875 -1.3503125 7.1446875 -0.6875 8.3125 C0.73686785 10.58093768 2.03260097 12.2199723 4 14 C3.67 14.66 3.34 15.32 3 16 C-1.48717034 12.13635705 -5.87675353 8.25209792 -10 4 C-9.67 3.01 -9.34 2.02 -9 1 C-5.98131566 -0.50934217 -3.32702771 -0.17510672 0 0 Z " fill="#9687E5" transform="translate(104,260)"/>
<path d="M0 0 C0.66 0.33 1.32 0.66 2 1 C-0.89415219 5.00728765 -3.55267553 7.77633776 -8 10 C-11.36294901 10.31716435 -14.63394579 10.23948212 -18 10 C-18.33 9.01 -18.66 8.02 -19 7 C-17.3603125 7.2165625 -17.3603125 7.2165625 -15.6875 7.4375 C-10.21522835 7.51581516 -6.62761245 4.51109358 -2.3203125 1.43359375 C-1.55460937 0.96050781 -0.78890625 0.48742187 0 0 Z " fill="#8782E0" transform="translate(248,126)"/>
<path d="M0 0 C0.99 0.33 1.98 0.66 3 1 C3.58383484 3.43414217 4.14240522 5.86966785 4.6875 8.3125 C4.85572266 9.00279297 5.02394531 9.69308594 5.19726562 10.40429688 C5.63671875 12.42578125 5.63671875 12.42578125 6 16 C4.58203125 17.98046875 4.58203125 17.98046875 3 19 C-0.44419134 6.51480638 -0.44419134 6.51480638 0 0 Z " fill="#9D91F6" transform="translate(55,226)"/>
<path d="M0 0 C3.8996361 4.91693248 4.13970469 8.83824705 4.09765625 14.94921875 C4.0962413 15.72183548 4.09482635 16.49445221 4.09336853 17.29048157 C4.08777466 19.75619389 4.07522333 22.22181515 4.0625 24.6875 C4.05748421 26.36002473 4.05292144 28.03255088 4.04882812 29.70507812 C4.03780724 33.80342046 4.02054684 37.90169479 4 42 C3.67 42 3.34 42 3 42 C2.97494385 41.19369141 2.9498877 40.38738281 2.92407227 39.55664062 C2.8073732 35.87096125 2.68498409 32.18549148 2.5625 28.5 C2.52318359 27.2315625 2.48386719 25.963125 2.44335938 24.65625 C2.95023234 14.26817926 2.95023234 14.26817926 0 5 C-0.04063832 3.33382885 -0.042721 1.66611905 0 0 Z " fill="#867AE5" transform="translate(286,171)"/>
<path d="M0 0 C4.97306516 0.49730652 8.63799813 1.55302334 13 4 C13 4.66 13 5.32 13 6 C13.99 6 14.98 6 16 6 C15.67 6.99 15.34 7.98 15 9 C12.68146067 8.07557593 10.37097251 7.13646392 8.0625 6.1875 C7.40314453 5.92646484 6.74378906 5.66542969 6.06445312 5.39648438 C4.33971816 4.680056 2.6650588 3.8459075 1 3 C0.67 2.01 0.34 1.02 0 0 Z " fill="#8584EE" transform="translate(244,64)"/>
<path d="M0 0 C0.99 0.33 1.98 0.66 3 1 C2.67 2.98 2.34 4.96 2 7 C0.02 7 -1.96 7 -4 7 C-4 5.02 -4 3.04 -4 1 C-4.66 0.67 -5.32 0.34 -6 0 C-3.46924326 -1.26537837 -2.64724917 -0.80219672 0 0 Z " fill="#9584DD" transform="translate(161,290)"/>
<path d="M0 0 C2 1 2 1 3.10546875 3.80078125 C3.46253906 4.95964844 3.81960938 6.11851562 4.1875 7.3125 C4.55230469 8.46363281 4.91710937 9.61476562 5.29296875 10.80078125 C5.95478247 13.79539693 6.08640853 15.19748119 5 18 C4.34 15.69 3.68 13.38 3 11 C2.34 11 1.68 11 1 11 C0.01 7.7 -0.98 4.4 -2 1 C-1.34 0.67 -0.68 0.34 0 0 Z " fill="#988FF4" transform="translate(338,156)"/>
<path d="M0 0 C0.66 0.33 1.32 0.66 2 1 C1 4 1 4 -1 5 C-3.55157655 5.0716735 -6.07472971 5.09308442 -8.625 5.0625 C-9.33140625 5.05798828 -10.0378125 5.05347656 -10.765625 5.04882812 C-12.51045275 5.03703875 -14.255237 5.01910324 -16 5 C-15.34 4.67 -14.68 4.34 -14 4 C-13.67 3.34 -13.34 2.68 -13 2 C-11.96875 2.04125 -10.9375 2.0825 -9.875 2.125 C-6.12141188 2.00391651 -3.50641733 1.22316884 0 0 Z " fill="#9380F1" transform="translate(252,338)"/>
<path d="M0 0 C1 3.875 1 3.875 1 5 C-1.29160319 5.02692484 -3.58329546 5.04636124 -5.875 5.0625 C-7.15117187 5.07410156 -8.42734375 5.08570313 -9.7421875 5.09765625 C-13 5 -13 5 -15 4 C-15 3.34 -15 2.68 -15 2 C-11.25 0.875 -11.25 0.875 -9 2 C-5.5 2.25 -5.5 2.25 -2 2 C-1.34 1.34 -0.68 0.68 0 0 Z " fill="#A68FF1" transform="translate(162,338)"/>
<path d="M0 0 C0.33 0.99 0.66 1.98 1 3 C0.34 3.66 -0.32 4.32 -1 5 C-1.72266761 6.72762726 -2.38178841 8.48230125 -3 10.25 C-3.34546875 11.23097656 -3.6909375 12.21195313 -4.046875 13.22265625 C-5.04901903 16.14283825 -6.04752061 19.06318853 -7 22 C-7.33 22 -7.66 22 -8 22 C-7.47553382 13.73965772 -5.55782639 6.39150035 0 0 Z " fill="#776CE6" transform="translate(118,167)"/>
<path d="M0 0 C0.66 0 1.32 0 2 0 C1.53199289 4.05606165 1.12046792 7.46588679 -1 11 C-1.99 11 -2.98 11 -4 11 C-4.33 11.99 -4.66 12.98 -5 14 C-6 11 -6 11 -4.78515625 8.30078125 C-4.21667969 7.31464844 -3.64820312 6.32851562 -3.0625 5.3125 C-2.49660156 4.31863281 -1.93070312 3.32476562 -1.34765625 2.30078125 C-0.90292969 1.54152344 -0.45820312 0.78226562 0 0 Z " fill="#857EF0" transform="translate(74,126)"/>
<path d="M0 0 C0 1.32 0 2.64 0 4 C-0.639375 4.103125 -1.27875 4.20625 -1.9375 4.3125 C-2.618125 4.539375 -3.29875 4.76625 -4 5 C-4.33 5.99 -4.66 6.98 -5 8 C-7.5625 9.1875 -7.5625 9.1875 -10 10 C-10 8.33333333 -10 6.66666667 -10 5 C-8.3203125 3.7109375 -8.3203125 3.7109375 -6.125 2.375 C-5.40570313 1.92898437 -4.68640625 1.48296875 -3.9453125 1.0234375 C-2 0 -2 0 0 0 Z " fill="#8580F0" transform="translate(131,74)"/>
<path d="M0 0 C1.32 0 2.64 0 4 0 C3.54738642 1.43931117 3.08767021 2.87638999 2.625 4.3125 C2.36976563 5.11300781 2.11453125 5.91351563 1.8515625 6.73828125 C1 9 1 9 -1 12 C-1 11.01 -1 10.02 -1 9 C-1.99 9.33 -2.98 9.66 -4 10 C-2.8905928 6.51329166 -1.73662334 3.22515763 0 0 Z " fill="#A590F5" transform="translate(332,260)"/>
<path d="M0 0 C0.66 0.66 1.32 1.32 2 2 C1.63723355 4.82957829 0.90305236 7.29084291 0 10 C-0.99 10.33 -1.98 10.66 -3 11 C-4.20882096 13.00016466 -4.20882096 13.00016466 -5 15 C-5.66 13.35 -6.32 11.7 -7 10 C-5.02 9.34 -3.04 8.68 -1 8 C-1 7.01 -1 6.02 -1 5 C-2.65 4.67 -4.3 4.34 -6 4 C-5.67 3.34 -5.34 2.68 -5 2 C-3.68 2.33 -2.36 2.66 -1 3 C-0.67 2.01 -0.34 1.02 0 0 Z " fill="#8270E4" transform="translate(118,270)"/>
<path d="M0 0 C4.3590077 3.48720616 4.94552183 6.72760915 6 12 C5.01 12.33 4.02 12.66 3 13 C0.33409063 8.44573816 -0.31563182 5.26053037 0 0 Z " fill="#8074EC" transform="translate(334,145)"/>
<path d="M0 0 C-0.66 1.65 -1.32 3.3 -2 5 C-3.875 4.8125 -3.875 4.8125 -6 4 C-7.25 1.4375 -7.25 1.4375 -8 -1 C-4.59745511 -2.2151946 -3.06748874 -1.86240388 0 0 Z " fill="#AE9FE6" transform="translate(119,269)"/>
<path d="M0 0 C4.14298667 0.59834725 7.18194377 2.00664285 10.8125 4.0625 C11.78832031 4.61035156 12.76414063 5.15820312 13.76953125 5.72265625 C14.50558594 6.14417969 15.24164063 6.56570312 16 7 C16 7.33 16 7.66 16 8 C9.42367107 7.72015622 5.10707841 5.07639819 0 1 C0 0.67 0 0.34 0 0 Z " fill="#807BD9" transform="translate(147,126)"/>
<path d="M0 0 C0.33 0.99 0.66 1.98 1 3 C0.38125 3.0825 -0.2375 3.165 -0.875 3.25 C-3.14390805 3.78597843 -3.14390805 3.78597843 -4 5.8125 C-4.33 6.534375 -4.66 7.25625 -5 8 C-7 10.25 -7 10.25 -9 12 C-9.66 12 -10.32 12 -11 12 C-9.49650623 8.33213607 -7.36271208 6.31089607 -4.375 3.75 C-3.14910156 2.69039063 -3.14910156 2.69039063 -1.8984375 1.609375 C-1.27195312 1.07828125 -0.64546875 0.5471875 0 0 Z M-13 12 C-12.34 12.33 -11.68 12.66 -11 13 C-11.99 13 -12.98 13 -14 13 C-13.67 12.67 -13.34 12.34 -13 12 Z " fill="#E8E7F8" transform="translate(110,91)"/>
<path d="M0 0 C0 0.99 0 1.98 0 3 C-3.87684087 4.19287411 -6.91621923 5 -11 5 C-10.1875 3.0625 -10.1875 3.0625 -9 1 C-5.8035914 -0.06546953 -3.34252724 -0.07427838 0 0 Z " fill="#918FE9" transform="translate(167,61)"/>
<path d="M0 0 C2.66735273 2.48952921 4.55746343 4.63408134 6 8 C5.34 8 4.68 8 4 8 C4 8.99 4 9.98 4 11 C2.68 11 1.36 11 0 11 C0 7.37 0 3.74 0 0 Z " fill="#B2A8E8" transform="translate(119,270)"/>
<path d="M0 0 C0.33 0.66 0.66 1.32 1 2 C-0.11962199 3.64949657 -1.24586845 5.29449838 -2.375 6.9375 C-3.00148438 7.85402344 -3.62796875 8.77054688 -4.2734375 9.71484375 C-6 12 -6 12 -8 13 C-7.10690904 8.35592699 -5.44252014 4.23644583 -1.8125 1.125 C-1.214375 0.75375 -0.61625 0.3825 0 0 Z " fill="#897CE3" transform="translate(283,234)"/>
<path d="M0 0 C0.33 0.99 0.66 1.98 1 3 C-0.80078125 5.69921875 -0.80078125 5.69921875 -3.3125 8.6875 C-4.54419922 10.17830078 -4.54419922 10.17830078 -5.80078125 11.69921875 C-6.52652344 12.45847656 -7.25226563 13.21773437 -8 14 C-8.66 14 -9.32 14 -10 14 C-8.43632643 10.47761953 -6.30504111 7.72876006 -3.875 4.75 C-3.15054688 3.85796875 -2.42609375 2.9659375 -1.6796875 2.046875 C-0.84824219 1.03367187 -0.84824219 1.03367187 0 0 Z " fill="#E2E3F7" transform="translate(92,108)"/>
<path d="M0 0 C3.0831351 1.19899698 6.06279492 2.47700477 9 4 C8.67 4.99 8.34 5.98 8 7 C3.68607774 6.5206753 1.83430453 5.2542015 -1 2 C-0.67 1.34 -0.34 0.68 0 0 Z " fill="#9193E6" transform="translate(269,74)"/>
<path d="M0 0 C2 1 2 1 3.1875 3.6875 C4.05786358 7.23590538 3.83820823 9.47952545 3 13 C0.82145293 9.7321794 -0.49760034 6.61941735 -2 3 C-1.34 3 -0.68 3 0 3 C0 2.01 0 1.02 0 0 Z " fill="#7D63F0" transform="translate(65,257)"/>
<path d="M0 0 C2.0625 2.375 2.0625 2.375 3 5 C2.67 5.66 2.34 6.32 2 7 C1.67 5.68 1.34 4.36 1 3 C-4.28 3 -9.56 3 -15 3 C-10.09314401 -0.27123733 -5.80899326 -0.55323745 0 0 Z " fill="#9C99DE" transform="translate(275,119)"/>
<path d="M0 0 C4.24822374 0.47202486 6.19989709 2.96655518 9 6 C7.375 6.8125 7.375 6.8125 5 7 C2.75390165 5.53181864 0.97621323 3.84147142 -1 2 C-0.67 1.34 -0.34 0.68 0 0 Z " fill="#7E71EF" transform="translate(103,313)"/>
<path d="M0 0 C1.32 0 2.64 0 4 0 C2.87548273 2.9719385 1.77706209 5.33440687 0 8 C-0.99 8 -1.98 8 -3 8 C-2.45276317 4.62537285 -1.9451 2.91765 0 0 Z " fill="#8068EF" transform="translate(323,278)"/>
<path d="M0 0 C-1.1094072 3.48670834 -2.26337666 6.77484237 -4 10 C-4.66 10 -5.32 10 -6 10 C-6.6875 8.3125 -6.6875 8.3125 -7 6 C-4.06976744 0 -4.06976744 0 0 0 Z " fill="#938DEA" transform="translate(72,137)"/>
<path d="M0 0 C0.33 0.66 0.66 1.32 1 2 C1.66 2 2.32 2 3 2 C1.79618552 4.49361571 0.54571278 6.68143083 -1 9 C-1.99 9 -2.98 9 -4 9 C-3.35455571 5.51460083 -1.89865603 2.97180943 0 0 Z " fill="#A789F3" transform="translate(319,284)"/>
<path d="M0 0 C4.99213851 0.46801299 9.12963993 2.91715737 13 6 C13 6.66 13 7.32 13 8 C7.73691968 6.58795406 4.2437012 4.31008693 0 1 C0 0.67 0 0.34 0 0 Z " fill="#9588E2" transform="translate(132,253)"/>
<path d="M0 0 C1.98 0.66 3.96 1.32 6 2 C6 2.66 6 3.32 6 4 C6.99 4.33 7.98 4.66 9 5 C9 5.66 9 6.32 9 7 C4.71193127 6.52354792 2.73352513 5.34097516 0 2 C0 1.34 0 0.68 0 0 Z " fill="#7E7BED" transform="translate(306,105)"/>
<path d="M0 0 C-3.67259383 2.44839588 -6.54648201 4 -11 4 C-10.67 2.68 -10.34 1.36 -10 0 C-6.30458414 -0.95024979 -3.69541586 -0.95024979 0 0 Z " fill="#7D71F4" transform="translate(264,337)"/>
<path d="M0 0 C0.99 0 1.98 0 3 0 C3.91058531 3.07322544 4.08886184 5.80097361 4 9 C3.01 9.33 2.02 9.66 1 10 C1.33 8.02 1.66 6.04 2 4 C0.68 3.67 -0.64 3.34 -2 3 C-1.34 2.67 -0.68 2.34 0 2 C0 1.34 0 0.68 0 0 Z " fill="#8371E5" transform="translate(162,287)"/>
<path d="M0 0 C3.34373475 0.55728913 6.03312999 1.35173889 9 3 C8.34 3.66 7.68 4.32 7 5 C1.54545455 4.54545455 1.54545455 4.54545455 -1 2 C-0.67 1.34 -0.34 0.68 0 0 Z " fill="#866BEF" transform="translate(140,336)"/>
<path d="M0 0 C4.19936589 3.74538039 6.2766211 6.73412001 8 12 C7.5703125 14.21484375 7.5703125 14.21484375 7 16 C4.3209378 10.75892201 1.86478357 5.59435072 0 0 Z " fill="#9A8BE3" transform="translate(227,269)"/>
<path d="M0 0 C2.52588702 2.36292656 3.88820837 3.66462511 5 7 C4.34 7 3.68 7 3 7 C2.67 7.66 2.34 8.32 2 9 C0.35 7.02 -1.3 5.04 -3 3 C-2.67 2.34 -2.34 1.68 -2 1 C-1.67 1.33 -1.34 1.66 -1 2 C-0.67 1.34 -0.34 0.68 0 0 Z " fill="#A7A5ED" transform="translate(320,119)"/>
<path d="M0 0 C2 1 2 1 2.8515625 3.28515625 C3.10679688 4.20167969 3.36203125 5.11820312 3.625 6.0625 C3.88539062 6.98160156 4.14578125 7.90070313 4.4140625 8.84765625 C4.60742188 9.55792969 4.80078125 10.26820313 5 11 C3.68 11 2.36 11 1 11 C0.12132271 7.26562152 -0.08912219 3.83225427 0 0 Z " fill="#AA95ED" transform="translate(68,262)"/>
<path d="M0 0 C-4.82646677 3.21764451 -10.19821824 4.36261136 -16 4 C-15.67 3.34 -15.34 2.68 -15 2 C-9.81100071 0.38962091 -5.41000193 -0.22541675 0 0 Z " fill="#9282E0" transform="translate(250,262)"/>
<path d="M0 0 C3.63 0 7.26 0 11 0 C11.33 0.66 11.66 1.32 12 2 C10.56359829 2.19573608 9.12580496 2.38127816 7.6875 2.5625 C6.88699219 2.66691406 6.08648437 2.77132812 5.26171875 2.87890625 C3 3 3 3 0 2 C0 1.34 0 0.68 0 0 Z " fill="#9A96F2" transform="translate(217,59)"/>
<path d="M0 0 C-0.33 0.99 -0.66 1.98 -1 3 C-4.40562852 3.77842938 -7.50765756 4.09978121 -11 4 C-10 2 -10 2 -7.75 0.875 C-4.98386705 -0.00513321 -2.87951649 -0.1645438 0 0 Z " fill="#A781F0" transform="translate(268,333)"/>
<path d="M0 0 C1.8125 0.1875 1.8125 0.1875 4 1 C5.56840126 3.26546849 6.77072645 5.5414529 8 8 C6.68 8.33 5.36 8.66 4 9 C3.01 7.68 2.02 6.36 1 5 C1.66 5 2.32 5 3 5 C3 4.01 3 3.02 3 2 C2.01 1.67 1.02 1.34 0 1 C0 0.67 0 0.34 0 0 Z " fill="#B8ABF1" transform="translate(97,305)"/>
<path d="M0 0 C0.99 0 1.98 0 3 0 C5.21538462 5.41538462 5.21538462 5.41538462 4.125 8.375 C3.75375 8.91125 3.3825 9.4475 3 10 C0.96564469 6.27034861 0 4.33094958 0 0 Z " fill="#8D88E9" transform="translate(330,139)"/>
<path d="M0 0 C-4.26311718 4.12989477 -7.28758534 4.61271765 -13 5 C-11.5977422 2.1954844 -9.93929378 1.9557882 -7.0625 0.8125 C-6.16660156 0.44769531 -5.27070313 0.08289063 -4.34765625 -0.29296875 C-2 -1 -2 -1 0 0 Z " fill="#E2E5F9" transform="translate(148,71)"/>
<path d="M0 0 C-0.33 0.99 -0.66 1.98 -1 3 C-3.875 3.625 -3.875 3.625 -7 4 C-7.66 3.34 -8.32 2.68 -9 2 C-3.375 -1.125 -3.375 -1.125 0 0 Z " fill="#7974ED" transform="translate(155,65)"/>
<path d="M0 0 C0 0.66 0 1.32 0 2 C-2.97 2.66 -5.94 3.32 -9 4 C-8.67 2.68 -8.34 1.36 -8 0 C-4.71023192 -1.09658936 -3.28696233 -0.79953138 0 0 Z " fill="#8370E6" transform="translate(176,60)"/>
<path d="M0 0 C4.35535069 1.16142685 6.64619703 2.07699505 9 6 C7.68 6.33 6.36 6.66 5 7 C3.35 4.69 1.7 2.38 0 0 Z " fill="#B195F4" transform="translate(81,291)"/>
<path d="M0 0 C0.66 0 1.32 0 2 0 C2.93423645 3.01031744 3.04449911 3.86650268 2 7 C4.97 7.495 4.97 7.495 8 8 C8 8.33 8 8.66 8 9 C2.25 9.125 2.25 9.125 0 8 C0.33 6.35 0.66 4.7 1 3 C0.34 3 -0.32 3 -1 3 C-0.67 2.01 -0.34 1.02 0 0 Z " fill="#8A74EB" transform="translate(132,287)"/>
<path d="M0 0 C1.95979427 0.28168297 3.91782378 0.57566717 5.875 0.875 C7.51082031 1.11863281 7.51082031 1.11863281 9.1796875 1.3671875 C12 2 12 2 14 4 C13.625 6.125 13.625 6.125 13 8 C12.78601563 7.35546875 12.57203125 6.7109375 12.3515625 6.046875 C11.1526477 3.72160885 11.1526477 3.72160885 8.3984375 3.390625 C6.90183594 3.32101563 6.90183594 3.32101563 5.375 3.25 C3.87066406 3.16492188 3.87066406 3.16492188 2.3359375 3.078125 C1.56507813 3.05234375 0.79421875 3.0265625 0 3 C0 2.01 0 1.02 0 0 Z " fill="#F2F3F4" transform="translate(264,116)"/>
<path d="M0 0 C0 0.66 0 1.32 0 2 C-3.21451269 3.60725635 -6.43612536 3.05748185 -10 3 C-9 1 -9 1 -6.6875 -0.1875 C-3.88010429 -1.03624754 -2.698065 -0.99928333 0 0 Z " fill="#9D9CF1" transform="translate(148,68)"/>
<path d="M0 0 C0.99 0.33 1.98 0.66 3 1 C3.33 3.64 3.66 6.28 4 9 C3.01 9.66 2.02 10.32 1 11 C-0.17571451 7.32589215 -0.07366746 3.83070817 0 0 Z " fill="#ABA4EF" transform="translate(55,226)"/>
<path d="M0 0 C1.04187157 3.12561472 1.23843794 4.04680182 0 7 C-2.0625 8.25 -2.0625 8.25 -4 9 C-3.46930939 5.17902761 -2.50298434 2.93828597 0 0 Z " fill="#7070EE" transform="translate(95,99)"/>
<path d="M0 0 C0.66 0 1.32 0 2 0 C1.6875 2.375 1.6875 2.375 1 5 C0.01 5.66 -0.98 6.32 -2 7 C-2.66 6.67 -3.32 6.34 -4 6 C-2.84826645 3.53199953 -1.95216435 1.95216435 0 0 Z " fill="#9792F3" transform="translate(110,86)"/>
<path d="M0 0 C5.5952381 0.5952381 5.5952381 0.5952381 8 3 C5.1875 3.6875 5.1875 3.6875 2 4 C0.125 2.5625 0.125 2.5625 -1 1 C-0.67 0.67 -0.34 0.34 0 0 Z " fill="#806DF4" transform="translate(125,329)"/>
<path d="M0 0 C2.31 1.98 4.62 3.96 7 6 C3 7 3 7 0 6 C0 4.02 0 2.04 0 0 Z " fill="#B7B7F6" transform="translate(303,99)"/>
<path d="M0 0 C1.65 0.33 3.3 0.66 5 1 C5 1.99 5 2.98 5 4 C3.02 4 1.04 4 -1 4 C-0.67 2.68 -0.34 1.36 0 0 Z " fill="#DCD4F5" transform="translate(147,293)"/>
<path d="M0 0 C1.32 0.33 2.64 0.66 4 1 C4.33 2.32 4.66 3.64 5 5 C3.35 4.67 1.7 4.34 0 4 C0 2.68 0 1.36 0 0 Z " fill="#DDD6F6" transform="translate(125,285)"/>
<path d="M0 0 C0.33 1.32 0.66 2.64 1 4 C0.34 4 -0.32 4 -1 4 C-1.33 5.65 -1.66 7.3 -2 9 C-2.99 9.33 -3.98 9.66 -5 10 C-3.66511872 6.40608886 -2.03977277 3.24509304 0 0 Z " fill="#E2E2F6" transform="translate(79,125)"/>
<path d="M0 0 C1.32 0.66 2.64 1.32 4 2 C3.67 3.65 3.34 5.3 3 7 C1.35 5.35 -0.3 3.7 -2 2 C-1.34 1.34 -0.68 0.68 0 0 Z " fill="#BDA9F3" transform="translate(111,317)"/>
<path d="M0 0 C0.66 0.33 1.32 0.66 2 1 C0.73058503 4.91402949 -0.51167694 6.79072873 -4 9 C-3.35455571 5.51460083 -1.89865603 2.97180943 0 0 Z " fill="#BC9DF7" transform="translate(294,312)"/>
<path d="M0 0 C0.33 0.99 0.66 1.98 1 3 C0.34 3 -0.32 3 -1 3 C-1.33 4.32 -1.66 5.64 -2 7 C-3.32 6.67 -4.64 6.34 -6 6 C-4 4 -2 2 0 0 Z " fill="#9F8BE4" transform="translate(307,300)"/>
<path d="M0 0 C1.65 0 3.3 0 5 0 C2.45394698 2.00047023 0.0335364 3.82572785 -3 5 C-3.99 4.67 -4.98 4.34 -6 4 C-5.67 3.34 -5.34 2.68 -5 2 C-3.35 2 -1.7 2 0 2 C0 1.34 0 0.68 0 0 Z " fill="#8675E1" transform="translate(256,257)"/>
<path d="M0 0 C1.9375 0.75 1.9375 0.75 4 2 C4.75 4.125 4.75 4.125 5 6 C3.125 5.75 3.125 5.75 1 5 C-0.25 2.9375 -0.25 2.9375 -1 1 C-0.67 0.67 -0.34 0.34 0 0 Z " fill="#7A76E8" transform="translate(289,87)"/>
<path d="M0 0 C0.99 0.33 1.98 0.66 3 1 C3 1.66 3 2.32 3 3 C3.99 3 4.98 3 6 3 C5.67 3.99 5.34 4.98 5 6 C2.69 5.01 0.38 4.02 -2 3 C-1.34 2.01 -0.68 1.02 0 0 Z " fill="#9B99E7" transform="translate(254,67)"/>
<path d="M0 0 C0.66 0.99 1.32 1.98 2 3 C0.3125 5.5 0.3125 5.5 -2 8 C-4.75 8.3125 -4.75 8.3125 -7 8 C-5.68 7.67 -4.36 7.34 -3 7 C-2.67 5.68 -2.34 4.36 -2 3 C-1.34 3 -0.68 3 0 3 C0 2.01 0 1.02 0 0 Z " fill="#7256F9" transform="translate(308,300)"/>
<path d="M0 0 C3.875 1.75 3.875 1.75 5 4 C4.34 4 3.68 4 3 4 C2.67 4.66 2.34 5.32 2 6 C1.01 5.01 0.02 4.02 -1 3 C-0.67 2.01 -0.34 1.02 0 0 Z " fill="#8D7FF3" transform="translate(88,297)"/>
<path d="M0 0 C1.65 0 3.3 0 5 0 C4.67 1.32 4.34 2.64 4 4 C2.68 4 1.36 4 0 4 C0 2.68 0 1.36 0 0 Z " fill="#E3DCF4" transform="translate(158,292)"/>
<path d="M0 0 C0.98120464 3.05263664 0.98120464 4.94736336 0 8 C-0.99 7.67 -1.98 7.34 -3 7 C-1.125 1.125 -1.125 1.125 0 0 Z " fill="#736EEC" transform="translate(62,154)"/>
<path d="M0 0 C0.99 0.33 1.98 0.66 3 1 C1.92598892 3.91517292 1.22189824 5.77810176 -1 8 C-1.625 5.6875 -1.625 5.6875 -2 3 C-1.34 2.01 -0.68 1.02 0 0 Z " fill="#9492E1" transform="translate(77,122)"/>
<path d="M0 0 C2.16874252 0.50603992 3.99967627 0.99983813 6 2 C6 2.66 6 3.32 6 4 C5.01 4.33 4.02 4.66 3 5 C2.01 4.34 1.02 3.68 0 3 C0 2.01 0 1.02 0 0 Z " fill="#A79BEC" transform="translate(91,301)"/>
<path d="M0 0 C2.31 0.33 4.62 0.66 7 1 C7.33 1.99 7.66 2.98 8 4 C5.125 3.6875 5.125 3.6875 2 3 C1.34 2.01 0.68 1.02 0 0 Z " fill="#9D8EE3" transform="translate(126,302)"/>
<path d="M0 0 C1.65 0 3.3 0 5 0 C4.42655063 2.86724686 4.1385485 3.8614515 2 6 C1.34 4.02 0.68 2.04 0 0 Z " fill="#7E67E9" transform="translate(152,291)"/>
<path d="M0 0 C0.66 1.32 1.32 2.64 2 4 C1.01 4.495 1.01 4.495 0 5 C-0.72693904 6.97888961 -1.39816251 8.97954558 -2 11 C-2.95465783 8.83032311 -3.14401212 7.43671207 -2.3984375 5.17578125 C-1.64129615 3.4315257 -0.82390802 1.71372869 0 0 Z " fill="#A799E5" transform="translate(168,274)"/>
<path d="M0 0 C3.63 0.33 7.26 0.66 11 1 C10.34 2.32 9.68 3.64 9 5 C8.67 4.01 8.34 3.02 8 2 C5.36 1.67 2.72 1.34 0 1 C0 0.67 0 0.34 0 0 Z " fill="#DDD6F5" transform="translate(162,266)"/>
<path d="M0 0 C1.37562854 1.28965176 2.70766393 2.62689293 4 4 C4 4.66 4 5.32 4 6 C2.68 6.33 1.36 6.66 0 7 C0 4.69 0 2.38 0 0 Z " fill="#695CEF" transform="translate(334,145)"/>
<path d="M0 0 C0.33 0 0.66 0 1 0 C1 1.98 1 3.96 1 6 C-0.32 6.33 -1.64 6.66 -3 7 C-2.38722388 4.03824877 -1.74627478 2.61941217 0 0 Z " fill="#8C70F2" transform="translate(81,116)"/>
<path d="M0 0 C0.12375 0.61875 0.2475 1.2375 0.375 1.875 C0.87197356 4.19120832 0.87197356 4.19120832 3 6 C-0.37462715 5.45276317 -2.08235 4.9451 -5 3 C-4.67 2.34 -4.34 1.68 -4 1 C-1.9375 0.375 -1.9375 0.375 0 0 Z " fill="#CACDF2" transform="translate(278,79)"/>
<path d="M0 0 C1.65 0.33 3.3 0.66 5 1 C4.01 1.495 4.01 1.495 3 2 C3.33 2.99 3.66 3.98 4 5 C1.03 4.505 1.03 4.505 -2 4 C-2 3.34 -2 2.68 -2 2 C-1.34 2 -0.68 2 0 2 C0 1.34 0 0.68 0 0 Z " fill="#7573E5" transform="translate(241,62)"/>
<path d="M0 0 C3.465 1.485 3.465 1.485 7 3 C6.67 3.99 6.34 4.98 6 6 C4.68 5.67 3.36 5.34 2 5 C2 4.34 2 3.68 2 3 C1.34 2.67 0.68 2.34 0 2 C0 1.34 0 0.68 0 0 Z " fill="#A59AF2" transform="translate(134,332)"/>
<path d="M0 0 C1.98 0.495 1.98 0.495 4 1 C4 1.99 4 2.98 4 4 C2.35 3.67 0.7 3.34 -1 3 C-0.67 2.01 -0.34 1.02 0 0 Z " fill="#E3DCF6" transform="translate(136,291)"/>
<path d="M0 0 C2.375 -0.1875 2.375 -0.1875 5 0 C5.66 0.99 6.32 1.98 7 3 C6.01 3.99 5.02 4.98 4 6 C3.71125 5.38125 3.4225 4.7625 3.125 4.125 C2.06279958 1.86674235 2.06279958 1.86674235 0 0 Z " fill="#998BD6" transform="translate(126,284)"/>
<path d="M0 0 C0.66 0.33 1.32 0.66 2 1 C2.625 3.5625 2.625 3.5625 3 6 C1.35 5.67 -0.3 5.34 -2 5 C-1.125 1.125 -1.125 1.125 0 0 Z " fill="#F1F1F3" transform="translate(135,115)"/>
<path d="M0 0 C0.33 0.66 0.66 1.32 1 2 C1.99 2.33 2.98 2.66 4 3 C2.68 3.99 1.36 4.98 0 6 C-0.66 5.67 -1.32 5.34 -2 5 C-2 3.68 -2 2.36 -2 1 C-1.34 0.67 -0.68 0.34 0 0 Z " fill="#BBB9F2" transform="translate(123,78)"/>
</svg>
