<?xml version="1.0" encoding="UTF-8"?>
<svg version="1.1" xmlns="http://www.w3.org/2000/svg" width="141" height="137">
<path d="M0 0 C46.53 0 93.06 0 141 0 C141 45.21 141 90.42 141 137 C94.47 137 47.94 137 0 137 C0 91.79 0 46.58 0 0 Z " fill="#2D1478" transform="translate(0,0)"/>
<path d="M0 0 C2.375 0.6875 2.375 0.6875 3.375 1.6875 C3.53488491 4.20630517 3.63434225 6.70092266 3.69140625 9.22265625 C3.71218735 9.97590683 3.73296844 10.72915741 3.75437927 11.50523376 C3.81995425 13.9200599 3.87879621 16.33499798 3.9375 18.75 C3.9806777 20.38347529 4.02429173 22.0169391 4.06835938 23.65039062 C4.17564362 27.66264464 4.27688821 31.67501164 4.375 35.6875 C6.03114657 36.06968767 7.69957024 36.40145102 9.375 36.6875 C11.30885391 34.75364609 10.55866646 31.11824267 10.5859375 28.4765625 C10.61400797 26.98957236 10.64267245 25.50259334 10.671875 24.015625 C10.71314756 21.6630893 10.75001948 19.3107607 10.77636719 16.95800781 C10.80395542 14.69291899 10.84982806 12.42878459 10.8984375 10.1640625 C10.90169037 9.46084869 10.90494324 8.75763489 10.90829468 8.03311157 C10.9816117 5.12445381 11.06343341 3.13768872 12.74462891 0.70849609 C14.375 -0.3125 14.375 -0.3125 16.9375 -0.125 C19.375 0.6875 19.375 0.6875 21.375 2.6875 C21.69384766 4.56689453 21.69384766 4.56689453 21.7890625 6.8203125 C21.82773438 7.62597656 21.86640625 8.43164062 21.90625 9.26171875 C21.9371875 10.10347656 21.968125 10.94523437 22 11.8125 C22.03867188 12.66199219 22.07734375 13.51148438 22.1171875 14.38671875 C22.21156494 16.48661684 22.29437586 18.58702891 22.375 20.6875 C24.025 21.0175 25.675 21.3475 27.375 21.6875 C27.643125 20.40875 27.91125 19.13 28.1875 17.8125 C28.94690099 14.19074145 29.07577803 13.88698132 32.375 11.6875 C36.91554054 12.22804054 36.91554054 12.22804054 38.375 13.6875 C38.53120555 15.10077947 38.62556173 16.5210459 38.69140625 17.94140625 C38.73330078 18.79541016 38.77519531 19.64941406 38.81835938 20.52929688 C38.85767578 21.42712891 38.89699219 22.32496094 38.9375 23.25 C38.98068359 24.15169922 39.02386719 25.05339844 39.06835938 25.98242188 C39.17478142 28.21728485 39.27679988 30.45226308 39.375 32.6875 C41.025 33.0175 42.675 33.3475 44.375 33.6875 C44.57996094 33.12160156 44.78492187 32.55570313 44.99609375 31.97265625 C45.26550781 31.23917969 45.53492187 30.50570312 45.8125 29.75 C46.07933594 29.01910156 46.34617187 28.28820312 46.62109375 27.53515625 C47.375 25.6875 47.375 25.6875 48.375 24.6875 C51.3125 24.5 51.3125 24.5 54.375 24.6875 C57.25095556 27.56345556 56.66566223 29.89298555 56.69726562 33.82617188 C56.69243164 35.2115918 56.69243164 35.2115918 56.6875 36.625 C56.70361328 37.54474609 56.71972656 38.46449219 56.73632812 39.41210938 C56.73697266 40.29576172 56.73761719 41.17941406 56.73828125 42.08984375 C56.74126221 42.89929443 56.74424316 43.70874512 56.74731445 44.54272461 C56.28682924 47.19542142 55.52788789 48.10854435 53.375 49.6875 C50.03307308 49.44296876 48.76956443 49.08206443 46.375 46.6875 C45.65572705 44.36984271 44.9840107 42.03654126 44.375 39.6875 C43.055 39.6875 41.735 39.6875 40.375 39.6875 C39.25116579 41.93516842 39.22400724 43.25541905 39.1640625 45.75 C39.13570313 46.54664063 39.10734375 47.34328125 39.078125 48.1640625 C39.02604859 49.84613063 38.98177489 51.52845848 38.9453125 53.2109375 C38.914375 54.00757813 38.8834375 54.80421875 38.8515625 55.625 C38.83174316 56.35589844 38.81192383 57.08679688 38.79150391 57.83984375 C38.375 59.6875 38.375 59.6875 35.375 61.6875 C30.83445946 61.14695946 30.83445946 61.14695946 29.375 59.6875 C29.22847285 57.48203974 29.14750488 55.27216866 29.09375 53.0625 C29.07534058 52.40040527 29.05693115 51.73831055 29.03796387 51.05615234 C28.95905449 48.21273419 28.89146975 45.36907041 28.82275391 42.52539062 C28.77111887 40.45430443 28.71383178 38.38342797 28.65625 36.3125 C28.62595703 35.06726562 28.59566406 33.82203125 28.56445312 32.5390625 C28.69617552 29.78911697 28.69617552 29.78911697 27.375 28.6875 C25.70882885 28.64686168 24.04111905 28.644779 22.375 28.6875 C22.36041748 29.94409424 22.34583496 31.20068848 22.33081055 32.49536133 C22.27288396 37.15287892 22.19565089 41.80991016 22.11254883 46.46704102 C22.0792729 48.48356235 22.05124932 50.50017742 22.02856445 52.5168457 C21.99506744 55.413981 21.94275456 58.31025518 21.88671875 61.20703125 C21.88032883 62.11024612 21.8739389 63.013461 21.86735535 63.94404602 C21.84756119 64.78469101 21.82776703 65.625336 21.80737305 66.49145508 C21.79626999 67.23091873 21.78516693 67.97038239 21.77372742 68.73225403 C21.26303588 71.23654022 20.40099246 72.16654336 18.375 73.6875 C15.03307308 73.44296876 13.76956443 73.08206443 11.375 70.6875 C11.05615234 67.98193359 11.05615234 67.98193359 10.9609375 64.5859375 C10.92226562 63.37421875 10.88359375 62.1625 10.84375 60.9140625 C10.8128125 59.64304688 10.781875 58.37203125 10.75 57.0625 C10.71132812 55.78375 10.67265625 54.505 10.6328125 53.1875 C10.53828951 50.02097983 10.45273643 46.8544696 10.375 43.6875 C8.70888095 43.644779 7.04117115 43.64686168 5.375 43.6875 C3.79250658 45.26999342 4.23453536 46.88832405 4.21728516 49.08374023 C4.20189194 50.48540688 4.20189194 50.48540688 4.18618774 51.91539001 C4.17888641 52.93202225 4.17158508 53.94865448 4.1640625 54.99609375 C4.13599959 57.1256588 4.10733517 59.255216 4.078125 61.38476562 C4.03678447 64.7601708 3.99991879 68.13542839 3.97363281 71.51098633 C3.94613589 74.75633455 3.90026805 78.00100407 3.8515625 81.24609375 C3.84830963 82.26070175 3.84505676 83.27530975 3.84170532 84.32066345 C3.82513885 85.25826004 3.80857239 86.19585663 3.79150391 87.16186523 C3.78341705 87.98935776 3.7753302 88.81685028 3.76699829 89.66941833 C3.63763885 90.33538528 3.50827942 91.00135223 3.375 91.6875 C0.375 93.6875 0.375 93.6875 -2.25 93.375 C-4.625 92.6875 -4.625 92.6875 -5.625 91.6875 C-5.78471977 89.31411361 -5.8842433 86.96631728 -5.94140625 84.58984375 C-5.96218735 83.88098526 -5.98296844 83.17212677 -6.00437927 82.44178772 C-6.06994598 80.16962695 -6.1287923 77.89734736 -6.1875 75.625 C-6.23067849 74.08787817 -6.27429255 72.5507685 -6.31835938 71.01367188 C-6.42563449 67.2384041 -6.52688137 63.4630164 -6.625 59.6875 C-8.29111905 59.644779 -9.95882885 59.64686168 -11.625 59.6875 C-13.50134029 61.56384029 -12.82270823 64.77221174 -12.87109375 67.27734375 C-12.90402929 68.63216799 -12.93724098 69.98698554 -12.97070312 71.34179688 C-13.0181635 73.48587472 -13.06259007 75.62992484 -13.10180664 77.77416992 C-13.14145494 79.83801799 -13.1930139 81.90130366 -13.24609375 83.96484375 C-13.28367798 85.82484009 -13.28367798 85.82484009 -13.32202148 87.72241211 C-13.625 90.6875 -13.625 90.6875 -15.625 92.6875 C-18.625 92.9375 -18.625 92.9375 -21.625 92.6875 C-23.99133008 90.32116992 -23.88607236 89.82113844 -23.94384766 86.60498047 C-23.96371735 85.76425995 -23.98358704 84.92353943 -24.00405884 84.05734253 C-24.01561005 83.14896637 -24.02716125 82.24059021 -24.0390625 81.3046875 C-24.05842865 80.37528351 -24.0777948 79.44587952 -24.0977478 78.48831177 C-24.15763685 75.5131352 -24.2039661 72.53792012 -24.25 69.5625 C-24.28817121 67.54816 -24.32722243 65.53383646 -24.3671875 63.51953125 C-24.463346 58.57565425 -24.5473424 53.63170083 -24.625 48.6875 C-26.275 48.3575 -27.925 48.0275 -29.625 47.6875 C-31.06920084 50.57590168 -30.80856389 53.15123821 -30.87109375 56.375 C-30.90402078 57.72656925 -30.93723261 59.0781316 -30.97070312 60.4296875 C-31.01819812 62.56277893 -31.06265307 64.69584005 -31.10180664 66.82910156 C-31.14144232 68.8863595 -31.19299284 70.94305184 -31.24609375 73 C-31.2711499 74.23363281 -31.29620605 75.46726562 -31.32202148 76.73828125 C-31.625 79.6875 -31.625 79.6875 -33.625 81.6875 C-36.0625 82.0625 -36.0625 82.0625 -38.625 81.6875 C-41.40694419 79.20122137 -41.85803847 76.93055528 -42.13671875 73.359375 C-42.20946328 71.71931651 -42.26762733 70.0785576 -42.3125 68.4375 C-42.36374023 67.17679688 -42.36374023 67.17679688 -42.41601562 65.890625 C-42.49823568 63.82337796 -42.56330157 61.75546126 -42.625 59.6875 C-45.1 60.1825 -45.1 60.1825 -47.625 60.6875 C-47.934375 61.821875 -48.24375 62.95625 -48.5625 64.125 C-49.625 67.6875 -49.625 67.6875 -50.625 68.6875 C-53.5625 68.875 -53.5625 68.875 -56.625 68.6875 C-59.50095556 65.81154444 -58.91566223 63.48201445 -58.94726562 59.54882812 C-58.94404297 58.62521484 -58.94082031 57.70160156 -58.9375 56.75 C-58.95361328 55.83025391 -58.96972656 54.91050781 -58.98632812 53.96289062 C-58.98697266 53.07923828 -58.98761719 52.19558594 -58.98828125 51.28515625 C-58.99126221 50.47570557 -58.99424316 49.66625488 -58.99731445 48.83227539 C-58.53682924 46.17957858 -57.77788789 45.26645565 -55.625 43.6875 C-52.28307308 43.93203124 -51.01956443 44.29293557 -48.625 46.6875 C-47.90572705 49.00515729 -47.2340107 51.33845874 -46.625 53.6875 C-44.975 53.6875 -43.325 53.6875 -41.625 53.6875 C-41.60518066 53.09211426 -41.58536133 52.49672852 -41.56494141 51.88330078 C-41.46983874 49.19257847 -41.36010158 46.50264852 -41.25 43.8125 C-41.2190625 42.87535156 -41.188125 41.93820313 -41.15625 40.97265625 C-41.11757813 40.07675781 -41.07890625 39.18085937 -41.0390625 38.2578125 C-41.0076416 37.43039551 -40.9762207 36.60297852 -40.94384766 35.75048828 C-40.625 33.6875 -40.625 33.6875 -38.625 31.6875 C-35.5 32.0625 -35.5 32.0625 -32.625 32.6875 C-30.625 39.4375 -30.625 39.4375 -30.625 41.6875 C-28.95888095 41.730221 -27.29117115 41.72813832 -25.625 41.6875 C-23.29918956 39.36168956 -24.26790142 32.63468655 -24.1953125 29.30078125 C-24.164375 28.50285156 -24.1334375 27.70492187 -24.1015625 26.8828125 C-24.08174316 26.15078613 -24.06192383 25.41875977 -24.04150391 24.66455078 C-23.51269616 22.1544188 -22.65807729 21.21641796 -20.625 19.6875 C-17.28307308 19.93203124 -16.01956443 20.29293557 -13.625 22.6875 C-13.30615234 25.66845703 -13.30615234 25.66845703 -13.2109375 29.4453125 C-13.19157135 30.10836395 -13.1722052 30.77141541 -13.1522522 31.45455933 C-13.09244046 33.57374177 -13.04606612 35.6929785 -13 37.8125 C-12.96182155 39.24872169 -12.92276989 40.68492045 -12.8828125 42.12109375 C-12.78673875 45.64301936 -12.70271358 49.16511608 -12.625 52.6875 C-10.975 53.0175 -9.325 53.3475 -7.625 53.6875 C-6.40290445 51.2433089 -6.48750511 49.63470244 -6.46728516 46.90234375 C-6.45189194 45.41069702 -6.45189194 45.41069702 -6.43618774 43.88891602 C-6.42888641 42.81182373 -6.42158508 41.73473145 -6.4140625 40.625 C-6.38600416 38.36197181 -6.35733977 36.09895106 -6.328125 33.8359375 C-6.28676355 30.25423306 -6.24989128 26.67266921 -6.22363281 23.09082031 C-6.19614593 19.64358556 -6.15028422 16.19699101 -6.1015625 12.75 C-6.09830963 11.67290771 -6.09505676 10.59581543 -6.09170532 9.48608398 C-6.07513885 8.49165283 -6.05857239 7.49722168 -6.04150391 6.47265625 C-6.03341705 5.59488525 -6.0253302 4.71711426 -6.01699829 3.81274414 C-5.88763885 3.11141357 -5.75827942 2.41008301 -5.625 1.6875 C-2.625 -0.3125 -2.625 -0.3125 0 0 Z " fill="#FCFBFD" transform="translate(75.625,27.3125)"/>
</svg>
