<?xml version="1.0" standalone="no"?>
<!DOCTYPE svg PUBLIC "-//W3C//DTD SVG 20010904//EN"
 "http://www.w3.org/TR/2001/REC-SVG-20010904/DTD/svg10.dtd">
<svg version="1.0" xmlns="http://www.w3.org/2000/svg"
 width="504.000000pt" height="288.000000pt" viewBox="0 0 504.000000 288.000000"
 preserveAspectRatio="xMidYMid meet">

<g transform="translate(0.000000,288.000000) scale(0.100000,-0.100000)"
fill="#000000" stroke="none">
<path d="M2460 2850 c-19 -19 -20 -33 -20 -394 0 -327 -2 -377 -16 -390 -19
-19 -67 -21 -82 -3 -7 8 -12 98 -14 239 -3 206 -5 228 -22 247 -26 29 -86 29
-112 0 -16 -18 -19 -40 -22 -158 -3 -145 -9 -161 -57 -161 -33 0 -55 31 -55
77 0 72 -81 112 -130 63 -18 -18 -20 -33 -20 -153 0 -117 -2 -136 -18 -150
-44 -40 -102 -4 -102 62 0 68 -70 104 -121 62 -23 -19 -24 -23 -24 -176 0
-145 1 -158 20 -171 59 -44 116 -17 125 58 7 56 24 78 60 78 52 0 60 -23 60
-167 0 -122 1 -131 23 -151 33 -31 80 -29 106 4 20 25 21 39 21 244 0 197 2
218 18 233 22 20 65 22 80 4 7 -8 12 -124 14 -331 l3 -318 24 -19 c30 -24 72
-24 102 0 24 19 24 22 29 250 4 191 8 233 20 241 24 15 55 12 73 -8 15 -16 17
-48 17 -234 0 -203 1 -217 21 -242 26 -33 79 -36 109 -6 19 19 20 33 20 363 0
379 1 387 60 387 54 0 60 -22 60 -237 0 -180 1 -194 20 -213 28 -28 75 -26
105 5 l25 24 0 310 c0 334 1 341 53 341 51 -1 52 -3 57 -251 5 -228 5 -231 29
-250 30 -25 76 -24 101 1 18 18 20 33 20 148 0 144 10 172 59 172 37 0 61 -28
61 -72 0 -51 28 -82 75 -82 27 0 43 6 56 23 17 20 19 41 19 168 0 139 -1 145
-25 168 -48 49 -125 16 -125 -54 0 -68 -48 -102 -96 -67 -17 13 -19 29 -22
153 -4 158 -10 173 -73 173 -48 0 -79 -36 -79 -90 0 -61 -56 -93 -93 -52 -14
15 -17 41 -17 144 0 112 -2 128 -21 152 -16 20 -29 26 -58 26 -70 0 -71 -5
-71 -281 0 -271 -4 -289 -60 -289 -56 0 -60 18 -60 285 0 276 -2 285 -71 285
-26 0 -46 -7 -59 -20z"/>
<path d="M2470 1060 l0 -70 85 0 86 0 -3 68 -3 67 -82 3 -83 3 0 -71z"/>
<path d="M4877 1123 c-4 -3 -7 -206 -7 -450 l0 -443 80 0 80 0 0 450 0 450
-73 0 c-41 0 -77 -3 -80 -7z"/>
<path d="M1985 1077 c-139 -37 -189 -103 -190 -252 0 -153 34 -186 239 -235
167 -39 176 -45 176 -114 0 -87 -17 -100 -133 -104 -83 -3 -166 4 -259 24
l-28 6 0 -75 0 -76 38 -10 c79 -23 246 -34 323 -22 174 27 236 106 227 287 -7
143 -33 164 -254 219 -150 37 -174 51 -174 107 0 47 26 85 67 99 36 12 211 7
276 -7 l28 -7 -3 74 c-3 71 -4 73 -33 81 -56 16 -247 19 -300 5z"/>
<path d="M0 650 l0 -420 80 0 80 0 0 175 0 175 190 0 190 0 0 -175 0 -175 80
0 80 0 0 420 0 420 -80 0 -80 0 0 -170 0 -170 -190 0 -190 0 0 170 0 170 -80
0 -80 0 0 -420z"/>
<path d="M830 651 l0 -421 85 0 85 0 0 145 0 145 58 0 59 0 96 -145 97 -145
96 0 96 0 -17 28 c-10 15 -54 79 -98 142 -43 63 -81 119 -83 125 -3 6 10 16
28 23 94 34 148 125 148 250 0 128 -33 191 -125 237 l-60 30 -232 3 -233 4 0
-421z m431 253 c40 -24 61 -72 54 -126 -13 -99 -49 -121 -202 -126 l-113 -4 0
142 0 143 113 -5 c90 -3 121 -8 148 -24z"/>
<path d="M2950 897 c-30 -7 -69 -20 -86 -30 -43 -23 -91 -79 -104 -124 -18
-62 -23 -193 -11 -269 16 -92 45 -143 101 -174 61 -34 186 -34 275 -2 32 12
61 22 63 22 3 0 2 -25 0 -56 -4 -43 -11 -61 -32 -82 -25 -26 -31 -27 -134 -27
-59 0 -129 4 -155 8 l-48 8 3 -68 3 -68 55 -13 c33 -7 102 -11 175 -10 105 3
126 6 170 28 28 14 60 40 73 59 44 67 47 97 47 451 l0 335 -45 7 c-103 15
-295 18 -350 5z m188 -133 l52 -7 0 -154 0 -153 -27 -11 c-16 -6 -60 -13 -100
-16 -131 -10 -163 22 -163 167 0 81 16 140 41 156 33 20 115 27 197 18z"/>
<path d="M3770 900 c-24 -5 -66 -23 -92 -40 l-49 -30 -6 30 c-5 30 -6 30 -74
30 l-69 0 0 -330 0 -330 80 0 80 0 0 246 0 245 43 19 c59 26 126 34 175 21 71
-20 72 -25 72 -293 l0 -238 80 0 80 0 0 254 c0 317 -9 349 -103 398 -45 23
-151 31 -217 18z"/>
<path d="M4331 899 c-95 -12 -92 -10 -89 -81 l3 -63 40 5 c22 3 86 5 142 5 97
0 104 -1 129 -26 20 -20 26 -37 27 -74 l2 -49 -50 5 c-27 2 -88 3 -134 2 -163
-5 -226 -67 -218 -214 6 -122 54 -180 159 -193 60 -7 152 13 206 45 41 24 39
24 46 -6 6 -24 10 -25 76 -25 l70 0 0 263 c0 253 -1 264 -22 307 -49 97 -168
127 -387 99z m257 -452 l3 -58 -38 -16 c-21 -9 -70 -18 -109 -21 -90 -6 -114
12 -114 82 0 68 20 77 150 74 l105 -3 3 -58z"/>
<path d="M2480 560 l0 -330 75 0 75 0 0 330 0 330 -75 0 -75 0 0 -330z"/>
</g>
</svg>
