<?xml version="1.0" encoding="UTF-8"?>
<!DOCTYPE svg PUBLIC "-//W3C//DTD SVG 1.1//EN" "http://www.w3.org/Graphics/SVG/1.1/DTD/svg11.dtd">
<svg xmlns="http://www.w3.org/2000/svg" version="1.1" width="270px" height="247px" style="shape-rendering:geometricPrecision; text-rendering:geometricPrecision; image-rendering:optimizeQuality; fill-rule:evenodd; clip-rule:evenodd" xmlns:xlink="http://www.w3.org/1999/xlink">
<g><path style="opacity:1" fill="#fdfdfd" d="M -0.5,-0.5 C 89.5,-0.5 179.5,-0.5 269.5,-0.5C 269.5,81.8333 269.5,164.167 269.5,246.5C 179.5,246.5 89.5,246.5 -0.5,246.5C -0.5,164.167 -0.5,81.8333 -0.5,-0.5 Z"/></g>
<g><path style="opacity:1" fill="#0b6c3c" d="M 121.5,7.5 C 178.565,5.76733 220.065,30.1007 246,80.5C 265.538,133.148 256.038,179.648 217.5,220C 206.82,229.671 194.82,237.337 181.5,243C 176.474,244.494 172.308,243.327 169,239.5C 161.81,219.712 154.477,200.046 147,180.5C 146.163,176.705 146.496,173.039 148,169.5C 172.879,155.195 179.546,134.862 168,108.5C 155.609,92.0361 139.442,86.5361 119.5,92C 96.5311,103.11 88.6978,120.943 96,145.5C 100.634,156.466 108.301,164.466 119,169.5C 120.006,171.534 120.506,173.7 120.5,176C 113.781,197.307 106.281,218.474 98,239.5C 94.2566,243.259 89.7566,244.426 84.5,243C 28.6818,214.208 4.84851,168.375 13,105.5C 28.1781,49.4841 64.3447,16.8175 121.5,7.5 Z"/></g>
<g><path style="opacity:1" fill="#3fa750" d="M 124.5,14.5 C 176.823,13.7309 214.99,36.3975 239,82.5C 258.915,135.167 248.415,180.667 207.5,219C 198.611,226.615 188.611,232.449 177.5,236.5C 176.833,236.167 176.167,235.833 175.5,235.5C 167.932,215.711 160.599,195.878 153.5,176C 153.667,175.167 153.833,174.333 154,173.5C 173.49,163.088 182.49,146.755 181,124.5C 173.909,94.1851 154.742,80.3518 123.5,83C 92.4123,94.0081 80.9123,115.508 89,147.5C 93.3524,159.187 101.186,167.687 112.5,173C 113.081,173.893 113.415,174.893 113.5,176C 106.401,195.878 99.0678,215.711 91.5,235.5C 89.9255,236.631 88.2588,236.798 86.5,236C 37.1305,210.226 14.6305,169.392 19,113.5C 25.9677,76.5521 45.4677,48.3854 77.5,29C 92.3263,20.9992 107.993,16.1659 124.5,14.5 Z"/></g>
<g><path style="opacity:1" fill="#116e40" d="M 132.5,139.5 C 130.059,140.756 127.726,140.756 125.5,139.5C 128.632,131.443 131.965,123.443 135.5,115.5C 137.765,114.353 140.098,114.186 142.5,115C 138.748,123.002 135.415,131.169 132.5,139.5 Z"/></g>
<g><path style="opacity:1" fill="#1d7347" d="M 117.5,120.5 C 118.693,120.97 119.36,121.97 119.5,123.5C 119.167,124.5 118.833,125.5 118.5,126.5C 115.333,127.719 112.333,129.219 109.5,131C 112.605,132.868 115.938,134.035 119.5,134.5C 119.5,136.5 119.5,138.5 119.5,140.5C 114.002,138.832 108.669,136.665 103.5,134C 102.231,131.861 102.231,129.695 103.5,127.5C 108.446,125.531 113.113,123.198 117.5,120.5 Z"/></g>
<g><path style="opacity:1" fill="#8cbaa5" d="M 149.5,121.5 C 148.549,122.919 148.216,124.585 148.5,126.5C 147.207,124.636 147.207,122.636 148.5,120.5C 149.107,120.624 149.44,120.957 149.5,121.5 Z"/></g>
<g><path style="opacity:1" fill="#177043" d="M 149.5,121.5 C 154.474,123.652 159.474,125.819 164.5,128C 165.76,129.814 165.76,131.647 164.5,133.5C 159.259,135.705 154.092,138.038 149,140.5C 148.192,138.421 148.359,136.421 149.5,134.5C 152.125,133.236 154.792,132.069 157.5,131C 154.439,129.47 151.439,127.97 148.5,126.5C 148.216,124.585 148.549,122.919 149.5,121.5 Z"/></g>
<g><path style="opacity:1" fill="#8dbba5" d="M 125.5,139.5 C 127.726,140.756 130.059,140.756 132.5,139.5C 131.666,140.748 130.333,141.415 128.5,141.5C 127.167,141.167 125.833,140.833 124.5,140.5C 124.624,139.893 124.957,139.56 125.5,139.5 Z"/></g>
</svg>
