<?xml version="1.0" encoding="UTF-8"?>
<!DOCTYPE svg PUBLIC "-//W3C//DTD SVG 1.1//EN" "http://www.w3.org/Graphics/SVG/1.1/DTD/svg11.dtd">
<svg xmlns="http://www.w3.org/2000/svg" version="1.1" width="270px" height="247px" style="shape-rendering:geometricPrecision; text-rendering:geometricPrecision; image-rendering:optimizeQuality; fill-rule:evenodd; clip-rule:evenodd" xmlns:xlink="http://www.w3.org/1999/xlink">
<g><path style="opacity:1" fill="#0d673e" d="M 132.5,6.5 C 133.167,6.5 133.833,6.5 134.5,6.5C 134.611,7.11742 134.944,7.61742 135.5,8C 145.157,8.33243 154.49,9.83243 163.5,12.5C 162.003,13.3058 160.336,13.9724 158.5,14.5C 157.389,13.3887 156.055,12.722 154.5,12.5C 150.822,13.6876 147.156,13.6876 143.5,12.5C 143.709,11.914 144.043,11.414 144.5,11C 141.905,10.7744 139.405,10.2744 137,9.5C 132.122,9.65278 127.122,10.3194 122,11.5C 120.984,10.3659 120.317,10.6992 120,12.5C 119,11.8333 118,11.1667 117,10.5C 108.848,12.5244 100.681,14.6911 92.5,17C 91.8742,17.7504 91.3742,18.5838 91,19.5C 90.6667,19.1667 90.3333,18.8333 90,18.5C 82.0535,22.8897 73.8868,26.8897 65.5,30.5C 66.0253,31.1924 66.6919,31.6924 67.5,32C 64.8644,33.1493 62.8644,34.9826 61.5,37.5C 60.5224,37.0233 59.6891,36.3567 59,35.5C 56.9935,36.6687 54.8268,37.3354 52.5,37.5C 65.7241,25.5499 81.0575,17.2165 98.5,12.5C 109.397,10.2875 120.397,8.78754 131.5,8C 132.056,7.61742 132.389,7.11742 132.5,6.5 Z"/></g>
<g><path style="opacity:0.745" fill="#27694d" d="M 132.5,6.5 C 132.389,7.11742 132.056,7.61742 131.5,8C 120.397,8.78754 109.397,10.2875 98.5,12.5C 109.431,8.93428 120.765,6.93428 132.5,6.5 Z"/></g>
<g><path style="opacity:0.259" fill="#276b4d" d="M 134.5,6.5 C 152.109,7.06995 168.776,11.07 184.5,18.5C 177.904,16.3017 171.237,14.3017 164.5,12.5C 164.167,12.5 163.833,12.5 163.5,12.5C 154.49,9.83243 145.157,8.33243 135.5,8C 134.944,7.61742 134.611,7.11742 134.5,6.5 Z"/></g>
<g><path style="opacity:1" fill="#3fa751" d="M 180.5,24.5 C 205.984,36.4819 225.151,55.1486 238,80.5C 240.56,86.9319 243.06,93.2652 245.5,99.5C 255.172,146.643 242.505,186.477 207.5,219C 198.611,226.615 188.611,232.449 177.5,236.5C 173.874,232.242 171.541,227.242 170.5,221.5C 171.486,216.851 172.486,212.184 173.5,207.5C 172.5,207.5 171.5,207.5 170.5,207.5C 170.649,208.552 170.483,209.552 170,210.5C 169.333,211.833 168.667,211.833 168,210.5C 168.016,202.379 165.183,195.546 159.5,190C 160.709,186.975 160.209,184.141 158,181.5C 157.667,181.833 157.333,182.167 157,182.5C 155.491,179.671 155.325,176.838 156.5,174C 159.899,172.823 163.233,171.656 166.5,170.5C 166.943,167.376 168.61,165.043 171.5,163.5C 172.747,161.677 173.414,159.677 173.5,157.5C 173.893,155.716 174.559,154.05 175.5,152.5C 175.5,151.833 175.5,151.167 175.5,150.5C 176.79,149.942 177.623,148.942 178,147.5C 186.579,117.991 176.746,97.1573 148.5,85C 121.858,78.7406 102.025,87.5739 89,111.5C 80.8989,138.546 88.8989,159.213 113,173.5C 112.172,179.175 111.005,184.841 109.5,190.5C 109.5,190.833 109.5,191.167 109.5,191.5C 102.835,205.626 97.002,220.292 92,235.5C 89.9361,236.591 87.7695,236.758 85.5,236C 59.3274,222.811 39.994,202.978 27.5,176.5C 8.64113,127.461 17.3078,84.1272 53.5,46.5C 91.2859,13.9467 133.619,6.61334 180.5,24.5 Z"/></g>
<g><path style="opacity:1" fill="#056838" d="M 164.5,12.5 C 171.237,14.3017 177.904,16.3017 184.5,18.5C 193.283,21.9778 201.283,26.6444 208.5,32.5C 211.772,36.8244 215.105,41.1577 218.5,45.5C 221.968,49.2564 225.802,52.5897 230,55.5C 231.631,59.2892 233.464,62.9559 235.5,66.5C 236.766,67.3624 238.099,68.0291 239.5,68.5C 240.709,72.2973 242.209,75.9639 244,79.5C 244.758,81.7695 244.591,83.9361 243.5,86C 244.5,86.3333 245.5,86.6667 246.5,87C 245.536,91.0659 245.203,95.2325 245.5,99.5C 243.06,93.2652 240.56,86.9319 238,80.5C 225.151,55.1486 205.984,36.4819 180.5,24.5C 180.586,23.5041 180.252,22.6708 179.5,22C 173.081,20.2915 166.748,18.2915 160.5,16C 162.246,15.5291 163.913,14.8624 165.5,14C 164.944,13.6174 164.611,13.1174 164.5,12.5 Z"/></g>
<g><path style="opacity:1" fill="#036a34" d="M 163.5,12.5 C 163.833,12.5 164.167,12.5 164.5,12.5C 164.611,13.1174 164.944,13.6174 165.5,14C 163.913,14.8624 162.246,15.5291 160.5,16C 166.748,18.2915 173.081,20.2915 179.5,22C 180.252,22.6708 180.586,23.5041 180.5,24.5C 133.619,6.61334 91.2859,13.9467 53.5,46.5C 17.3078,84.1272 8.64113,127.461 27.5,176.5C 26.0221,175.03 24.6888,173.363 23.5,171.5C 22.3578,172.826 21.0245,173.826 19.5,174.5C 19.5,173.167 19.5,171.833 19.5,170.5C 19.3932,167.787 19.7266,164.954 20.5,162C 19.2042,157.931 18.3708,153.764 18,149.5C 17.5001,136.838 17.3334,124.171 17.5,111.5C 17.1231,108.475 16.9565,105.475 17,102.5C 18.0113,101.663 19.1779,101.33 20.5,101.5C 20.4208,100.07 20.7542,98.7362 21.5,97.5C 20.415,96.2159 19.7483,94.7159 19.5,93C 21.5144,88.7733 22.8478,84.2733 23.5,79.5C 24.6956,79.8457 24.6956,80.3457 23.5,81C 24.9437,81.7805 26.277,81.6139 27.5,80.5C 26.8333,79.1667 26.1667,77.8333 25.5,76.5C 26.8064,75.0878 27.6397,73.4211 28,71.5C 29.3333,70.1667 30.6667,70.1667 32,71.5C 34.3222,66.2717 37.6556,61.6051 42,57.5C 42.2868,55.1093 42.7868,52.7759 43.5,50.5C 43.2907,49.914 42.9574,49.414 42.5,49C 44.3668,48.2888 45.8668,48.7888 47,50.5C 49.2888,47.7088 51.7888,45.0421 54.5,42.5C 55.9209,39.5717 54.9209,38.2384 51.5,38.5C 51.5,37.8333 51.8333,37.5 52.5,37.5C 54.8268,37.3354 56.9935,36.6687 59,35.5C 59.6891,36.3567 60.5224,37.0233 61.5,37.5C 62.8644,34.9826 64.8644,33.1493 67.5,32C 66.6919,31.6924 66.0253,31.1924 65.5,30.5C 73.8868,26.8897 82.0535,22.8897 90,18.5C 90.3333,18.8333 90.6667,19.1667 91,19.5C 91.3742,18.5838 91.8742,17.7504 92.5,17C 100.681,14.6911 108.848,12.5244 117,10.5C 118,11.1667 119,11.8333 120,12.5C 120.317,10.6992 120.984,10.3659 122,11.5C 127.122,10.3194 132.122,9.65278 137,9.5C 139.405,10.2744 141.905,10.7744 144.5,11C 144.043,11.414 143.709,11.914 143.5,12.5C 147.156,13.6876 150.822,13.6876 154.5,12.5C 156.055,12.722 157.389,13.3887 158.5,14.5C 160.336,13.9724 162.003,13.3058 163.5,12.5 Z"/></g>
<g><path style="opacity:1" fill="#176743" d="M 208.5,32.5 C 221.761,42.086 232.094,54.086 239.5,68.5C 238.099,68.0291 236.766,67.3624 235.5,66.5C 233.464,62.9559 231.631,59.2892 230,55.5C 225.802,52.5897 221.968,49.2564 218.5,45.5C 215.105,41.1577 211.772,36.8244 208.5,32.5 Z"/></g>
<g><path style="opacity:1" fill="#0f673e" d="M 51.5,38.5 C 54.9209,38.2384 55.9209,39.5717 54.5,42.5C 51.7888,45.0421 49.2888,47.7088 47,50.5C 45.8668,48.7888 44.3668,48.2888 42.5,49C 42.9574,49.414 43.2907,49.914 43.5,50.5C 42.7868,52.7759 42.2868,55.1093 42,57.5C 37.6556,61.6051 34.3222,66.2717 32,71.5C 30.6667,70.1667 29.3333,70.1667 28,71.5C 27.6397,73.4211 26.8064,75.0878 25.5,76.5C 26.1667,77.8333 26.8333,79.1667 27.5,80.5C 26.277,81.6139 24.9437,81.7805 23.5,81C 24.6956,80.3457 24.6956,79.8457 23.5,79.5C 22.8478,84.2733 21.5144,88.7733 19.5,93C 19.7483,94.7159 20.415,96.2159 21.5,97.5C 20.7542,98.7362 20.4208,100.07 20.5,101.5C 19.1779,101.33 18.0113,101.663 17,102.5C 16.9565,105.475 17.1231,108.475 17.5,111.5C 16.1971,111.622 14.8638,111.622 13.5,111.5C 15.0093,113.62 14.676,115.287 12.5,116.5C 13.8168,109.538 14.8168,102.538 15.5,95.5C 21.84,72.8465 33.84,53.8465 51.5,38.5 Z"/></g>
<g><path style="opacity:1" fill="#146842" d="M 239.5,68.5 C 248.793,82.7087 254.126,98.3754 255.5,115.5C 255.5,117.5 255.5,119.5 255.5,121.5C 255.038,115.056 253.538,108.723 251,102.5C 250.808,105.708 249.975,108.708 248.5,111.5C 248.189,106.777 248.855,102.277 250.5,98C 250.037,93.576 249.037,93.4094 247.5,97.5C 249.094,100.372 248.427,101.039 245.5,99.5C 245.203,95.2325 245.536,91.0659 246.5,87C 245.5,86.6667 244.5,86.3333 243.5,86C 244.591,83.9361 244.758,81.7695 244,79.5C 242.209,75.9639 240.709,72.2973 239.5,68.5 Z"/></g>
<g><path style="opacity:1" fill="#026738" d="M 17.5,111.5 C 17.3334,124.171 17.5001,136.838 18,149.5C 18.3708,153.764 19.2042,157.931 20.5,162C 19.7266,164.954 19.3932,167.787 19.5,170.5C 17.6214,170.607 17.2881,170.107 18.5,169C 15.9723,162.129 13.639,155.296 11.5,148.5C 11.5,147.167 11.5,145.833 11.5,144.5C 11.2483,135.127 11.5817,125.793 12.5,116.5C 14.676,115.287 15.0093,113.62 13.5,111.5C 14.8638,111.622 16.1971,111.622 17.5,111.5 Z"/></g>
<g><path style="opacity:1" fill="#026639" d="M 255.5,121.5 C 256.04,130.381 255.373,139.048 253.5,147.5C 252.034,146.653 251.2,145.32 251,143.5C 250.817,135.588 250.317,127.754 249.5,120C 249.833,119.667 250.167,119.333 250.5,119C 249.78,116.509 249.113,114.009 248.5,111.5C 249.975,108.708 250.808,105.708 251,102.5C 253.538,108.723 255.038,115.056 255.5,121.5 Z"/></g>
<g><path style="opacity:1" fill="#036a35" d="M 175.5,150.5 C 176.014,148.634 176.68,146.8 177.5,145C 175.952,136.451 175.286,127.618 175.5,118.5C 174.5,118.5 173.5,118.5 172.5,118.5C 172.741,115.966 171.741,114.3 169.5,113.5C 169.5,113.167 169.5,112.833 169.5,112.5C 169.808,110.076 169.474,107.743 168.5,105.5C 166.259,104.968 164.759,103.635 164,101.5C 164.218,99.4132 164.051,97.4132 163.5,95.5C 162.5,94.8333 161.5,94.1667 160.5,93.5C 159.808,94.0253 159.308,94.6919 159,95.5C 153.453,91.9446 147.286,89.9446 140.5,89.5C 136.688,88.6762 132.688,88.1762 128.5,88C 127.182,87.3058 126.349,86.4725 126,85.5C 123.807,85.8513 121.974,86.8513 120.5,88.5C 117.511,87.8247 114.511,88.1581 111.5,89.5C 106.833,93.3192 102.999,97.3192 100,101.5C 99.5172,102.448 99.3505,103.448 99.5,104.5C 98.448,104.351 97.448,104.517 96.5,105C 90.6506,109.848 87.6506,116.182 87.5,124C 87.3042,131.559 89.9709,138.059 95.5,143.5C 96.1667,143.5 96.5,143.833 96.5,144.5C 92.7737,145.932 91.9404,148.265 94,151.5C 96.8333,154 99.6667,156.5 102.5,159C 103.448,159.483 104.448,159.649 105.5,159.5C 105.833,159.5 106.167,159.5 106.5,159.5C 106.67,160.822 106.337,161.989 105.5,163C 108.479,164.612 109.812,167.112 109.5,170.5C 111.143,170.52 112.476,169.853 113.5,168.5C 114.192,169.025 114.692,169.692 115,170.5C 115.308,169.692 115.808,169.025 116.5,168.5C 118.255,169.67 119.255,171.337 119.5,173.5C 118.095,177.217 116.595,180.883 115,184.5C 112.469,185.923 110.635,187.923 109.5,190.5C 111.005,184.841 112.172,179.175 113,173.5C 88.8989,159.213 80.8989,138.546 89,111.5C 102.025,87.5739 121.858,78.7406 148.5,85C 176.746,97.1573 186.579,117.991 178,147.5C 177.623,148.942 176.79,149.942 175.5,150.5 Z"/></g>
<g><path style="opacity:1" fill="#166641" d="M 140.5,89.5 C 147.286,89.9446 153.453,91.9446 159,95.5C 159.308,94.6919 159.808,94.0253 160.5,93.5C 161.5,94.1667 162.5,94.8333 163.5,95.5C 164.051,97.4132 164.218,99.4132 164,101.5C 164.759,103.635 166.259,104.968 168.5,105.5C 169.474,107.743 169.808,110.076 169.5,112.5C 155.028,90.3777 135.695,85.0444 111.5,96.5C 111.721,95.2652 112.388,94.2652 113.5,93.5C 113.291,92.914 112.957,92.414 112.5,92C 114.219,90.9431 116.053,90.1097 118,89.5C 125.407,89.8457 132.907,89.8457 140.5,89.5 Z"/></g>
<g><path style="opacity:1" fill="#09663b" d="M 140.5,89.5 C 132.907,89.8457 125.407,89.8457 118,89.5C 116.053,90.1097 114.219,90.9431 112.5,92C 112.957,92.414 113.291,92.914 113.5,93.5C 112.388,94.2652 111.721,95.2652 111.5,96.5C 95.8164,108.549 90.4831,124.216 95.5,143.5C 89.9709,138.059 87.3042,131.559 87.5,124C 87.6506,116.182 90.6506,109.848 96.5,105C 97.448,104.517 98.448,104.351 99.5,104.5C 99.3505,103.448 99.5172,102.448 100,101.5C 102.999,97.3192 106.833,93.3192 111.5,89.5C 114.511,88.1581 117.511,87.8247 120.5,88.5C 121.974,86.8513 123.807,85.8513 126,85.5C 126.349,86.4725 127.182,87.3058 128.5,88C 132.688,88.1762 136.688,88.6762 140.5,89.5 Z"/></g>
<g><path style="opacity:0.316" fill="#256449" d="M 15.5,95.5 C 14.8168,102.538 13.8168,109.538 12.5,116.5C 11.5817,125.793 11.2483,135.127 11.5,144.5C 10.342,135.009 10.1754,125.342 11,115.5C 11.692,108.525 13.192,101.858 15.5,95.5 Z"/></g>
<g><path style="opacity:1" fill="#12673f" d="M 135.5,113.5 C 138.247,113.187 140.914,113.52 143.5,114.5C 139.833,123.167 136.167,131.833 132.5,140.5C 129.914,141.48 127.247,141.813 124.5,141.5C 127.771,132.02 131.438,122.687 135.5,113.5 Z"/></g>
<g><path style="opacity:1" fill="#156a41" d="M 116.5,120.5 C 117.833,120.5 119.167,120.5 120.5,120.5C 120.662,122.527 120.495,124.527 120,126.5C 117.214,128.142 114.381,129.642 111.5,131C 114.208,132.069 116.875,133.236 119.5,134.5C 120.474,136.743 120.808,139.076 120.5,141.5C 114.309,139.741 108.309,137.408 102.5,134.5C 101.167,132.167 101.167,129.833 102.5,127.5C 107.271,125.147 111.937,122.814 116.5,120.5 Z"/></g>
<g><path style="opacity:1" fill="#12683f" d="M 147.5,120.5 C 153.356,122.092 159.023,124.258 164.5,127C 166.648,129.075 166.982,131.408 165.5,134C 159.833,136.5 154.167,139 148.5,141.5C 147.353,139.235 147.186,136.902 148,134.5C 150.761,133.204 153.595,132.037 156.5,131C 153.721,129.278 150.721,128.111 147.5,127.5C 147.5,125.167 147.5,122.833 147.5,120.5 Z"/></g>
<g><path style="opacity:0.54" fill="#216045" d="M 255.5,115.5 C 256.658,124.991 256.825,134.658 256,144.5C 255.514,150.111 254.347,155.444 252.5,160.5C 252.646,156.481 252.979,152.481 253.5,148.5C 253.5,148.167 253.5,147.833 253.5,147.5C 255.373,139.048 256.04,130.381 255.5,121.5C 255.5,119.5 255.5,117.5 255.5,115.5 Z"/></g>
<g><path style="opacity:1" fill="#046a34" d="M 248.5,111.5 C 249.113,114.009 249.78,116.509 250.5,119C 250.167,119.333 249.833,119.667 249.5,120C 250.317,127.754 250.817,135.588 251,143.5C 251.2,145.32 252.034,146.653 253.5,147.5C 253.5,147.833 253.5,148.167 253.5,148.5C 252.911,151.734 250.911,153.067 247.5,152.5C 246.298,159.056 245.132,165.723 244,172.5C 243.5,173 243,173.5 242.5,174C 246.153,180.215 244.486,183.715 237.5,184.5C 236.752,186.584 236.752,188.584 237.5,190.5C 236.311,191.429 234.978,191.762 233.5,191.5C 234.449,194.208 234.449,196.874 233.5,199.5C 232.184,199.568 230.85,199.568 229.5,199.5C 228.926,202.177 228.259,204.843 227.5,207.5C 226.914,207.291 226.414,206.957 226,206.5C 225.453,211.348 224.12,211.682 222,207.5C 221.51,208.793 221.343,210.127 221.5,211.5C 218.785,212.048 216.785,213.548 215.5,216C 215.667,216.5 215.833,217 216,217.5C 217.356,216.62 218.856,216.286 220.5,216.5C 220.354,211.863 221.021,211.53 222.5,215.5C 221.5,217.167 220.167,218.5 218.5,219.5C 217.305,219.322 216.138,218.989 215,218.5C 213.01,222.654 209.844,225.654 205.5,227.5C 203.197,226.471 200.864,226.471 198.5,227.5C 200.444,232.451 198.777,233.784 193.5,231.5C 190.468,234.035 187.301,236.368 184,238.5C 180.684,237.666 178.35,238.999 177,242.5C 175.795,241.929 174.628,241.262 173.5,240.5C 174.833,237.833 174.167,237.167 171.5,238.5C 169.599,237.065 169.266,235.398 170.5,233.5C 169.833,232.167 169.167,230.833 168.5,229.5C 169.319,225.882 169.319,222.216 168.5,218.5C 169.167,219.5 169.833,220.5 170.5,221.5C 171.541,227.242 173.874,232.242 177.5,236.5C 188.611,232.449 198.611,226.615 207.5,219C 242.505,186.477 255.172,146.643 245.5,99.5C 248.427,101.039 249.094,100.372 247.5,97.5C 249.037,93.4094 250.037,93.576 250.5,98C 248.855,102.277 248.189,106.777 248.5,111.5 Z"/></g>
<g><path style="opacity:1" fill="#0c683d" d="M 169.5,113.5 C 171.741,114.3 172.741,115.966 172.5,118.5C 173.5,118.5 174.5,118.5 175.5,118.5C 175.286,127.618 175.952,136.451 177.5,145C 176.68,146.8 176.014,148.634 175.5,150.5C 175.5,151.167 175.5,151.833 175.5,152.5C 174.417,152.539 173.417,152.873 172.5,153.5C 171.167,155.5 169.833,157.5 168.5,159.5C 167.167,158.833 165.833,158.167 164.5,157.5C 163.485,160.21 161.985,162.543 160,164.5C 159.667,163.833 159.333,163.167 159,162.5C 158.329,163.252 157.496,163.586 156.5,163.5C 172.68,149.953 177.014,133.286 169.5,113.5 Z"/></g>
<g><path style="opacity:1" fill="#0d6740" d="M 96.5,144.5 C 98.734,149.97 101.734,154.97 105.5,159.5C 104.448,159.649 103.448,159.483 102.5,159C 99.6667,156.5 96.8333,154 94,151.5C 91.9404,148.265 92.7737,145.932 96.5,144.5 Z"/></g>
<g><path style="opacity:1" fill="#246448" d="M 11.5,148.5 C 13.639,155.296 15.9723,162.129 18.5,169C 17.2881,170.107 17.6214,170.607 19.5,170.5C 19.5,171.833 19.5,173.167 19.5,174.5C 20.9042,177.88 22.4042,181.214 24,184.5C 24.7504,185.126 25.5838,185.626 26.5,186C 26.0338,187.299 26.0338,188.799 26.5,190.5C 18.4699,177.791 13.4699,163.791 11.5,148.5 Z"/></g>
<g><path style="opacity:1" fill="#0d673e" d="M 156.5,163.5 C 155.342,164.573 155.342,165.739 156.5,167C 154.671,168.995 152.671,170.828 150.5,172.5C 150.629,178.639 150.629,184.972 150.5,191.5C 147.233,185.618 145.733,179.284 146,172.5C 148.005,167.749 151.505,164.749 156.5,163.5 Z"/></g>
<g><path style="opacity:1" fill="#10663f" d="M 253.5,148.5 C 252.979,152.481 252.646,156.481 252.5,160.5C 247.437,181.634 237.437,199.967 222.5,215.5C 221.021,211.53 220.354,211.863 220.5,216.5C 218.856,216.286 217.356,216.62 216,217.5C 215.833,217 215.667,216.5 215.5,216C 216.785,213.548 218.785,212.048 221.5,211.5C 221.343,210.127 221.51,208.793 222,207.5C 224.12,211.682 225.453,211.348 226,206.5C 226.414,206.957 226.914,207.291 227.5,207.5C 228.259,204.843 228.926,202.177 229.5,199.5C 230.85,199.568 232.184,199.568 233.5,199.5C 234.449,196.874 234.449,194.208 233.5,191.5C 234.978,191.762 236.311,191.429 237.5,190.5C 236.752,188.584 236.752,186.584 237.5,184.5C 244.486,183.715 246.153,180.215 242.5,174C 243,173.5 243.5,173 244,172.5C 245.132,165.723 246.298,159.056 247.5,152.5C 250.911,153.067 252.911,151.734 253.5,148.5 Z"/></g>
<g><path style="opacity:1" fill="#036936" d="M 175.5,152.5 C 174.559,154.05 173.893,155.716 173.5,157.5C 170.076,161.754 166.076,165.587 161.5,169C 159.33,170.586 156.996,171.92 154.5,173C 153.903,174.062 153.57,175.228 153.5,176.5C 158.796,190.321 163.796,204.321 168.5,218.5C 167.417,218.461 166.417,218.127 165.5,217.5C 164.679,214.553 164.179,211.553 164,208.5C 160.46,206.819 158.627,204.319 158.5,201C 156.518,198.919 155.184,196.419 154.5,193.5C 153.423,192.295 152.09,191.628 150.5,191.5C 150.629,184.972 150.629,178.639 150.5,172.5C 152.671,170.828 154.671,168.995 156.5,167C 155.342,165.739 155.342,164.573 156.5,163.5C 157.496,163.586 158.329,163.252 159,162.5C 159.333,163.167 159.667,163.833 160,164.5C 161.985,162.543 163.485,160.21 164.5,157.5C 165.833,158.167 167.167,158.833 168.5,159.5C 169.833,157.5 171.167,155.5 172.5,153.5C 173.417,152.873 174.417,152.539 175.5,152.5 Z"/></g>
<g><path style="opacity:1" fill="#3da555" d="M 173.5,157.5 C 173.414,159.677 172.747,161.677 171.5,163.5C 168.61,165.043 166.943,167.376 166.5,170.5C 163.233,171.656 159.899,172.823 156.5,174C 155.325,176.838 155.491,179.671 157,182.5C 157.333,182.167 157.667,181.833 158,181.5C 160.209,184.141 160.709,186.975 159.5,190C 165.183,195.546 168.016,202.379 168,210.5C 168.667,211.833 169.333,211.833 170,210.5C 170.483,209.552 170.649,208.552 170.5,207.5C 171.5,207.5 172.5,207.5 173.5,207.5C 172.486,212.184 171.486,216.851 170.5,221.5C 169.833,220.5 169.167,219.5 168.5,218.5C 163.796,204.321 158.796,190.321 153.5,176.5C 153.57,175.228 153.903,174.062 154.5,173C 156.996,171.92 159.33,170.586 161.5,169C 166.076,165.587 170.076,161.754 173.5,157.5 Z"/></g>
<g><path style="opacity:0.6" fill="#216949" d="M 119.5,182.5 C 117.405,190.126 114.738,197.459 111.5,204.5C 113.463,198.315 114.963,191.981 116,185.5C 117.039,184.29 118.206,183.29 119.5,182.5 Z"/></g>
<g><path style="opacity:1" fill="#0e663e" d="M 106.5,159.5 C 110.509,162.669 114.676,165.669 119,168.5C 122.019,173.22 122.186,177.887 119.5,182.5C 118.206,183.29 117.039,184.29 116,185.5C 114.963,191.981 113.463,198.315 111.5,204.5C 107.969,215.257 104.136,225.924 100,236.5C 99.2082,239.106 97.7082,241.106 95.5,242.5C 97.7917,236.921 99.7917,231.254 101.5,225.5C 99.4798,223.401 99.1465,221.067 100.5,218.5C 101.478,218.977 102.311,219.643 103,220.5C 103.374,219.584 103.874,218.75 104.5,218C 104.535,214.599 104.368,211.099 104,207.5C 105.473,204.168 107.639,201.335 110.5,199C 109.951,196.462 109.618,193.962 109.5,191.5C 109.5,191.167 109.5,190.833 109.5,190.5C 110.635,187.923 112.469,185.923 115,184.5C 116.595,180.883 118.095,177.217 119.5,173.5C 119.255,171.337 118.255,169.67 116.5,168.5C 115.808,169.025 115.308,169.692 115,170.5C 114.692,169.692 114.192,169.025 113.5,168.5C 112.476,169.853 111.143,170.52 109.5,170.5C 109.812,167.112 108.479,164.612 105.5,163C 106.337,161.989 106.67,160.822 106.5,159.5 Z"/></g>
<g><path style="opacity:1" fill="#0f663e" d="M 150.5,191.5 C 152.09,191.628 153.423,192.295 154.5,193.5C 155.184,196.419 156.518,198.919 158.5,201C 158.627,204.319 160.46,206.819 164,208.5C 164.179,211.553 164.679,214.553 165.5,217.5C 166.417,218.127 167.417,218.461 168.5,218.5C 169.319,222.216 169.319,225.882 168.5,229.5C 169.167,230.833 169.833,232.167 170.5,233.5C 169.266,235.398 169.599,237.065 171.5,238.5C 174.167,237.167 174.833,237.833 173.5,240.5C 174.628,241.262 175.795,241.929 177,242.5C 178.35,238.999 180.684,237.666 184,238.5C 187.301,236.368 190.468,234.035 193.5,231.5C 198.777,233.784 200.444,232.451 198.5,227.5C 200.864,226.471 203.197,226.471 205.5,227.5C 209.844,225.654 213.01,222.654 215,218.5C 216.138,218.989 217.305,219.322 218.5,219.5C 207.7,229.766 195.367,237.933 181.5,244C 174.383,245.858 169.549,243.358 167,236.5C 161.486,221.479 155.986,206.479 150.5,191.5 Z"/></g>
<g><path style="opacity:1" fill="#276549" d="M 53.5,223.5 C 57.3633,224.694 60.3633,227.027 62.5,230.5C 58.9485,228.889 55.9485,226.556 53.5,223.5 Z"/></g>
<g><path style="opacity:1" fill="#056837" d="M 27.5,176.5 C 39.994,202.978 59.3274,222.811 85.5,236C 87.7695,236.758 89.9361,236.591 92,235.5C 97.002,220.292 102.835,205.626 109.5,191.5C 109.618,193.962 109.951,196.462 110.5,199C 107.639,201.335 105.473,204.168 104,207.5C 104.368,211.099 104.535,214.599 104.5,218C 103.874,218.75 103.374,219.584 103,220.5C 102.311,219.643 101.478,218.977 100.5,218.5C 99.1465,221.067 99.4798,223.401 101.5,225.5C 99.7917,231.254 97.7917,236.921 95.5,242.5C 91.5446,243.137 88.878,241.637 87.5,238C 85.1667,237 82.8333,236 80.5,235C 77.5,235.333 74.5,235.667 71.5,236C 70.624,234.414 69.624,232.914 68.5,231.5C 71.1355,229.936 70.9689,228.603 68,227.5C 66.4941,229.174 64.6607,230.174 62.5,230.5C 60.3633,227.027 57.3633,224.694 53.5,223.5C 41.9731,214.633 32.9731,203.633 26.5,190.5C 26.0338,188.799 26.0338,187.299 26.5,186C 25.5838,185.626 24.7504,185.126 24,184.5C 22.4042,181.214 20.9042,177.88 19.5,174.5C 21.0245,173.826 22.3578,172.826 23.5,171.5C 24.6888,173.363 26.0221,175.03 27.5,176.5 Z"/></g>
<g><path style="opacity:1" fill="#11663f" d="M 95.5,242.5 C 95.0825,243.222 94.4158,243.722 93.5,244C 90.8333,244.667 88.1667,244.667 85.5,244C 77.0639,240.5 69.3973,236 62.5,230.5C 64.6607,230.174 66.4941,229.174 68,227.5C 70.9689,228.603 71.1355,229.936 68.5,231.5C 69.624,232.914 70.624,234.414 71.5,236C 74.5,235.667 77.5,235.333 80.5,235C 82.8333,236 85.1667,237 87.5,238C 88.878,241.637 91.5446,243.137 95.5,242.5 Z"/></g>
</svg>
