<?xml version="1.0" encoding="UTF-8"?>
<!DOCTYPE svg PUBLIC "-//W3C//DTD SVG 1.1//EN" "http://www.w3.org/Graphics/SVG/1.1/DTD/svg11.dtd">
<svg xmlns="http://www.w3.org/2000/svg" version="1.1" width="200px" height="200px" style="shape-rendering:geometricPrecision; text-rendering:geometricPrecision; image-rendering:optimizeQuality; fill-rule:evenodd; clip-rule:evenodd" xmlns:xlink="http://www.w3.org/1999/xlink">
<g><path style="opacity:1" fill="#fdfefe" d="M -0.5,-0.5 C 66.1667,-0.5 132.833,-0.5 199.5,-0.5C 199.5,41.8333 199.5,84.1667 199.5,126.5C 183.398,122.355 167.731,117.022 152.5,110.5C 149.068,108.248 145.734,105.748 142.5,103C 140.19,102.503 137.857,102.337 135.5,102.5C 133.967,100.366 133.3,97.8655 133.5,95C 133.658,92.5505 134.325,90.3838 135.5,88.5C 136.338,88.1583 136.672,87.4916 136.5,86.5C 137.167,84.1667 137.833,81.8333 138.5,79.5C 138.66,77.847 139.326,76.5137 140.5,75.5C 143.103,71.732 143.769,67.732 142.5,63.5C 140.97,60.9791 138.636,59.9791 135.5,60.5C 135.443,59.391 135.11,58.391 134.5,57.5C 136.041,54.3026 135.041,51.9693 131.5,50.5C 130.167,48.8333 130.167,47.1667 131.5,45.5C 130.833,44.5 130.167,43.5 129.5,42.5C 130.631,41.3961 131.465,41.7295 132,43.5C 132.397,38.1922 130.897,33.5256 127.5,29.5C 125.451,26.4503 122.784,24.117 119.5,22.5C 114.912,18.631 109.578,16.2977 103.5,15.5C 103.082,14.7784 102.416,14.2784 101.5,14C 77.7949,13.0173 63.7949,24.1839 59.5,47.5C 59.0811,53.9859 59.7477,60.3192 61.5,66.5C 59.087,67.6798 58.087,69.6798 58.5,72.5C 59.9587,72.4326 61.2921,72.7659 62.5,73.5C 63.038,75.1172 63.3713,76.7839 63.5,78.5C 62.8908,84.5864 63.8908,90.2531 66.5,95.5C 67.2622,99.6911 69.0956,103.358 72,106.5C 76.5968,110.818 81.0968,115.318 85.5,120C 87.1932,120.847 88.8599,121.68 90.5,122.5C 90.5,124.167 90.5,125.833 90.5,127.5C 85.9739,134.523 79.9739,140.023 72.5,144C 63.4668,150.566 59.1335,159.399 59.5,170.5C 60.7153,180.126 61.3819,189.793 61.5,199.5C 40.8333,199.5 20.1667,199.5 -0.5,199.5C -0.5,132.833 -0.5,66.1667 -0.5,-0.5 Z"/></g>
<g><path style="opacity:1" fill="#fde1ce" d="M 105.5,49.5 C 103.627,50.8963 103.294,52.563 104.5,54.5C 100.86,52.8981 100.527,50.5648 103.5,47.5C 102.049,46.094 100.716,44.594 99.5,43C 100.76,41.1862 100.76,39.3529 99.5,37.5C 95.5379,37.188 92.5379,35.3546 90.5,32C 82.2549,30.2403 75.7549,32.7403 71,39.5C 70.5026,42.146 70.3359,44.8127 70.5,47.5C 68.0503,47.1257 67.0503,45.6257 67.5,43C 68.1252,39.4562 68.9585,35.9562 70,32.5C 70.3333,33.1667 70.6667,33.8333 71,34.5C 72.9897,31.5117 75.3231,28.8451 78,26.5C 78.3333,26.8333 78.6667,27.1667 79,27.5C 79.4828,26.552 79.6495,25.552 79.5,24.5C 82.8663,24.2122 86.1996,24.0455 89.5,24C 92.9293,28.0486 97.2627,30.5486 102.5,31.5C 102.335,35.1817 102.501,38.8484 103,42.5C 104.903,44.441 105.736,46.7743 105.5,49.5 Z"/></g>
<g><path style="opacity:1" fill="#f6c0a3" d="M 103.5,15.5 C 109.578,16.2977 114.912,18.631 119.5,22.5C 117.302,22.4088 116.969,23.0755 118.5,24.5C 117.5,24.5 116.5,24.5 115.5,24.5C 113.848,32.4432 112.514,40.4432 111.5,48.5C 110.167,48.5 108.833,48.5 107.5,48.5C 106.756,51.9496 108.09,53.6162 111.5,53.5C 111.5,55.1667 111.5,56.8333 111.5,58.5C 108.167,58.5 104.833,58.5 101.5,58.5C 102.531,57.7515 103.698,57.0848 105,56.5C 105.692,55.5632 105.525,54.8966 104.5,54.5C 103.294,52.563 103.627,50.8963 105.5,49.5C 106.139,48.9032 106.472,48.0698 106.5,47C 105.682,43.9391 104.682,40.9391 103.5,38C 103.648,36.293 103.982,34.6264 104.5,33C 100.794,27.5564 97.7941,22.0564 95.5,16.5C 98.0865,15.52 100.753,15.1866 103.5,15.5 Z"/></g>
<g><path style="opacity:1" fill="#c19886" d="M 119.5,22.5 C 122.784,24.117 125.451,26.4503 127.5,29.5C 127.782,34.9265 127.449,40.2599 126.5,45.5C 125.365,44.8973 124.365,44.5639 123.5,44.5C 123.5,40.1667 123.5,35.8333 123.5,31.5C 118.61,31.3608 118.277,29.8608 122.5,27C 121.529,25.5187 120.196,24.6854 118.5,24.5C 116.969,23.0755 117.302,22.4088 119.5,22.5 Z"/></g>
<g><path style="opacity:1" fill="#fdeee2" d="M 104.5,54.5 C 105.525,54.8966 105.692,55.5632 105,56.5C 103.698,57.0848 102.531,57.7515 101.5,58.5C 100.127,58.3433 98.7932,58.51 97.5,59C 96.1982,61.0218 94.5315,62.5218 92.5,63.5C 90.2362,64.2186 87.9029,64.552 85.5,64.5C 83.4293,63.0549 81.096,62.0549 78.5,61.5C 76.2603,60.7356 73.9269,59.9023 71.5,59C 72.1222,57.4309 72.4555,55.7642 72.5,54C 72.664,51.4563 71.9973,49.2897 70.5,47.5C 70.3359,44.8127 70.5026,42.146 71,39.5C 75.7549,32.7403 82.2549,30.2403 90.5,32C 92.5379,35.3546 95.5379,37.188 99.5,37.5C 100.76,39.3529 100.76,41.1862 99.5,43C 100.716,44.594 102.049,46.094 103.5,47.5C 100.527,50.5648 100.86,52.8981 104.5,54.5 Z"/></g>
<g><path style="opacity:1" fill="#c7b0b1" d="M 127.5,29.5 C 130.897,33.5256 132.397,38.1922 132,43.5C 131.465,41.7295 130.631,41.3961 129.5,42.5C 130.167,43.5 130.833,44.5 131.5,45.5C 130.167,47.1667 130.167,48.8333 131.5,50.5C 135.041,51.9693 136.041,54.3026 134.5,57.5C 132.878,56.8776 131.545,55.8776 130.5,54.5C 130.657,53.1266 130.49,51.7932 130,50.5C 128.331,49.1537 127.164,47.487 126.5,45.5C 127.449,40.2599 127.782,34.9265 127.5,29.5 Z"/></g>
<g><path style="opacity:1" fill="#e5a17c" d="M 118.5,24.5 C 120.196,24.6854 121.529,25.5187 122.5,27C 118.277,29.8608 118.61,31.3608 123.5,31.5C 123.5,35.8333 123.5,40.1667 123.5,44.5C 123.167,44.5 122.833,44.5 122.5,44.5C 122.509,42.6916 122.009,41.0249 121,39.5C 120.316,40.7839 120.483,41.9505 121.5,43C 119.699,43.3173 119.366,43.984 120.5,45C 118.205,47.7568 117.205,50.9235 117.5,54.5C 116.5,54.5 115.5,54.5 114.5,54.5C 114.5,55.8333 114.5,57.1667 114.5,58.5C 113.5,58.5 112.5,58.5 111.5,58.5C 111.5,56.8333 111.5,55.1667 111.5,53.5C 108.09,53.6162 106.756,51.9496 107.5,48.5C 108.833,48.5 110.167,48.5 111.5,48.5C 112.514,40.4432 113.848,32.4432 115.5,24.5C 116.5,24.5 117.5,24.5 118.5,24.5 Z"/></g>
<g><path style="opacity:1" fill="#fbd5bd" d="M 103.5,15.5 C 100.753,15.1866 98.0865,15.52 95.5,16.5C 97.7941,22.0564 100.794,27.5564 104.5,33C 103.982,34.6264 103.648,36.293 103.5,38C 104.682,40.9391 105.682,43.9391 106.5,47C 106.472,48.0698 106.139,48.9032 105.5,49.5C 105.736,46.7743 104.903,44.441 103,42.5C 102.501,38.8484 102.335,35.1817 102.5,31.5C 97.2627,30.5486 92.9293,28.0486 89.5,24C 86.1996,24.0455 82.8663,24.2122 79.5,24.5C 79.6495,25.552 79.4828,26.552 79,27.5C 78.6667,27.1667 78.3333,26.8333 78,26.5C 75.3231,28.8451 72.9897,31.5117 71,34.5C 70.6667,33.8333 70.3333,33.1667 70,32.5C 68.9585,35.9562 68.1252,39.4562 67.5,43C 67.0503,45.6257 68.0503,47.1257 70.5,47.5C 71.9973,49.2897 72.664,51.4563 72.5,54C 72.4555,55.7642 72.1222,57.4309 71.5,59C 73.9269,59.9023 76.2603,60.7356 78.5,61.5C 76.1667,61.5 73.8333,61.5 71.5,61.5C 70.5,61.5 69.5,61.5 68.5,61.5C 68.5861,59.323 69.2528,57.323 70.5,55.5C 69.1468,54.4763 68.4802,53.143 68.5,51.5C 67.1667,51.5 65.8333,51.5 64.5,51.5C 64.7886,48.3508 64.2886,45.3508 63,42.5C 61.8111,44.2331 60.6444,45.8998 59.5,47.5C 63.7949,24.1839 77.7949,13.0173 101.5,14C 102.416,14.2784 103.082,14.7784 103.5,15.5 Z"/></g>
<g><path style="opacity:1" fill="#a27158" d="M 122.5,44.5 C 122.833,44.5 123.167,44.5 123.5,44.5C 124.365,44.5639 125.365,44.8973 126.5,45.5C 127.164,47.487 128.331,49.1537 130,50.5C 130.49,51.7932 130.657,53.1266 130.5,54.5C 128.241,55.344 127.241,57.0107 127.5,59.5C 124.5,59.5 121.5,59.5 118.5,59.5C 115.941,59.8016 113.607,59.4682 111.5,58.5C 112.5,58.5 113.5,58.5 114.5,58.5C 121.264,58.9685 122.931,56.3019 119.5,50.5C 121.038,48.7567 122.038,46.7567 122.5,44.5 Z"/></g>
<g><path style="opacity:1" fill="#f4c3a5" d="M 71.5,61.5 C 70.3065,62.2719 69.3065,63.2719 68.5,64.5C 66.1667,65.1667 63.8333,65.8333 61.5,66.5C 59.7477,60.3192 59.0811,53.9859 59.5,47.5C 60.6444,45.8998 61.8111,44.2331 63,42.5C 64.2886,45.3508 64.7886,48.3508 64.5,51.5C 65.8333,51.5 67.1667,51.5 68.5,51.5C 68.4802,53.143 69.1468,54.4763 70.5,55.5C 69.2528,57.323 68.5861,59.323 68.5,61.5C 69.5,61.5 70.5,61.5 71.5,61.5 Z"/></g>
<g><path style="opacity:1" fill="#cb855e" d="M 122.5,44.5 C 122.038,46.7567 121.038,48.7567 119.5,50.5C 122.931,56.3019 121.264,58.9685 114.5,58.5C 114.5,57.1667 114.5,55.8333 114.5,54.5C 115.5,54.5 116.5,54.5 117.5,54.5C 117.205,50.9235 118.205,47.7568 120.5,45C 119.366,43.984 119.699,43.3173 121.5,43C 120.483,41.9505 120.316,40.7839 121,39.5C 122.009,41.0249 122.509,42.6916 122.5,44.5 Z"/></g>
<g><path style="opacity:1" fill="#685455" d="M 130.5,54.5 C 131.545,55.8776 132.878,56.8776 134.5,57.5C 135.11,58.391 135.443,59.391 135.5,60.5C 135.5,61.1667 135.167,61.5 134.5,61.5C 133.652,60.375 132.652,60.375 131.5,61.5C 131.167,60.5 130.5,59.8333 129.5,59.5C 128.833,59.5 128.167,59.5 127.5,59.5C 127.241,57.0107 128.241,55.344 130.5,54.5 Z"/></g>
<g><path style="opacity:1" fill="#f9f5f5" d="M 118.5,59.5 C 121.5,59.5 124.5,59.5 127.5,59.5C 128.167,59.5 128.833,59.5 129.5,59.5C 128.766,60.7079 128.433,62.0413 128.5,63.5C 126.265,63.2053 124.265,63.5386 122.5,64.5C 121.5,64.5 120.5,64.5 119.5,64.5C 119.737,63.209 119.404,62.209 118.5,61.5C 118.5,61.1667 118.5,60.8333 118.5,60.5C 118.5,60.1667 118.5,59.8333 118.5,59.5 Z"/></g>
<g><path style="opacity:1" fill="#775f53" d="M 101.5,58.5 C 104.833,58.5 108.167,58.5 111.5,58.5C 113.607,59.4682 115.941,59.8016 118.5,59.5C 118.5,59.8333 118.5,60.1667 118.5,60.5C 113.489,60.3341 108.489,60.5007 103.5,61C 106.167,61.3333 108.833,61.6667 111.5,62C 105.165,62.5557 98.8318,63.0557 92.5,63.5C 94.5315,62.5218 96.1982,61.0218 97.5,59C 98.7932,58.51 100.127,58.3433 101.5,58.5 Z"/></g>
<g><path style="opacity:1" fill="#8e7467" d="M 71.5,61.5 C 73.8333,61.5 76.1667,61.5 78.5,61.5C 81.096,62.0549 83.4293,63.0549 85.5,64.5C 79.6226,64.617 73.9559,64.617 68.5,64.5C 69.3065,63.2719 70.3065,62.2719 71.5,61.5 Z"/></g>
<g><path style="opacity:1" fill="#7a5747" d="M 118.5,61.5 C 119.404,62.209 119.737,63.209 119.5,64.5C 120.5,64.5 121.5,64.5 122.5,64.5C 124.199,64.3398 125.866,64.5065 127.5,65C 126.284,67.9309 124.95,70.7642 123.5,73.5C 120.318,73.0517 117.651,71.7184 115.5,69.5C 116.217,66.6771 117.217,64.0104 118.5,61.5 Z"/></g>
<g><path style="opacity:1" fill="#ae989a" d="M 129.5,59.5 C 130.5,59.8333 131.167,60.5 131.5,61.5C 130.631,63.717 130.298,66.0504 130.5,68.5C 129.778,68.0825 129.278,67.4158 129,66.5C 128.667,69.1667 128.333,71.8333 128,74.5C 126.989,73.6634 125.822,73.33 124.5,73.5C 124.167,73.5 123.833,73.5 123.5,73.5C 124.95,70.7642 126.284,67.9309 127.5,65C 125.866,64.5065 124.199,64.3398 122.5,64.5C 124.265,63.5386 126.265,63.2053 128.5,63.5C 128.433,62.0413 128.766,60.7079 129.5,59.5 Z"/></g>
<g><path style="opacity:1" fill="#342320" d="M 118.5,60.5 C 118.5,60.8333 118.5,61.1667 118.5,61.5C 117.217,64.0104 116.217,66.6771 115.5,69.5C 115.5,69.8333 115.5,70.1667 115.5,70.5C 114.833,69.1667 114.167,67.8333 113.5,66.5C 113.167,66.5 112.833,66.5 112.5,66.5C 109.261,66.3804 105.927,66.0471 102.5,65.5C 100.739,66.0351 99.4057,67.0351 98.5,68.5C 97.5,68.5 96.5,68.5 95.5,68.5C 94.8283,71.9419 95.8283,74.6086 98.5,76.5C 101.054,77.388 103.721,77.7214 106.5,77.5C 103.713,78.4767 100.713,78.81 97.5,78.5C 95.4884,75.795 93.4884,73.1283 91.5,70.5C 91.5,69.5 91.5,68.5 91.5,67.5C 90.1667,67.5 88.8333,67.5 87.5,67.5C 86.0149,69.2488 85.0149,71.2488 84.5,73.5C 83.6182,71.9157 82.7848,70.249 82,68.5C 79.7997,67.978 77.7997,68.6446 76,70.5C 74.6349,70.1557 73.4682,69.4891 72.5,68.5C 71.5,69.8333 70.5,71.1667 69.5,72.5C 68.2717,70.1018 68.9384,68.2684 71.5,67C 66.2822,66.1156 63.6156,68.2823 63.5,73.5C 63.1667,73.5 62.8333,73.5 62.5,73.5C 61.2921,72.7659 59.9587,72.4326 58.5,72.5C 58.087,69.6798 59.087,67.6798 61.5,66.5C 63.8333,65.8333 66.1667,65.1667 68.5,64.5C 73.9559,64.617 79.6226,64.617 85.5,64.5C 87.9029,64.552 90.2362,64.2186 92.5,63.5C 98.8318,63.0557 105.165,62.5557 111.5,62C 108.833,61.6667 106.167,61.3333 103.5,61C 108.489,60.5007 113.489,60.3341 118.5,60.5 Z"/></g>
<g><path style="opacity:1" fill="#af7d6e" d="M 112.5,66.5 C 111.207,71.0784 108.207,72.5784 103.5,71C 106.177,70.7506 108.51,69.7506 110.5,68C 108.182,67.6577 106.015,68.1577 104,69.5C 102.301,68.5939 100.467,68.2606 98.5,68.5C 99.4057,67.0351 100.739,66.0351 102.5,65.5C 105.927,66.0471 109.261,66.3804 112.5,66.5 Z"/></g>
<g><path style="opacity:1" fill="#3a231c" d="M 134.5,61.5 C 133.402,62.6009 133.235,63.9343 134,65.5C 136.095,63.9501 138.262,63.6168 140.5,64.5C 139.332,66.2174 137.665,66.8841 135.5,66.5C 135.799,68.604 135.466,70.604 134.5,72.5C 133.833,72.1667 133.167,71.8333 132.5,71.5C 131.548,73.0453 131.215,74.712 131.5,76.5C 132.675,76.281 133.675,76.6143 134.5,77.5C 133.37,78.6223 132.703,79.9557 132.5,81.5C 131.833,80.5 131.167,79.5 130.5,78.5C 130.5,75.1667 130.5,71.8333 130.5,68.5C 130.298,66.0504 130.631,63.717 131.5,61.5C 132.652,60.375 133.652,60.375 134.5,61.5 Z"/></g>
<g><path style="opacity:1" fill="#d08e6c" d="M 142.5,63.5 C 143.769,67.732 143.103,71.732 140.5,75.5C 140.44,74.9569 140.107,74.6236 139.5,74.5C 138.667,75.5 137.833,76.5 137,77.5C 136.502,74.1832 136.335,70.8499 136.5,67.5C 139.878,68.1089 141.878,66.7756 142.5,63.5 Z"/></g>
<g><path style="opacity:1" fill="#ecbfab" d="M 112.5,66.5 C 112.833,66.5 113.167,66.5 113.5,66.5C 113.5,68.1667 113.5,69.8333 113.5,71.5C 110.03,72.2177 106.53,72.8844 103,73.5C 101.289,73.5607 99.956,72.8941 99,71.5C 97.3721,72.9617 97.2054,74.6283 98.5,76.5C 95.8283,74.6086 94.8283,71.9419 95.5,68.5C 96.5,68.5 97.5,68.5 98.5,68.5C 100.467,68.2606 102.301,68.5939 104,69.5C 106.015,68.1577 108.182,67.6577 110.5,68C 108.51,69.7506 106.177,70.7506 103.5,71C 108.207,72.5784 111.207,71.0784 112.5,66.5 Z"/></g>
<g><path style="opacity:1" fill="#ae7f6c" d="M 84.5,73.5 C 83.8333,74.1667 83.1667,74.8333 82.5,75.5C 82.6495,74.448 82.4828,73.448 82,72.5C 79.2739,74.9636 76.1072,75.7969 72.5,75C 74.5,74.3333 76.5,73.6667 78.5,73C 73.1209,71.698 68.7875,73.198 65.5,77.5C 64.8333,76.1667 64.1667,74.8333 63.5,73.5C 63.6156,68.2823 66.2822,66.1156 71.5,67C 68.9384,68.2684 68.2717,70.1018 69.5,72.5C 70.5,71.1667 71.5,69.8333 72.5,68.5C 73.4682,69.4891 74.6349,70.1557 76,70.5C 77.7997,68.6446 79.7997,67.978 82,68.5C 82.7848,70.249 83.6182,71.9157 84.5,73.5 Z"/></g>
<g><path style="opacity:1" fill="#f5e3d7" d="M 113.5,71.5 C 113.489,73.0174 112.823,74.1841 111.5,75C 109.685,75.7568 108.019,76.5902 106.5,77.5C 103.721,77.7214 101.054,77.388 98.5,76.5C 97.2054,74.6283 97.3721,72.9617 99,71.5C 99.956,72.8941 101.289,73.5607 103,73.5C 106.53,72.8844 110.03,72.2177 113.5,71.5 Z"/></g>
<g><path style="opacity:1" fill="#543229" d="M 84.5,73.5 C 84.4828,75.5648 84.1495,77.5648 83.5,79.5C 82.5,79.5 81.5,79.5 80.5,79.5C 81.6005,78.3951 82.2671,77.0618 82.5,75.5C 83.1667,74.8333 83.8333,74.1667 84.5,73.5 Z"/></g>
<g><path style="opacity:1" fill="#855440" d="M 135.5,60.5 C 138.636,59.9791 140.97,60.9791 142.5,63.5C 141.878,66.7756 139.878,68.1089 136.5,67.5C 136.335,70.8499 136.502,74.1832 137,77.5C 137.833,76.5 138.667,75.5 139.5,74.5C 140.107,74.6236 140.44,74.9569 140.5,75.5C 139.326,76.5137 138.66,77.847 138.5,79.5C 137.077,81.5449 135.077,82.5449 132.5,82.5C 132.5,82.1667 132.5,81.8333 132.5,81.5C 132.703,79.9557 133.37,78.6223 134.5,77.5C 133.675,76.6143 132.675,76.281 131.5,76.5C 131.215,74.712 131.548,73.0453 132.5,71.5C 133.167,71.8333 133.833,72.1667 134.5,72.5C 135.466,70.604 135.799,68.604 135.5,66.5C 137.665,66.8841 139.332,66.2174 140.5,64.5C 138.262,63.6168 136.095,63.9501 134,65.5C 133.235,63.9343 133.402,62.6009 134.5,61.5C 135.167,61.5 135.5,61.1667 135.5,60.5 Z"/></g>
<g><path style="opacity:1" fill="#694638" d="M 62.5,73.5 C 62.8333,73.5 63.1667,73.5 63.5,73.5C 64.1667,74.8333 64.8333,76.1667 65.5,77.5C 65.9528,78.4584 66.6195,79.2917 67.5,80C 71.8868,80.7062 76.2201,80.5396 80.5,79.5C 78.2414,81.7555 75.408,82.7555 72,82.5C 70.5,82.3333 69,82.1667 67.5,82C 66.2949,80.6244 64.9616,79.4577 63.5,78.5C 63.3713,76.7839 63.038,75.1172 62.5,73.5 Z"/></g>
<g><path style="opacity:1" fill="#f6dfd1" d="M 82.5,75.5 C 82.2671,77.0618 81.6005,78.3951 80.5,79.5C 76.2201,80.5396 71.8868,80.7062 67.5,80C 66.6195,79.2917 65.9528,78.4584 65.5,77.5C 68.7875,73.198 73.1209,71.698 78.5,73C 76.5,73.6667 74.5,74.3333 72.5,75C 76.1072,75.7969 79.2739,74.9636 82,72.5C 82.4828,73.448 82.6495,74.448 82.5,75.5 Z"/></g>
<g><path style="opacity:1" fill="#d4c6c8" d="M 130.5,68.5 C 130.5,71.8333 130.5,75.1667 130.5,78.5C 132.38,95.3427 131.213,95.676 127,79.5C 126.292,78.6195 125.458,77.9528 124.5,77.5C 124.5,76.1667 124.5,74.8333 124.5,73.5C 125.822,73.33 126.989,73.6634 128,74.5C 128.333,71.8333 128.667,69.1667 129,66.5C 129.278,67.4158 129.778,68.0825 130.5,68.5 Z"/></g>
<g><path style="opacity:1" fill="#fbe8db" d="M 87.5,67.5 C 88.8333,67.5 90.1667,67.5 91.5,67.5C 91.5,68.5 91.5,69.5 91.5,70.5C 91.5324,76.1886 91.8658,81.8552 92.5,87.5C 91.0813,88.4511 89.4147,88.7845 87.5,88.5C 87.6716,87.5084 87.3382,86.8417 86.5,86.5C 86.0881,80.235 86.4214,73.9017 87.5,67.5 Z"/></g>
<g><path style="opacity:1" fill="#f9d6c0" d="M 115.5,76.5 C 117.167,76.5 118.833,76.5 120.5,76.5C 120.5,77.5 120.5,78.5 120.5,79.5C 119.5,79.5 118.5,79.5 117.5,79.5C 118.084,82.285 117.084,83.9517 114.5,84.5C 106.45,81.21 106.784,78.5433 115.5,76.5 Z"/></g>
<g><path style="opacity:1" fill="#b77a5f" d="M 113.5,66.5 C 114.167,67.8333 114.833,69.1667 115.5,70.5C 115.703,72.3904 115.037,73.8904 113.5,75C 114.416,75.2784 115.082,75.7784 115.5,76.5C 106.784,78.5433 106.45,81.21 114.5,84.5C 115.999,85.494 117.666,85.494 119.5,84.5C 119.586,85.4959 119.252,86.3292 118.5,87C 119.967,88.0975 120.801,89.5975 121,91.5C 123.423,88.7939 124.59,89.4606 124.5,93.5C 124.421,97.2384 123.254,100.572 121,103.5C 120.802,101.618 120.302,99.9516 119.5,98.5C 119.82,95.1016 119.487,91.7683 118.5,88.5C 117.893,88.6236 117.56,88.9569 117.5,89.5C 115.926,89.0629 114.759,88.0629 114,86.5C 115.161,89.6959 114.327,92.0293 111.5,93.5C 110.082,91.6921 108.082,91.0254 105.5,91.5C 105.414,90.5041 105.748,89.6708 106.5,89C 108.134,88.5065 109.801,88.3398 111.5,88.5C 111.068,83.91 108.402,81.5767 103.5,81.5C 103.317,83.9363 103.984,86.103 105.5,88C 103.655,89.128 101.655,89.628 99.5,89.5C 100.66,88.735 101.66,87.735 102.5,86.5C 102.043,85.7025 101.376,85.3691 100.5,85.5C 101.916,82.2204 100.916,79.8871 97.5,78.5C 100.713,78.81 103.713,78.4767 106.5,77.5C 108.019,76.5902 109.685,75.7568 111.5,75C 112.823,74.1841 113.489,73.0174 113.5,71.5C 113.5,69.8333 113.5,68.1667 113.5,66.5 Z"/></g>
<g><path style="opacity:1" fill="#e2a27a" d="M 115.5,69.5 C 117.651,71.7184 120.318,73.0517 123.5,73.5C 123.833,73.5 124.167,73.5 124.5,73.5C 124.5,74.8333 124.5,76.1667 124.5,77.5C 123.662,77.8417 123.328,78.5084 123.5,79.5C 121.82,80.7822 120.487,82.4489 119.5,84.5C 117.666,85.494 115.999,85.494 114.5,84.5C 117.084,83.9517 118.084,82.285 117.5,79.5C 118.5,79.5 119.5,79.5 120.5,79.5C 120.5,78.5 120.5,77.5 120.5,76.5C 118.833,76.5 117.167,76.5 115.5,76.5C 115.082,75.7784 114.416,75.2784 113.5,75C 115.037,73.8904 115.703,72.3904 115.5,70.5C 115.5,70.1667 115.5,69.8333 115.5,69.5 Z"/></g>
<g><path style="opacity:1" fill="#f1bda8" d="M 91.5,70.5 C 93.4884,73.1283 95.4884,75.795 97.5,78.5C 100.916,79.8871 101.916,82.2204 100.5,85.5C 98.5,86.1667 96.5,86.8333 94.5,87.5C 93.8333,87.5 93.1667,87.5 92.5,87.5C 91.8658,81.8552 91.5324,76.1886 91.5,70.5 Z"/></g>
<g><path style="opacity:1" fill="#cdaea2" d="M 138.5,79.5 C 137.833,81.8333 137.167,84.1667 136.5,86.5C 134.167,86.1667 132.833,84.8333 132.5,82.5C 135.077,82.5449 137.077,81.5449 138.5,79.5 Z"/></g>
<g><path style="opacity:1" fill="#eab69f" d="M 63.5,78.5 C 64.9616,79.4577 66.2949,80.6244 67.5,82C 69,82.1667 70.5,82.3333 72,82.5C 75.408,82.7555 78.2414,81.7555 80.5,79.5C 81.5,79.5 82.5,79.5 83.5,79.5C 83.4606,80.5832 83.1272,81.5832 82.5,82.5C 79.0128,83.6475 77.0128,85.9808 76.5,89.5C 79.4107,87.5333 82.744,86.5333 86.5,86.5C 87.3382,86.8417 87.6716,87.5084 87.5,88.5C 82.5208,89.2456 82.8542,89.9122 88.5,90.5C 92.3034,92.9808 95.97,92.6475 99.5,89.5C 101.655,89.628 103.655,89.128 105.5,88C 103.984,86.103 103.317,83.9363 103.5,81.5C 108.402,81.5767 111.068,83.91 111.5,88.5C 109.801,88.3398 108.134,88.5065 106.5,89C 105.748,89.6708 105.414,90.5041 105.5,91.5C 102.274,92.4887 98.9404,93.4887 95.5,94.5C 90.8215,94.6658 86.1548,94.4992 81.5,94C 81.8333,93.6667 82.1667,93.3333 82.5,93C 80.4233,92.8078 78.4233,92.3078 76.5,91.5C 75.8728,90.5832 75.5394,89.5832 75.5,88.5C 75.631,87.7611 75.4643,87.0944 75,86.5C 73.2962,88.3734 71.4628,90.0401 69.5,91.5C 68.5,91.5 67.5,91.5 66.5,91.5C 66.5,92.8333 66.5,94.1667 66.5,95.5C 63.8908,90.2531 62.8908,84.5864 63.5,78.5 Z"/></g>
<g><path style="opacity:1" fill="#fde6da" d="M 65.5,83.5 C 68.8984,83.1796 72.2317,83.513 75.5,84.5C 73.0296,85.4781 70.8629,86.8114 69,88.5C 66.1538,87.562 64.9871,85.8953 65.5,83.5 Z"/></g>
<g><path style="opacity:1" fill="#fad3bf" d="M 87.5,67.5 C 86.4214,73.9017 86.0881,80.235 86.5,86.5C 82.744,86.5333 79.4107,87.5333 76.5,89.5C 77.0128,85.9808 79.0128,83.6475 82.5,82.5C 83.1272,81.5832 83.4606,80.5832 83.5,79.5C 84.1495,77.5648 84.4828,75.5648 84.5,73.5C 85.0149,71.2488 86.0149,69.2488 87.5,67.5 Z"/></g>
<g><path style="opacity:1" fill="#301610" d="M 100.5,85.5 C 101.376,85.3691 102.043,85.7025 102.5,86.5C 101.66,87.735 100.66,88.735 99.5,89.5C 95.8648,90.1143 92.1981,90.4476 88.5,90.5C 90.7512,89.9851 92.7512,88.9851 94.5,87.5C 96.5,86.8333 98.5,86.1667 100.5,85.5 Z"/></g>
<g><path style="opacity:1" fill="#73483b" d="M 92.5,87.5 C 93.1667,87.5 93.8333,87.5 94.5,87.5C 92.7512,88.9851 90.7512,89.9851 88.5,90.5C 82.8542,89.9122 82.5208,89.2456 87.5,88.5C 89.4147,88.7845 91.0813,88.4511 92.5,87.5 Z"/></g>
<g><path style="opacity:1" fill="#836965" d="M 124.5,77.5 C 125.458,77.9528 126.292,78.6195 127,79.5C 131.213,95.676 132.38,95.3427 130.5,78.5C 131.167,79.5 131.833,80.5 132.5,81.5C 132.5,81.8333 132.5,82.1667 132.5,82.5C 132.833,84.8333 134.167,86.1667 136.5,86.5C 136.672,87.4916 136.338,88.1583 135.5,88.5C 134.5,88.5 133.5,88.5 132.5,88.5C 132.334,94.5092 132.501,100.509 133,106.5C 133.383,107.056 133.883,107.389 134.5,107.5C 133.053,108.885 132.053,108.552 131.5,106.5C 130.786,100.902 129.452,95.5692 127.5,90.5C 127.833,87.5 126.5,86.1667 123.5,86.5C 123.5,84.1667 123.5,81.8333 123.5,79.5C 123.328,78.5084 123.662,77.8417 124.5,77.5 Z"/></g>
<g><path style="opacity:1" fill="#8e6f6a" d="M 99.5,89.5 C 95.97,92.6475 92.3034,92.9808 88.5,90.5C 92.1981,90.4476 95.8648,90.1143 99.5,89.5 Z"/></g>
<g><path style="opacity:1" fill="#794a34" d="M 75.5,88.5 C 74.6942,89.9972 74.0276,91.6639 73.5,93.5C 72.3112,94.4287 70.9778,94.762 69.5,94.5C 69.5,93.5 69.5,92.5 69.5,91.5C 71.4628,90.0401 73.2962,88.3734 75,86.5C 75.4643,87.0944 75.631,87.7611 75.5,88.5 Z"/></g>
<g><path style="opacity:1" fill="#cdbdbe" d="M 135.5,88.5 C 134.325,90.3838 133.658,92.5505 133.5,95C 133.3,97.8655 133.967,100.366 135.5,102.5C 135.5,104.167 135.5,105.833 135.5,107.5C 135.167,107.5 134.833,107.5 134.5,107.5C 133.883,107.389 133.383,107.056 133,106.5C 132.501,100.509 132.334,94.5092 132.5,88.5C 133.5,88.5 134.5,88.5 135.5,88.5 Z"/></g>
<g><path style="opacity:1" fill="#bf9078" d="M 75.5,88.5 C 75.5394,89.5832 75.8728,90.5832 76.5,91.5C 78.4233,92.3078 80.4233,92.8078 82.5,93C 82.1667,93.3333 81.8333,93.6667 81.5,94C 86.1548,94.4992 90.8215,94.6658 95.5,94.5C 95.5,94.8333 95.5,95.1667 95.5,95.5C 91.9359,96.4227 88.2693,96.756 84.5,96.5C 84.5,97.5 84.5,98.5 84.5,99.5C 83.8333,99.5 83.5,99.1667 83.5,98.5C 83.5,97.5 83.5,96.5 83.5,95.5C 81.5853,95.2155 79.9187,95.5489 78.5,96.5C 76.1305,96.1489 73.7972,95.9822 71.5,96C 69.9644,97.5994 69.4644,99.4328 70,101.5C 71.6196,103.241 73.1196,105.075 74.5,107C 75.4491,107.617 76.2825,107.451 77,106.5C 79.8211,113.659 84.8211,118.326 92,120.5C 95.4726,119.837 98.9726,119.504 102.5,119.5C 98.6404,121.021 94.6404,122.021 90.5,122.5C 88.8599,121.68 87.1932,120.847 85.5,120C 81.0968,115.318 76.5968,110.818 72,106.5C 69.0956,103.358 67.2622,99.6911 66.5,95.5C 66.5,94.1667 66.5,92.8333 66.5,91.5C 67.5,91.5 68.5,91.5 69.5,91.5C 69.5,92.5 69.5,93.5 69.5,94.5C 70.9778,94.762 72.3112,94.4287 73.5,93.5C 74.0276,91.6639 74.6942,89.9972 75.5,88.5 Z"/></g>
<g><path style="opacity:1" fill="#6a4035" d="M 105.5,91.5 C 108.082,91.0254 110.082,91.6921 111.5,93.5C 109.992,94.7464 108.492,96.0797 107,97.5C 106.517,96.552 106.351,95.552 106.5,94.5C 105.5,94.5 104.5,94.5 103.5,94.5C 100.904,95.2653 98.2372,95.5987 95.5,95.5C 95.5,95.1667 95.5,94.8333 95.5,94.5C 98.9404,93.4887 102.274,92.4887 105.5,91.5 Z"/></g>
<g><path style="opacity:1" fill="#efdcd2" d="M 103.5,94.5 C 103.5,95.5 103.5,96.5 103.5,97.5C 97.5983,98.4481 91.9317,99.1148 86.5,99.5C 85.8333,99.5 85.1667,99.5 84.5,99.5C 84.5,98.5 84.5,97.5 84.5,96.5C 88.2693,96.756 91.9359,96.4227 95.5,95.5C 98.2372,95.5987 100.904,95.2653 103.5,94.5 Z"/></g>
<g><path style="opacity:1" fill="#dd9981" d="M 117.5,89.5 C 115.887,92.1318 114.22,94.7984 112.5,97.5C 111.837,100.806 111.337,104.139 111,107.5C 109.534,109.325 107.701,109.825 105.5,109C 105.141,106.37 104.141,104.203 102.5,102.5C 102.414,101.504 102.748,100.671 103.5,100C 102.906,99.5357 102.239,99.369 101.5,99.5C 102.609,98.71 103.942,98.21 105.5,98C 104.906,97.5357 104.239,97.369 103.5,97.5C 103.5,96.5 103.5,95.5 103.5,94.5C 104.5,94.5 105.5,94.5 106.5,94.5C 106.351,95.552 106.517,96.552 107,97.5C 108.492,96.0797 109.992,94.7464 111.5,93.5C 114.327,92.0293 115.161,89.6959 114,86.5C 114.759,88.0629 115.926,89.0629 117.5,89.5 Z"/></g>
<g><path style="opacity:1" fill="#f7ccb4" d="M 119.5,98.5 C 118.772,101.079 118.272,103.746 118,106.5C 117.209,108.604 115.709,109.937 113.5,110.5C 112.873,111.417 112.539,112.417 112.5,113.5C 109.398,115.945 106.065,117.945 102.5,119.5C 98.9726,119.504 95.4726,119.837 92,120.5C 84.8211,118.326 79.8211,113.659 77,106.5C 76.2825,107.451 75.4491,107.617 74.5,107C 73.1196,105.075 71.6196,103.241 70,101.5C 69.4644,99.4328 69.9644,97.5994 71.5,96C 73.7972,95.9822 76.1305,96.1489 78.5,96.5C 79.1667,96.5 79.5,96.8333 79.5,97.5C 79.5,98.5 79.5,99.5 79.5,100.5C 85.7452,102.628 90.4119,106.628 93.5,112.5C 91.5245,113.749 91.1912,115.249 92.5,117C 96.2113,117.825 99.878,117.659 103.5,116.5C 103.931,115.707 104.265,114.873 104.5,114C 103.516,109.916 102.849,106.083 102.5,102.5C 104.141,104.203 105.141,106.37 105.5,109C 107.701,109.825 109.534,109.325 111,107.5C 111.337,104.139 111.837,100.806 112.5,97.5C 114.22,94.7984 115.887,92.1318 117.5,89.5C 117.56,88.9569 117.893,88.6236 118.5,88.5C 119.487,91.7683 119.82,95.1016 119.5,98.5 Z"/></g>
<g><path style="opacity:1" fill="#653b37" d="M 103.5,97.5 C 104.239,97.369 104.906,97.5357 105.5,98C 103.942,98.21 102.609,98.71 101.5,99.5C 96.3471,100.619 91.3471,100.619 86.5,99.5C 91.9317,99.1148 97.5983,98.4481 103.5,97.5 Z"/></g>
<g><path style="opacity:1" fill="#4f2d23" d="M 78.5,96.5 C 79.9187,95.5489 81.5853,95.2155 83.5,95.5C 83.5,96.5 83.5,97.5 83.5,98.5C 82.2921,97.7659 80.9587,97.4326 79.5,97.5C 79.5,96.8333 79.1667,96.5 78.5,96.5 Z"/></g>
<g><path style="opacity:1" fill="#f9d2c8" d="M 79.5,97.5 C 80.9587,97.4326 82.2921,97.7659 83.5,98.5C 83.5,99.1667 83.8333,99.5 84.5,99.5C 85.1667,99.5 85.8333,99.5 86.5,99.5C 91.3471,100.619 96.3471,100.619 101.5,99.5C 102.239,99.369 102.906,99.5357 103.5,100C 102.748,100.671 102.414,101.504 102.5,102.5C 102.849,106.083 103.516,109.916 104.5,114C 104.265,114.873 103.931,115.707 103.5,116.5C 99.878,117.659 96.2113,117.825 92.5,117C 91.1912,115.249 91.5245,113.749 93.5,112.5C 90.4119,106.628 85.7452,102.628 79.5,100.5C 79.5,99.5 79.5,98.5 79.5,97.5 Z"/></g>
<g><path style="opacity:1" fill="#422c22" d="M 127.5,90.5 C 129.452,95.5692 130.786,100.902 131.5,106.5C 129.817,107.853 128.484,109.52 127.5,111.5C 125.806,112.527 124.473,113.861 123.5,115.5C 123.481,112.341 124.648,109.674 127,107.5C 127.667,105.833 127.667,104.167 127,102.5C 124.925,106.579 122.092,110.079 118.5,113C 113.113,115.399 108.28,118.565 104,122.5C 101.536,123.161 99.036,123.661 96.5,124C 97.4158,124.278 98.0825,124.778 98.5,125.5C 97.5,125.5 96.5,125.5 95.5,125.5C 94.8333,125.5 94.1667,125.5 93.5,125.5C 93.1898,123.856 92.1898,122.856 90.5,122.5C 94.6404,122.021 98.6404,121.021 102.5,119.5C 106.065,117.945 109.398,115.945 112.5,113.5C 114.189,112.069 116.189,111.236 118.5,111C 122.923,105.242 125.423,98.7422 126,91.5C 126.383,90.944 126.883,90.6107 127.5,90.5 Z"/></g>
<g><path style="opacity:1" fill="#774d34" d="M 123.5,79.5 C 123.5,81.8333 123.5,84.1667 123.5,86.5C 126.5,86.1667 127.833,87.5 127.5,90.5C 126.883,90.6107 126.383,90.944 126,91.5C 125.423,98.7422 122.923,105.242 118.5,111C 116.189,111.236 114.189,112.069 112.5,113.5C 112.539,112.417 112.873,111.417 113.5,110.5C 115.709,109.937 117.209,108.604 118,106.5C 118.272,103.746 118.772,101.079 119.5,98.5C 120.302,99.9516 120.802,101.618 121,103.5C 123.254,100.572 124.421,97.2384 124.5,93.5C 124.59,89.4606 123.423,88.7939 121,91.5C 120.801,89.5975 119.967,88.0975 118.5,87C 119.252,86.3292 119.586,85.4959 119.5,84.5C 120.487,82.4489 121.82,80.7822 123.5,79.5 Z"/></g>
<g><path style="opacity:1" fill="#bf7d56" d="M 127.5,111.5 C 129.167,111.5 130.833,111.5 132.5,111.5C 134.052,112.929 135.052,115.929 135.5,120.5C 135.5,121.167 135.167,121.5 134.5,121.5C 134.591,119.302 133.925,118.969 132.5,120.5C 132.294,118.451 131.461,118.117 130,119.5C 129.751,118.376 129.251,117.376 128.5,116.5C 125.943,119.361 122.943,121.694 119.5,123.5C 120.167,121.833 120.833,120.167 121.5,118.5C 122.167,117.5 122.833,116.5 123.5,115.5C 124.473,113.861 125.806,112.527 127.5,111.5 Z"/></g>
<g><path style="opacity:1" fill="#6a4834" d="M 131.5,106.5 C 132.053,108.552 133.053,108.885 134.5,107.5C 134.833,107.5 135.167,107.5 135.5,107.5C 135.5,108.833 135.5,110.167 135.5,111.5C 136.5,111.5 137.5,111.5 138.5,111.5C 137.833,114.5 137.167,117.5 136.5,120.5C 136.167,120.5 135.833,120.5 135.5,120.5C 135.052,115.929 134.052,112.929 132.5,111.5C 130.833,111.5 129.167,111.5 127.5,111.5C 128.484,109.52 129.817,107.853 131.5,106.5 Z"/></g>
<g><path style="opacity:1" fill="#1c1d2b" d="M 152.5,110.5 C 167.731,117.022 183.398,122.355 199.5,126.5C 199.5,129.833 199.5,133.167 199.5,136.5C 197.278,136.822 195.444,136.155 194,134.5C 192.237,135.944 190.237,136.944 188,137.5C 185.333,136.167 182.667,136.167 180,137.5C 179.313,134.574 177.48,133.241 174.5,133.5C 173.357,138.471 170.19,141.137 165,141.5C 163.28,140.277 161.447,139.277 159.5,138.5C 156.998,139.766 154.664,139.432 152.5,137.5C 153.391,136.41 154.391,136.41 155.5,137.5C 156.5,137.167 157.167,136.5 157.5,135.5C 152.133,131.795 147.466,127.462 143.5,122.5C 142.716,116.72 142.883,111.054 144,105.5C 145.848,107.018 147.348,108.851 148.5,111C 149.928,111.579 151.262,111.412 152.5,110.5 Z"/></g>
<g><path style="opacity:1" fill="#1d110b" d="M 123.5,115.5 C 122.833,116.5 122.167,117.5 121.5,118.5C 119.027,121.804 116.027,124.638 112.5,127C 110.153,127.436 107.819,127.936 105.5,128.5C 102.708,128.239 100.375,127.239 98.5,125.5C 98.0825,124.778 97.4158,124.278 96.5,124C 99.036,123.661 101.536,123.161 104,122.5C 108.28,118.565 113.113,115.399 118.5,113C 122.092,110.079 124.925,106.579 127,102.5C 127.667,104.167 127.667,105.833 127,107.5C 124.648,109.674 123.481,112.341 123.5,115.5 Z"/></g>
<g><path style="opacity:1" fill="#6e462e" d="M 121.5,118.5 C 120.833,120.167 120.167,121.833 119.5,123.5C 117.521,124.812 115.855,126.479 114.5,128.5C 108.814,131.086 103.147,130.919 97.5,128C 96.244,127.583 95.5774,126.75 95.5,125.5C 96.5,125.5 97.5,125.5 98.5,125.5C 100.375,127.239 102.708,128.239 105.5,128.5C 107.819,127.936 110.153,127.436 112.5,127C 116.027,124.638 119.027,121.804 121.5,118.5 Z"/></g>
<g><path style="opacity:1" fill="#eec0a1" d="M 134.5,121.5 C 133.772,123.735 132.439,125.568 130.5,127C 125.369,130.899 119.702,133.732 113.5,135.5C 112.167,135.167 112.167,134.833 113.5,134.5C 119.949,129.678 126.283,125.011 132.5,120.5C 133.925,118.969 134.591,119.302 134.5,121.5 Z"/></g>
<g><path style="opacity:1" fill="#a2826e" d="M 90.5,122.5 C 92.1898,122.856 93.1898,123.856 93.5,125.5C 93.2217,130.339 93.8884,135.006 95.5,139.5C 94.2101,138.942 93.3768,137.942 93,136.5C 92.433,133.832 91.933,131.166 91.5,128.5C 91.5,127.833 91.1667,127.5 90.5,127.5C 90.5,125.833 90.5,124.167 90.5,122.5 Z"/></g>
<g><path style="opacity:1" fill="#e39e71" d="M 132.5,120.5 C 126.283,125.011 119.949,129.678 113.5,134.5C 113.082,133.778 112.416,133.278 111.5,133C 116.162,131.505 118.828,128.339 119.5,123.5C 122.943,121.694 125.943,119.361 128.5,116.5C 129.251,117.376 129.751,118.376 130,119.5C 131.461,118.117 132.294,118.451 132.5,120.5 Z"/></g>
<g><path style="opacity:1" fill="#cb8e68" d="M 119.5,123.5 C 118.828,128.339 116.162,131.505 111.5,133C 112.416,133.278 113.082,133.778 113.5,134.5C 112.167,134.833 112.167,135.167 113.5,135.5C 109.648,137.057 105.648,138.557 101.5,140C 99.4024,140.678 97.4024,140.511 95.5,139.5C 93.8884,135.006 93.2217,130.339 93.5,125.5C 94.1667,125.5 94.8333,125.5 95.5,125.5C 95.5774,126.75 96.244,127.583 97.5,128C 103.147,130.919 108.814,131.086 114.5,128.5C 115.855,126.479 117.521,124.812 119.5,123.5 Z"/></g>
<g><path style="opacity:1" fill="#110f12" d="M 135.5,120.5 C 135.833,120.5 136.167,120.5 136.5,120.5C 136.762,121.978 136.429,123.311 135.5,124.5C 131.234,127.148 130.067,129.814 132,132.5C 130.155,133.05 128.655,134.05 127.5,135.5C 130.003,136.028 132.169,135.028 134,132.5C 135.872,133.824 136.705,135.324 136.5,137C 135.5,137.333 134.5,137.667 133.5,138C 134.938,138.219 136.271,138.719 137.5,139.5C 134.773,141.362 131.44,142.696 127.5,143.5C 127.649,144.552 127.483,145.552 127,146.5C 126.346,145.304 125.846,145.304 125.5,146.5C 126.025,147.192 126.692,147.692 127.5,148C 121.826,147.893 116.659,149.393 112,152.5C 106.538,151.736 101.038,151.236 95.5,151C 96.6539,146.974 94.9872,145.141 90.5,145.5C 90.719,144.325 90.3857,143.325 89.5,142.5C 86.5446,146.637 84.2113,151.137 82.5,156C 82.7355,156.873 83.0688,157.707 83.5,158.5C 80.4157,172.005 78.0824,185.672 76.5,199.5C 74.8333,199.5 73.1667,199.5 71.5,199.5C 72.3241,182.206 75.8241,165.539 82,149.5C 85.9834,142.741 89.1501,135.741 91.5,128.5C 91.933,131.166 92.433,133.832 93,136.5C 93.3768,137.942 94.2101,138.942 95.5,139.5C 97.4024,140.511 99.4024,140.678 101.5,140C 105.648,138.557 109.648,137.057 113.5,135.5C 119.702,133.732 125.369,130.899 130.5,127C 132.439,125.568 133.772,123.735 134.5,121.5C 135.167,121.5 135.5,121.167 135.5,120.5 Z"/></g>
<g><path style="opacity:1" fill="#282a3c" d="M 143.5,122.5 C 147.466,127.462 152.133,131.795 157.5,135.5C 157.167,136.5 156.5,137.167 155.5,137.5C 154.391,136.41 153.391,136.41 152.5,137.5C 154.664,139.432 156.998,139.766 159.5,138.5C 161.447,139.277 163.28,140.277 165,141.5C 170.19,141.137 173.357,138.471 174.5,133.5C 177.48,133.241 179.313,134.574 180,137.5C 182.667,136.167 185.333,136.167 188,137.5C 190.237,136.944 192.237,135.944 194,134.5C 195.444,136.155 197.278,136.822 199.5,136.5C 199.5,146.5 199.5,156.5 199.5,166.5C 198.616,169.023 197.782,171.69 197,174.5C 196.667,173.833 196.333,173.167 196,172.5C 193.403,173.273 190.903,174.273 188.5,175.5C 188.5,174.5 188.5,173.5 188.5,172.5C 188.228,166.286 188.562,160.119 189.5,154C 188.116,151.688 186.116,150.188 183.5,149.5C 182.668,159.817 182.168,170.151 182,180.5C 181.667,180.167 181.333,179.833 181,179.5C 180.887,175.451 179.72,171.785 177.5,168.5C 178.799,165.301 178.799,162.135 177.5,159C 178.994,155.225 179.327,151.392 178.5,147.5C 178.079,151.255 176.079,153.588 172.5,154.5C 173.575,159.434 174.242,164.434 174.5,169.5C 173.503,169.53 172.836,169.03 172.5,168C 173.187,166.838 173.353,165.672 173,164.5C 171.585,167.958 171.085,171.625 171.5,175.5C 170.178,175.67 169.011,175.337 168,174.5C 167.517,175.448 167.351,176.448 167.5,177.5C 166.167,177.5 164.833,177.5 163.5,177.5C 165.641,166.631 167.974,155.798 170.5,145C 170.138,143.775 169.638,142.609 169,141.5C 168.552,143.224 167.718,143.891 166.5,143.5C 166.709,144.086 167.043,144.586 167.5,145C 166.256,145.456 165.423,144.956 165,143.5C 164.667,144.5 164.333,145.5 164,146.5C 162.915,142.037 160.081,140.204 155.5,141C 159.223,141.434 159.39,142.268 156,143.5C 153.393,142.21 152.06,143.21 152,146.5C 151.751,145.376 151.251,144.376 150.5,143.5C 148.882,145.316 146.882,146.649 144.5,147.5C 144.402,150.174 144.735,153.007 145.5,156C 144.959,159.828 144.459,163.661 144,167.5C 143.667,167.167 143.333,166.833 143,166.5C 141.803,169.089 140.803,171.756 140,174.5C 139.397,171.344 139.897,168.344 141.5,165.5C 140.561,161.235 140.228,156.902 140.5,152.5C 139.5,152.5 138.5,152.5 137.5,152.5C 137.59,155.152 136.924,157.485 135.5,159.5C 135.429,155.303 135.763,151.137 136.5,147C 138.576,138.608 140.91,130.441 143.5,122.5 Z"/></g>
<g><path style="opacity:1" fill="#303247" d="M 174.5,169.5 C 177.271,174.954 179.604,180.62 181.5,186.5C 176.294,188.867 171.461,191.867 167,195.5C 166.586,195.043 166.086,194.709 165.5,194.5C 164.738,195.628 164.071,196.795 163.5,198C 164.549,198.492 165.549,198.326 166.5,197.5C 167.463,197.97 167.463,198.637 166.5,199.5C 154.167,199.5 141.833,199.5 129.5,199.5C 129.262,185.29 131.262,171.956 135.5,159.5C 136.924,157.485 137.59,155.152 137.5,152.5C 138.5,152.5 139.5,152.5 140.5,152.5C 140.228,156.902 140.561,161.235 141.5,165.5C 139.897,168.344 139.397,171.344 140,174.5C 140.803,171.756 141.803,169.089 143,166.5C 143.333,166.833 143.667,167.167 144,167.5C 144.459,163.661 144.959,159.828 145.5,156C 144.735,153.007 144.402,150.174 144.5,147.5C 146.882,146.649 148.882,145.316 150.5,143.5C 151.251,144.376 151.751,145.376 152,146.5C 152.06,143.21 153.393,142.21 156,143.5C 159.39,142.268 159.223,141.434 155.5,141C 160.081,140.204 162.915,142.037 164,146.5C 164.333,145.5 164.667,144.5 165,143.5C 165.423,144.956 166.256,145.456 167.5,145C 167.043,144.586 166.709,144.086 166.5,143.5C 167.718,143.891 168.552,143.224 169,141.5C 169.638,142.609 170.138,143.775 170.5,145C 167.974,155.798 165.641,166.631 163.5,177.5C 164.833,177.5 166.167,177.5 167.5,177.5C 167.351,176.448 167.517,175.448 168,174.5C 169.011,175.337 170.178,175.67 171.5,175.5C 171.085,171.625 171.585,167.958 173,164.5C 173.353,165.672 173.187,166.838 172.5,168C 172.836,169.03 173.503,169.53 174.5,169.5 Z"/></g>
<g><path style="opacity:1" fill="#1d1f2e" d="M 188.5,172.5 C 187.543,166.998 186.71,161.331 186,155.5C 185.692,154.692 185.192,154.025 184.5,153.5C 184.167,155.667 183.833,157.833 183.5,160C 184.27,173.196 185.27,186.363 186.5,199.5C 179.833,199.5 173.167,199.5 166.5,199.5C 167.463,198.637 167.463,197.97 166.5,197.5C 165.549,198.326 164.549,198.492 163.5,198C 164.071,196.795 164.738,195.628 165.5,194.5C 166.086,194.709 166.586,195.043 167,195.5C 171.461,191.867 176.294,188.867 181.5,186.5C 179.604,180.62 177.271,174.954 174.5,169.5C 174.242,164.434 173.575,159.434 172.5,154.5C 176.079,153.588 178.079,151.255 178.5,147.5C 179.327,151.392 178.994,155.225 177.5,159C 178.799,162.135 178.799,165.301 177.5,168.5C 179.72,171.785 180.887,175.451 181,179.5C 181.333,179.833 181.667,180.167 182,180.5C 182.168,170.151 182.668,159.817 183.5,149.5C 186.116,150.188 188.116,151.688 189.5,154C 188.562,160.119 188.228,166.286 188.5,172.5 Z"/></g>
<g><path style="opacity:1" fill="#232636" d="M 90.5,127.5 C 91.1667,127.5 91.5,127.833 91.5,128.5C 89.1501,135.741 85.9834,142.741 82,149.5C 75.8241,165.539 72.3241,182.206 71.5,199.5C 68.1667,199.5 64.8333,199.5 61.5,199.5C 61.3819,189.793 60.7153,180.126 59.5,170.5C 59.1335,159.399 63.4668,150.566 72.5,144C 79.9739,140.023 85.9739,134.523 90.5,127.5 Z"/></g>
<g><path style="opacity:1" fill="#1a1b29" d="M 199.5,166.5 C 199.5,177.5 199.5,188.5 199.5,199.5C 197.5,199.5 195.5,199.5 193.5,199.5C 193.5,196.833 193.5,194.167 193.5,191.5C 191.876,191.64 190.71,190.973 190,189.5C 189.719,184.785 189.219,180.118 188.5,175.5C 190.903,174.273 193.403,173.273 196,172.5C 196.333,173.167 196.667,173.833 197,174.5C 197.782,171.69 198.616,169.023 199.5,166.5 Z"/></g>
<g><path style="opacity:1" fill="#090b13" d="M 188.5,172.5 C 188.5,173.5 188.5,174.5 188.5,175.5C 189.219,180.118 189.719,184.785 190,189.5C 190.71,190.973 191.876,191.64 193.5,191.5C 193.5,194.167 193.5,196.833 193.5,199.5C 191.167,199.5 188.833,199.5 186.5,199.5C 185.27,186.363 184.27,173.196 183.5,160C 183.833,157.833 184.167,155.667 184.5,153.5C 185.192,154.025 185.692,154.692 186,155.5C 186.71,161.331 187.543,166.998 188.5,172.5 Z"/></g>
<g><path style="opacity:1" fill="#1a191e" d="M 135.5,102.5 C 137.857,102.337 140.19,102.503 142.5,103C 145.734,105.748 149.068,108.248 152.5,110.5C 151.262,111.412 149.928,111.579 148.5,111C 147.348,108.851 145.848,107.018 144,105.5C 142.883,111.054 142.716,116.72 143.5,122.5C 140.91,130.441 138.576,138.608 136.5,147C 135.763,151.137 135.429,155.303 135.5,159.5C 131.262,171.956 129.262,185.29 129.5,199.5C 111.833,199.5 94.1667,199.5 76.5,199.5C 78.0824,185.672 80.4157,172.005 83.5,158.5C 83.0688,157.707 82.7355,156.873 82.5,156C 84.2113,151.137 86.5446,146.637 89.5,142.5C 90.3857,143.325 90.719,144.325 90.5,145.5C 94.9872,145.141 96.6539,146.974 95.5,151C 101.038,151.236 106.538,151.736 112,152.5C 116.659,149.393 121.826,147.893 127.5,148C 126.692,147.692 126.025,147.192 125.5,146.5C 125.846,145.304 126.346,145.304 127,146.5C 127.483,145.552 127.649,144.552 127.5,143.5C 131.44,142.696 134.773,141.362 137.5,139.5C 136.271,138.719 134.938,138.219 133.5,138C 134.5,137.667 135.5,137.333 136.5,137C 136.705,135.324 135.872,133.824 134,132.5C 132.169,135.028 130.003,136.028 127.5,135.5C 128.655,134.05 130.155,133.05 132,132.5C 130.067,129.814 131.234,127.148 135.5,124.5C 136.429,123.311 136.762,121.978 136.5,120.5C 137.167,117.5 137.833,114.5 138.5,111.5C 137.5,111.5 136.5,111.5 135.5,111.5C 135.5,110.167 135.5,108.833 135.5,107.5C 135.5,105.833 135.5,104.167 135.5,102.5 Z"/></g>
</svg>
