<?xml version="1.0" standalone="no"?>
<!DOCTYPE svg PUBLIC "-//W3C//DTD SVG 20010904//EN"
 "http://www.w3.org/TR/2001/REC-SVG-20010904/DTD/svg10.dtd">
<svg version="1.0" xmlns="http://www.w3.org/2000/svg"
 width="803.000000pt" height="909.000000pt" viewBox="0 0 803.000000 909.000000"
 preserveAspectRatio="xMidYMid meet">

<g transform="translate(0.000000,909.000000) scale(0.100000,-0.100000)"
fill="#000000" stroke="none">
<path d="M2 4543 c2 -2502 4 -4369 5 -4150 l3 397 955 0 955 0 0 80 0 80 -480
0 -480 0 0 240 0 240 -80 0 -80 0 0 -240 0 -240 -395 0 -395 0 0 80 0 80 315
0 315 0 0 80 0 80 -315 0 -315 0 0 565 0 565 155 0 155 0 0 240 0 240 -80 0
-80 0 0 -160 0 -160 -75 0 -75 0 0 405 0 405 155 0 155 0 0 240 0 240 -80 0
-80 0 0 -160 0 -160 -75 0 -75 0 0 405 0 405 235 0 235 0 0 -80 0 -80 81 0 81
0 -4 80 -3 80 163 0 162 0 0 75 0 75 -475 0 -475 0 0 1215 0 1215 635 0 635 0
0 240 0 240 -240 0 -240 0 0 -80 0 -80 160 0 160 0 0 -80 0 -80 -400 0 -400 0
0 160 0 160 -80 0 -80 0 0 -160 0 -160 -75 0 -75 0 0 245 0 245 955 0 955 0 0
560 0 560 -955 0 -955 0 0 185 0 185 4010 0 c3558 0 4010 2 4010 15 0 13 -453
15 -4015 15 l-4015 0 2 -4547z"/>
<path d="M253 9013 c22 -6 23 -43 0 -43 -9 0 -14 -3 -10 -6 3 -3 15 -3 26 1
38 12 19 58 -22 54 -7 -1 -4 -3 6 -6z"/>
<path d="M413 8975 c0 -27 2 -37 4 -22 3 20 9 27 19 23 8 -3 14 -1 14 4 0 6
-6 10 -14 10 -8 0 -17 8 -19 18 -3 9 -5 -5 -4 -33z"/>
<path d="M518 9013 c6 -2 18 -2 25 0 6 3 1 5 -13 5 -14 0 -19 -2 -12 -5z"/>
<path d="M712 9009 c-1 -9 -13 -20 -27 -23 -34 -9 -34 -43 0 -52 34 -8 37 -4
32 47 -2 24 -4 37 -5 28z m-2 -49 c0 -11 -7 -20 -15 -20 -8 0 -15 9 -15 20 0
11 7 20 15 20 8 0 15 -9 15 -20z"/>
<path d="M930 9001 c0 -12 5 -21 10 -21 6 0 10 6 10 14 0 8 -4 18 -10 21 -5 3
-10 -3 -10 -14z"/>
<path d="M1223 8975 c0 -27 2 -38 4 -22 2 15 2 37 0 50 -2 12 -4 0 -4 -28z"/>
<path d="M362 8973 c4 -45 24 -55 21 -11 -2 48 -2 48 -14 48 -6 0 -9 -16 -7
-37z"/>
<path d="M315 8982 c6 -4 11 -16 12 -27 1 -11 0 -14 -3 -7 -8 17 -24 15 -24
-3 0 -9 9 -15 25 -15 21 0 25 5 25 30 0 24 -4 30 -22 30 -13 0 -18 -4 -13 -8z"/>
<path d="M600 8980 c0 -7 7 -10 15 -6 11 4 15 -1 15 -19 0 -14 5 -25 11 -25 6
0 9 12 7 28 -2 19 -9 28 -25 30 -13 2 -23 -2 -23 -8z"/>
<path d="M742 8960 c0 -19 2 -27 5 -17 2 9 2 25 0 35 -3 9 -5 1 -5 -18z"/>
<path d="M771 8958 c2 -32 2 -32 6 -5 3 20 9 27 19 23 8 -3 14 -1 14 4 0 6 -9
10 -20 10 -16 0 -20 -6 -19 -32z"/>
<path d="M840 8980 c0 -5 7 -7 15 -4 10 4 15 0 15 -14 0 -11 -8 -23 -17 -25
-17 -4 -17 -5 0 -6 22 -1 23 -21 0 -21 -9 0 -14 -3 -10 -6 3 -3 15 -3 26 1 17
5 21 15 21 46 0 35 -3 39 -25 39 -14 0 -25 -4 -25 -10z"/>
<path d="M1012 8960 c0 -19 2 -27 5 -17 2 9 2 25 0 35 -3 9 -5 1 -5 -18z"/>
<path d="M1048 8983 c7 -3 16 -2 19 1 4 3 -2 6 -13 5 -11 0 -14 -3 -6 -6z"/>
<path d="M1080 8966 c0 -23 16 -36 46 -36 9 0 14 10 13 33 -2 30 -2 30 -6 5
-5 -35 -33 -37 -33 -3 0 14 -4 25 -10 25 -5 0 -10 -11 -10 -24z"/>
<path d="M1175 8981 c17 -8 18 -10 3 -10 -10 -1 -18 -5 -18 -10 0 -5 9 -7 20
-4 25 7 21 27 -6 30 -18 3 -18 2 1 -6z"/>
<path d="M1252 8960 c0 -19 2 -27 5 -17 2 9 2 25 0 35 -3 9 -5 1 -5 -18z"/>
<path d="M1285 8980 c3 -5 10 -10 16 -10 5 0 9 5 9 10 0 6 -7 10 -16 10 -8 0
-12 -4 -9 -10z"/>
<path d="M1333 8983 c-21 -8 -15 -41 8 -48 11 -4 23 -4 26 -1 4 3 -1 6 -10 6
-23 0 -22 20 1 21 14 0 14 2 -3 8 l-20 8 20 5 c11 3 13 6 5 6 -8 0 -21 -2 -27
-5z"/>
<path d="M1380 8960 c0 -16 4 -30 9 -30 5 0 11 14 13 30 3 20 0 30 -9 30 -8 0
-13 -12 -13 -30z"/>
<path d="M518 8973 c7 -3 16 -2 19 1 4 3 -2 6 -13 5 -11 0 -14 -3 -6 -6z"/>
<path d="M957 8963 c-4 -3 -7 -13 -7 -21 0 -12 3 -12 15 -2 8 7 15 16 15 21 0
11 -14 12 -23 2z"/>
<path d="M1047 8959 c7 -7 15 -10 18 -7 3 3 -2 9 -12 12 -14 6 -15 5 -6 -5z"/>
<path d="M110 8941 c0 -15 6 -21 21 -21 25 0 22 33 -4 38 -12 2 -17 -3 -17
-17z"/>
<path d="M1175 8940 c-16 -7 -17 -9 -3 -9 9 -1 20 4 23 9 7 11 7 11 -20 0z"/>
<path d="M1275 8940 c-4 -6 3 -10 14 -10 25 0 27 6 6 13 -8 4 -17 2 -20 -3z"/>
<path d="M1048 8933 c7 -3 16 -2 19 1 4 3 -2 6 -13 5 -11 0 -14 -3 -6 -6z"/>
<path d="M160 8775 l0 -75 880 0 880 0 0 75 0 75 -880 0 -880 0 0 -75z"/>
<path d="M1930 8775 l0 -75 235 0 235 0 0 75 0 75 -235 0 -235 0 0 -75z"/>
<path d="M2410 8775 l0 -75 235 0 235 0 0 75 0 75 -235 0 -235 0 0 -75z"/>
<path d="M2890 8775 l0 -75 235 0 235 0 0 75 0 75 -235 0 -235 0 0 -75z"/>
<path d="M3370 8775 l0 -75 235 0 235 0 0 75 0 75 -235 0 -235 0 0 -75z"/>
<path d="M3850 8775 l0 -75 75 0 75 0 0 75 0 75 -75 0 -75 0 0 -75z"/>
<path d="M4010 8775 l0 -75 155 0 155 0 0 75 0 75 -155 0 -155 0 0 -75z"/>
<path d="M4330 8775 l0 -75 235 0 235 0 0 75 0 75 -235 0 -235 0 0 -75z"/>
<path d="M4810 8775 l0 -75 235 0 235 0 0 75 0 75 -235 0 -235 0 0 -75z"/>
<path d="M5290 8775 l0 -75 235 0 235 0 0 75 0 75 -235 0 -235 0 0 -75z"/>
<path d="M5770 8775 l0 -75 235 0 235 0 0 75 0 75 -235 0 -235 0 0 -75z"/>
<path d="M6250 8775 l0 -75 155 0 155 0 0 75 0 75 -155 0 -155 0 0 -75z"/>
<path d="M6570 8775 l0 -75 235 0 235 0 0 75 0 75 -235 0 -235 0 0 -75z"/>
<path d="M7050 8775 l0 -75 235 0 235 0 0 75 0 75 -235 0 -235 0 0 -75z"/>
<path d="M7530 8775 l0 -75 235 0 235 0 0 75 0 75 -235 0 -235 0 0 -75z"/>
<path d="M1930 8130 l0 -560 235 0 235 0 0 560 0 560 -235 0 -235 0 0 -560z"/>
<path d="M2410 8130 l0 -560 235 0 235 0 0 560 0 560 -235 0 -235 0 0 -560z"/>
<path d="M2890 8130 l0 -560 155 0 155 0 0 160 0 160 80 0 80 0 0 400 0 400
-235 0 -235 0 0 -560z"/>
<path d="M3370 8130 l0 -560 235 0 235 0 0 560 0 560 -235 0 -235 0 0 -560z"/>
<path d="M3850 8130 l0 -560 75 0 75 0 0 560 0 560 -75 0 -75 0 0 -560z"/>
<path d="M4010 8130 l0 -560 155 0 155 0 0 560 0 560 -155 0 -155 0 0 -560z"/>
<path d="M4330 8130 l0 -560 80 0 80 0 0 160 0 160 155 0 155 0 0 400 0 400
-235 0 -235 0 0 -560z"/>
<path d="M4810 8450 l0 -240 235 0 235 0 0 240 0 240 -235 0 -235 0 0 -240z"/>
<path d="M5290 8290 l0 -400 155 0 155 0 0 -160 0 -160 80 0 80 0 0 560 0 560
-235 0 -235 0 0 -400z"/>
<path d="M5770 8130 l0 -560 235 0 235 0 0 560 0 560 -235 0 -235 0 0 -560z"/>
<path d="M6250 8130 l0 -560 155 0 155 0 0 560 0 560 -155 0 -155 0 0 -560z"/>
<path d="M6570 8130 l0 -560 235 0 235 0 0 560 0 560 -235 0 -235 0 0 -560z"/>
<path d="M7050 8130 l0 -560 235 0 235 0 0 560 0 560 -235 0 -235 0 0 -560z"/>
<path d="M7530 8130 l0 -560 235 0 235 0 0 560 0 560 -235 0 -235 0 0 -560z"/>
<path d="M4810 7965 l0 -75 155 0 155 0 0 75 0 75 -155 0 -155 0 0 -75z"/>
<path d="M4640 7645 l0 -75 80 0 80 0 0 75 0 75 -80 0 -80 0 0 -75z"/>
<path d="M4810 7645 l0 -75 235 0 235 0 0 75 0 75 -235 0 -235 0 0 -75z"/>
<path d="M5290 7645 l0 -75 80 0 80 0 0 75 0 75 -80 0 -80 0 0 -75z"/>
<path d="M480 7400 l0 -160 80 0 80 0 0 160 0 160 -80 0 -80 0 0 -160z"/>
<path d="M1440 7400 l0 -160 160 0 160 0 0 -160 0 -160 80 0 80 0 0 320 0 320
-240 0 -240 0 0 -160z"/>
<path d="M1930 7400 l0 -160 235 0 235 0 0 160 0 160 -235 0 -235 0 0 -160z"/>
<path d="M2410 7400 l0 -160 235 0 235 0 0 160 0 160 -235 0 -235 0 0 -160z"/>
<path d="M2890 7400 l0 -160 78 0 77 0 -3 -160 -3 -160 161 0 160 0 0 80 0 80
-80 0 -80 0 0 240 0 240 -155 0 -155 0 0 -160z"/>
<path d="M3370 7400 l0 -160 75 0 75 0 0 160 0 160 -75 0 -75 0 0 -160z"/>
<path d="M4640 7320 l0 -240 -155 0 -155 0 0 -80 0 -80 235 0 235 0 0 320 0
320 -80 0 -80 0 0 -240z"/>
<path d="M5600 7400 l0 -160 80 0 80 0 0 160 0 160 -80 0 -80 0 0 -160z"/>
<path d="M5770 7400 l0 -160 235 0 235 0 0 160 0 160 -235 0 -235 0 0 -160z"/>
<path d="M6250 7400 l0 -160 155 0 155 0 0 160 0 160 -155 0 -155 0 0 -160z"/>
<path d="M6570 7400 l0 -160 235 0 235 0 0 160 0 160 -235 0 -235 0 0 -160z"/>
<path d="M7050 7400 l0 -160 80 0 80 0 0 -160 0 -160 80 0 80 0 0 320 0 320
-160 0 -160 0 0 -160z"/>
<path d="M7530 7240 l0 -320 235 0 235 0 0 320 0 320 -235 0 -235 0 0 -320z"/>
<path d="M3680 7320 l0 -80 80 0 80 0 0 80 0 80 -80 0 -80 0 0 -80z"/>
<path d="M3850 7320 l0 -80 75 0 75 0 0 80 0 80 -75 0 -75 0 0 -80z"/>
<path d="M4010 7160 l0 -240 75 0 75 0 0 160 0 160 80 0 80 0 0 80 0 80 -155
0 -155 0 0 -240z"/>
<path d="M4330 7320 l0 -80 80 0 80 0 0 80 0 80 -80 0 -80 0 0 -80z"/>
<path d="M4810 7320 l0 -80 235 0 235 0 0 80 0 80 -235 0 -235 0 0 -80z"/>
<path d="M5290 7160 l0 -240 235 0 235 0 0 80 0 80 -155 0 -155 0 -1 78 c0 42
0 114 1 160 l1 82 -80 0 -81 0 0 -240z"/>
<path d="M1440 7000 l0 -80 80 0 80 0 0 80 0 80 -80 0 -80 0 0 -80z"/>
<path d="M1930 7000 l0 -80 155 0 155 0 0 80 0 80 -155 0 -155 0 0 -80z"/>
<path d="M2410 7000 l0 -80 235 0 235 0 0 80 0 80 -235 0 -235 0 0 -80z"/>
<path d="M3370 7000 l0 -80 235 0 235 0 0 80 0 80 -235 0 -235 0 0 -80z"/>
<path d="M3850 7000 l0 -80 75 0 75 0 0 80 0 80 -75 0 -75 0 0 -80z"/>
<path d="M4970 7000 l0 -80 75 0 75 0 0 80 0 80 -75 0 -75 0 0 -80z"/>
<path d="M5770 7000 l0 -80 235 0 235 0 0 80 0 80 -235 0 -235 0 0 -80z"/>
<path d="M6250 7000 l0 -80 155 0 155 0 0 80 0 80 -155 0 -155 0 0 -80z"/>
<path d="M6570 7000 l0 -80 235 0 235 0 0 80 0 80 -235 0 -235 0 0 -80z"/>
<path d="M1120 6755 l0 -155 80 0 80 0 0 155 0 155 -80 0 -80 0 0 -155z"/>
<path d="M1440 6755 l0 -155 240 0 240 0 0 80 0 80 -160 0 -160 0 0 75 0 75
-80 0 -80 0 0 -155z"/>
<path d="M2410 6755 l0 -155 75 0 75 0 0 155 0 155 -75 0 -75 0 0 -155z"/>
<path d="M2720 6755 l0 -155 80 0 80 0 0 155 0 155 -80 0 -80 0 0 -155z"/>
<path d="M4010 6755 l0 -155 155 0 155 0 0 80 0 80 -80 0 -80 0 0 75 0 75 -75
0 -75 0 0 -155z"/>
<path d="M4970 6833 l0 -78 -80 3 -80 4 0 -81 0 -81 155 0 155 0 0 155 0 155
-75 0 -75 0 0 -77z"/>
<path d="M5290 6755 l0 -155 80 0 80 0 0 155 0 155 -80 0 -80 0 0 -155z"/>
<path d="M6890 6755 l0 -155 75 0 75 0 0 155 0 155 -75 0 -75 0 0 -155z"/>
<path d="M7210 6755 l0 -155 80 0 80 0 0 155 0 155 -80 0 -80 0 0 -155z"/>
<path d="M7530 6755 l0 -155 235 0 235 0 0 155 0 155 -235 0 -235 0 0 -155z"/>
<path d="M160 6680 l0 -80 400 0 400 0 0 80 0 80 -400 0 -400 0 0 -80z"/>
<path d="M1930 6680 l0 -80 235 0 235 0 0 80 0 80 -235 0 -235 0 0 -80z"/>
<path d="M2890 6680 l0 -80 235 0 235 0 0 80 0 80 -235 0 -235 -1 0 -79z"/>
<path d="M3370 6680 l0 -80 235 0 235 0 0 80 0 80 -235 0 -235 -1 0 -79z"/>
<path d="M4330 6680 l0 -80 235 0 235 0 0 80 0 80 -235 0 -235 -1 0 -79z"/>
<path d="M5600 6680 l0 -80 80 0 80 0 0 80 0 80 -80 0 -80 0 0 -80z"/>
<path d="M5770 6680 l0 -80 155 0 155 0 0 80 0 80 -155 0 -155 0 0 -80z"/>
<path d="M6250 6680 l0 -80 155 0 155 0 0 80 0 80 -155 0 -155 0 0 -80z"/>
<path d="M6570 6680 l0 -80 80 0 80 0 0 80 0 80 -80 0 -80 0 0 -80z"/>
<path d="M160 6435 l0 -155 80 0 80 0 0 155 0 155 -80 0 -80 0 0 -155z"/>
<path d="M800 6510 l0 -80 -160 0 -160 0 0 -75 0 -75 240 0 240 0 0 155 0 155
-80 0 -80 0 0 -80z"/>
<path d="M1120 6435 l0 -155 80 0 80 0 0 155 0 155 -80 0 -80 0 0 -155z"/>
<path d="M1760 6435 l0 -155 80 0 80 0 0 155 0 155 -80 0 -80 0 0 -155z"/>
<path d="M2410 6435 l0 -155 75 0 75 0 0 155 0 155 -75 0 -75 0 0 -155z"/>
<path d="M3040 6435 l0 -155 80 0 80 0 0 155 0 155 -80 0 -80 0 0 -155z"/>
<path d="M3680 6435 l0 -155 80 0 80 0 0 155 0 155 -80 0 -80 0 0 -155z"/>
<path d="M4010 6435 l0 -155 75 0 75 0 0 155 0 155 -75 0 -75 0 0 -155z"/>
<path d="M5290 6435 l0 -155 235 0 235 0 0 75 0 75 -155 0 -155 0 0 80 0 80
-80 0 -80 0 0 -155z"/>
<path d="M5930 6510 l0 -80 -80 0 -80 0 0 -75 0 -75 155 0 155 0 0 155 0 155
-75 0 -75 0 0 -80z"/>
<path d="M6250 6435 l0 -155 155 0 155 0 0 75 0 75 -75 0 -75 0 0 80 0 80 -80
0 -80 0 0 -155z"/>
<path d="M6890 6510 l0 -80 -160 0 -160 0 0 -75 0 -75 235 0 235 0 0 155 0
155 -75 0 -75 0 0 -80z"/>
<path d="M7530 6435 l0 -155 235 0 235 0 0 155 0 155 -235 0 -235 0 0 -155z"/>
<path d="M1440 6355 l0 -75 80 0 80 0 0 75 0 75 -80 0 -80 0 0 -75z"/>
<path d="M1930 6355 l0 -75 155 0 155 0 0 75 0 75 -155 0 -155 0 0 -75z"/>
<path d="M2720 6355 l0 -75 80 0 80 0 0 75 0 75 -80 0 -80 0 0 -75z"/>
<path d="M3370 6355 l0 -75 75 0 75 0 0 75 0 75 -75 0 -75 0 0 -75z"/>
<path d="M4330 6355 l0 -75 80 0 80 0 0 75 0 75 -80 0 -80 0 0 -75z"/>
<path d="M4640 6355 l0 -75 80 0 80 0 0 75 0 75 -80 0 -80 0 0 -75z"/>
<path d="M4810 6355 l0 -75 235 0 235 0 0 75 0 75 -235 0 -235 0 0 -75z"/>
<path d="M7210 6355 l0 -75 155 0 155 0 0 75 0 75 -155 0 -155 0 0 -75z"/>
<path d="M160 5625 l0 -645 80 0 80 0 0 320 0 320 400 0 400 0 0 -160 0 -160
160 0 160 0 0 -240 0 -240 80 0 80 0 0 240 0 240 160 0 160 0 0 85 0 85 -320
0 -320 0 0 75 0 75 320 0 320 0 0 85 0 85 -640 0 -640 0 0 160 0 160 -80 0
-80 0 0 -160 0 -160 -80 0 -80 0 0 240 0 240 -80 0 -80 0 0 -645z"/>
<path d="M800 6110 l0 -160 80 0 80 0 0 160 0 160 -80 0 -80 0 0 -160z"/>
<path d="M1120 6110 l0 -160 400 0 400 0 0 80 0 80 -160 0 -160 0 0 80 0 80
-80 0 -80 0 0 -80 0 -80 -80 0 -80 0 0 80 0 80 -80 0 -80 0 0 -160z"/>
<path d="M2080 6030 l0 -240 -75 0 -75 0 0 -85 0 -85 75 0 75 0 0 -240 0 -240
-75 0 -75 0 0 -80 0 -80 75 0 75 0 0 -80 0 -80 80 0 80 0 0 725 0 725 -80 0
-80 0 0 -240z"/>
<path d="M2720 6190 l0 -80 -155 0 -155 0 0 -645 0 -645 75 0 75 0 0 565 0
565 160 0 160 0 0 160 0 160 -80 0 -80 0 0 -80z"/>
<path d="M3370 5785 l0 -485 235 0 235 0 0 85 0 85 -160 0 -160 0 0 240 0 240
160 0 160 0 0 80 0 80 -160 0 -160 0 0 80 0 80 -75 0 -75 0 0 -485z"/>
<path d="M4330 5545 l0 -725 235 0 235 0 0 725 0 725 -80 0 -80 0 0 -80 0 -80
-75 0 -75 0 0 80 0 80 -80 0 -80 0 0 -725z"/>
<path d="M4810 5545 l0 -725 235 0 235 0 0 725 0 725 -235 0 -235 0 0 -725z"/>
<path d="M5290 5545 l0 -725 235 0 235 0 0 725 0 725 -235 0 -235 0 0 -725z"/>
<path d="M5770 5545 l0 -725 235 0 235 0 0 325 0 325 -80 0 -80 0 0 400 0 400
-155 0 -155 0 0 -725z"/>
<path d="M6570 6110 l0 -160 80 0 80 0 0 160 0 160 -80 0 -80 0 0 -160z"/>
<path d="M7210 6190 l0 -80 -80 0 -80 0 0 -80 0 -80 80 0 80 0 0 -240 0 -240
-80 0 -80 0 0 -325 0 -325 235 0 235 0 0 725 0 725 -155 0 -155 0 0 -80z"/>
<path d="M7530 5545 l0 -725 235 0 235 0 0 725 0 725 -235 0 -235 0 0 -725z"/>
<path d="M2890 6030 l0 -80 235 0 235 0 0 80 0 80 -235 0 -235 0 0 -80z"/>
<path d="M3850 6030 l0 -80 75 0 75 0 0 80 0 80 -75 0 -75 0 0 -80z"/>
<path d="M4010 5465 l0 -645 155 0 155 0 0 645 0 645 -155 0 -155 0 0 -645z"/>
<path d="M6250 5865 l0 -245 155 0 155 0 0 85 0 85 -75 0 -75 0 0 160 0 160
-80 0 -80 0 0 -245z"/>
<path d="M6890 5950 l0 -160 -160 0 -160 0 0 -85 0 -85 235 0 235 0 0 245 0
245 -75 0 -75 0 0 -160z"/>
<path d="M2720 5305 l0 -485 80 0 80 0 0 485 0 485 -80 0 -80 0 0 -485z"/>
<path d="M2890 5705 l0 -85 75 0 75 0 1 -237 c0 -131 0 -275 -1 -320 l-1 -83
160 0 161 0 0 80 0 80 -80 0 -80 0 0 325 0 325 -155 0 -155 0 0 -85z"/>
<path d="M3680 5705 l0 -85 80 0 80 0 0 85 0 85 -80 0 -80 0 0 -85z"/>
<path d="M3850 5705 l0 -85 75 0 75 0 0 85 0 85 -75 0 -75 0 0 -85z"/>
<path d="M480 5145 l0 -325 80 0 80 0 0 240 0 240 80 0 80 0 0 -160 0 -160
160 0 160 0 0 -80 0 -80 80 0 80 0 0 160 0 160 -160 0 -160 0 0 165 0 165
-240 0 -240 0 0 -325z"/>
<path d="M6250 5145 l0 -325 155 0 155 0 0 325 0 325 -155 0 -155 0 0 -325z"/>
<path d="M6570 5145 l0 -325 235 0 235 0 0 325 0 325 -235 0 -235 0 0 -325z"/>
<path d="M1760 5060 l0 -80 80 0 80 0 0 80 0 80 -80 0 -80 0 0 -80z"/>
<path d="M3370 5060 l0 -80 235 0 235 0 0 80 0 80 -235 0 -235 0 0 -80z"/>
<path d="M160 4735 l0 -75 240 0 240 0 0 75 0 75 -240 0 -240 0 0 -75z"/>
<path d="M800 4655 l0 -155 80 0 80 0 0 155 0 155 -80 0 -80 0 0 -155z"/>
<path d="M1120 4655 l0 -155 80 0 80 0 0 155 0 155 -80 0 -80 0 0 -155z"/>
<path d="M1440 4735 l0 -75 160 0 160 0 0 -80 0 -80 80 0 80 0 0 155 0 155
-240 0 -240 0 0 -75z"/>
<path d="M2080 4735 l0 -75 80 0 80 0 0 75 0 75 -80 0 -80 0 0 -75z"/>
<path d="M2410 4655 l0 -155 75 0 75 0 0 155 0 155 -75 0 -75 0 0 -155z"/>
<path d="M2720 4655 l0 -155 80 0 80 0 0 155 0 155 -80 0 -80 0 0 -155z"/>
<path d="M3040 4735 l0 -75 160 0 160 0 0 75 0 75 -160 0 -160 0 0 -75z"/>
<path d="M3370 4735 l0 -75 235 0 235 0 0 75 0 75 -235 0 -235 0 0 -75z"/>
<path d="M3850 4735 l0 -75 75 0 75 0 0 75 0 75 -75 0 -75 0 0 -75z"/>
<path d="M4010 4655 l0 -155 155 0 155 0 0 155 0 155 -155 0 -155 0 0 -155z"/>
<path d="M4330 4655 l0 -155 235 0 235 0 0 155 0 155 -235 0 -235 0 0 -155z"/>
<path d="M4810 4655 l0 -155 235 0 235 0 0 155 0 155 -235 0 -235 0 0 -155z"/>
<path d="M5290 4655 l0 -155 235 0 235 0 0 155 0 155 -235 0 -235 0 0 -155z"/>
<path d="M5770 4655 l0 -155 235 0 235 0 0 155 0 155 -235 0 -235 0 0 -155z"/>
<path d="M6250 4655 l0 -155 155 0 155 0 0 155 0 155 -155 0 -155 0 0 -155z"/>
<path d="M6570 4655 l0 -155 235 0 235 0 0 155 0 155 -235 0 -235 0 0 -155z"/>
<path d="M7050 4655 l0 -155 235 0 235 0 0 155 0 155 -235 0 -235 0 0 -155z"/>
<path d="M7530 4655 l0 -155 235 0 235 0 0 155 0 155 -235 0 -235 0 0 -155z"/>
<path d="M1120 4415 l0 -75 160 0 160 0 0 -80 0 -80 80 0 80 0 0 155 0 155
-240 0 -240 0 0 -75z"/>
<path d="M1760 4335 l0 -155 80 0 80 0 0 155 0 155 -80 0 -80 0 0 -155z"/>
<path d="M2080 4415 l0 -75 160 0 160 0 0 75 0 75 -160 0 -160 0 0 -75z"/>
<path d="M2410 4415 l0 -75 75 0 75 0 0 75 0 75 -75 0 -75 0 0 -75z"/>
<path d="M2720 4335 l0 -155 80 0 80 0 0 155 0 155 -80 0 -80 0 0 -155z"/>
<path d="M2890 4415 l0 -75 235 0 235 0 0 75 0 75 -235 0 -235 0 0 -75z"/>
<path d="M3370 4415 l0 -75 155 0 155 0 0 -80 0 -80 80 0 80 0 0 155 0 155
-235 0 -235 0 0 -75z"/>
<path d="M4010 4335 l0 -155 75 0 75 0 0 80 0 80 80 0 80 0 0 75 0 75 -155 0
-155 0 0 -155z"/>
<path d="M4330 4415 l0 -75 155 0 155 0 0 -80 0 -80 80 0 80 0 0 155 0 155
-235 0 -235 0 0 -75z"/>
<path d="M4810 4335 l0 -155 235 0 235 0 0 155 0 155 -235 0 -235 0 0 -155z"/>
<path d="M5290 4335 l0 -155 235 0 235 0 0 155 0 155 -235 0 -235 0 0 -155z"/>
<path d="M5770 4335 l0 -155 235 0 235 0 0 155 0 155 -235 0 -235 0 0 -155z"/>
<path d="M6250 4335 l0 -155 155 0 155 0 0 155 0 155 -155 0 -155 0 0 -155z"/>
<path d="M6570 4335 l0 -155 80 0 80 0 0 80 0 80 155 0 155 0 0 75 0 75 -235
0 -235 0 0 -155z"/>
<path d="M7050 4415 l0 -75 80 0 80 0 0 -80 0 -80 155 0 155 0 0 155 0 155
-235 0 -235 0 0 -75z"/>
<path d="M7530 4335 l0 -155 235 0 235 0 0 155 0 155 -235 0 -235 0 0 -155z"/>
<path d="M160 4015 l0 -155 80 0 80 0 0 155 0 155 -80 0 -80 0 0 -155z"/>
<path d="M480 4015 l0 -155 80 0 80 0 0 155 0 155 -80 0 -80 0 0 -155z"/>
<path d="M800 4090 l0 -80 160 0 160 0 0 -75 0 -75 80 0 80 0 0 75 0 75 160 0
160 0 0 80 0 80 -400 0 -400 0 0 -80z"/>
<path d="M1760 4015 l0 -155 80 0 80 0 0 155 0 155 -80 0 -80 0 0 -155z"/>
<path d="M1930 4090 l0 -80 155 0 155 0 0 80 0 80 -155 0 -155 0 0 -80z"/>
<path d="M2410 4015 l0 -155 75 0 75 0 0 75 0 75 160 0 160 0 0 80 0 80 -235
0 -235 0 0 -155z"/>
<path d="M2890 4090 l0 -80 235 0 235 0 0 80 0 80 -235 0 -235 0 0 -80z"/>
<path d="M3370 4015 l0 -155 75 0 75 0 0 155 0 155 -75 0 -75 0 0 -155z"/>
<path d="M3680 4015 l0 -155 80 0 80 0 0 155 0 155 -80 0 -80 0 0 -155z"/>
<path d="M4010 4090 l0 -80 155 0 155 0 0 80 0 80 -155 0 -155 0 0 -80z"/>
<path d="M4330 4015 l0 -155 80 0 80 0 0 155 0 155 -80 0 -80 0 0 -155z"/>
<path d="M4640 4090 l0 -80 80 0 80 0 0 80 0 80 -80 0 -80 0 0 -80z"/>
<path d="M4810 4090 l0 -80 235 0 235 0 0 80 0 80 -235 0 -235 0 0 -80z"/>
<path d="M5290 4090 l0 -80 235 0 235 0 0 80 0 80 -235 0 -235 0 0 -80z"/>
<path d="M5770 4090 l0 -80 80 0 80 0 0 -75 0 -75 75 0 75 0 0 75 0 75 80 0
80 0 0 80 0 80 -235 0 -235 0 0 -80z"/>
<path d="M6250 4090 l0 -80 155 0 155 0 0 80 0 80 -155 0 -155 0 0 -80z"/>
<path d="M6570 4090 l0 -80 80 0 80 0 0 80 0 80 -80 0 -80 0 0 -80z"/>
<path d="M6890 4015 l0 -155 75 0 75 0 0 155 0 155 -75 0 -75 0 0 -155z"/>
<path d="M7050 4015 l0 -155 235 0 235 0 0 155 0 155 -235 0 -235 0 0 -155z"/>
<path d="M7530 4015 l0 -155 235 0 235 0 0 155 0 155 -235 0 -235 0 0 -155z"/>
<path d="M480 3770 l0 -80 160 0 160 0 0 -80 0 -80 -160 0 -160 0 0 -165 0
-165 -160 0 -160 0 0 -75 0 -75 160 0 160 0 0 -165 0 -165 160 0 160 0 0 -160
0 -160 400 0 400 0 0 80 0 80 -320 0 -320 0 0 160 0 160 -160 0 -160 0 0 245
0 245 160 0 160 0 0 240 0 240 -240 0 -240 0 0 -80z"/>
<path d="M1120 3525 l0 -325 -160 0 -160 0 0 -75 0 -75 160 0 160 0 0 -165 0
-165 240 0 240 0 0 80 0 80 -160 0 -160 0 0 85 0 85 240 0 240 0 0 -325 0
-325 80 0 80 0 0 400 0 400 -320 0 -320 0 0 325 0 325 -80 0 -80 0 0 -325z"/>
<path d="M1440 3610 l0 -240 80 0 80 0 0 160 0 160 160 0 160 0 0 80 0 80
-240 0 -240 0 0 -240z"/>
<path d="M1930 3770 l0 -80 235 0 235 0 0 80 0 80 -235 0 -235 0 0 -80z"/>
<path d="M2410 3125 l0 -725 235 0 235 0 0 80 0 80 -160 0 -160 0 0 645 0 645
-75 0 -75 0 0 -725z"/>
<path d="M2720 3285 l0 -565 80 0 80 0 0 565 0 565 -80 0 -80 0 0 -565z"/>
<path d="M2890 3770 l0 -80 75 0 75 0 0 -320 0 -320 160 0 160 0 0 75 0 75
-80 0 -80 0 0 325 0 325 -155 0 -155 0 0 -80z"/>
<path d="M3370 3610 l0 -240 155 0 155 0 0 -325 0 -325 80 0 80 0 0 405 0 406
-160 -3 -160 -3 0 163 0 162 -75 0 -75 0 0 -240z"/>
<path d="M3680 3770 l0 -80 80 0 80 0 0 80 0 80 -80 0 -80 0 0 -80z"/>
<path d="M3850 3770 l0 -80 75 0 75 0 0 80 0 80 -75 0 -75 0 0 -80z"/>
<path d="M4010 3770 l0 -80 75 0 75 0 0 80 0 80 -75 0 -75 0 0 -80z"/>
<path d="M4330 3610 l0 -240 80 0 79 0 1 240 0 240 -80 0 -80 0 0 -240z"/>
<path d="M4640 3525 l0 -325 -155 0 -155 0 0 -75 0 -75 235 0 235 0 0 400 0
400 -80 0 -80 0 0 -325z"/>
<path d="M4810 3770 l0 -80 155 0 155 0 0 80 0 80 -155 0 -155 0 0 -80z"/>
<path d="M5290 3125 l0 -725 235 0 235 0 0 80 0 80 -155 0 -155 0 0 245 0 245
75 0 75 0 0 -165 0 -165 80 0 80 0 0 240 0 240 -155 0 -155 0 0 245 0 245 155
0 155 0 0 80 0 80 -235 0 -235 0 0 -725z"/>
<path d="M5930 3690 l0 -160 -80 0 -80 0 0 -80 0 -80 155 0 155 0 0 160 0 160
80 0 80 0 0 80 0 80 -155 0 -155 0 0 -160z"/>
<path d="M6250 3770 l0 -80 155 0 155 0 0 80 0 80 -155 0 -155 0 0 -80z"/>
<path d="M6570 3770 l0 -80 80 0 80 0 0 80 0 80 -80 0 -80 0 0 -80z"/>
<path d="M6890 3525 l0 -325 -160 0 -160 0 0 -400 0 -400 235 0 235 0 0 725 0
725 -75 0 -75 0 0 -325z"/>
<path d="M7050 3125 l0 -725 235 0 235 0 0 725 0 725 -235 0 -235 0 0 -725z"/>
<path d="M7530 3125 l0 -725 235 0 235 0 0 725 0 725 -235 0 -235 0 0 -725z"/>
<path d="M1760 3450 l0 -80 80 0 80 0 0 80 0 80 -80 0 -80 0 0 -80z"/>
<path d="M1930 3450 l0 -80 75 0 75 0 0 -85 0 -85 -75 0 -75 0 0 -75 0 -75
155 0 155 0 0 240 0 240 -155 0 -155 0 0 -80z"/>
<path d="M4010 3290 l0 -240 155 0 155 0 0 75 0 75 -80 0 -80 0 0 85 0 85 80
0 80 0 0 80 0 80 -155 0 -155 0 0 -240z"/>
<path d="M4970 3450 l0 -80 155 0 155 0 0 80 0 80 -155 0 -155 0 0 -80z"/>
<path d="M5600 3450 l0 -80 80 0 80 0 0 80 0 80 -80 0 -80 0 0 -80z"/>
<path d="M6250 2965 l0 -565 155 0 155 0 0 400 0 400 -75 0 -75 0 0 85 0 85
75 0 75 0 0 80 0 80 -155 0 -155 0 0 -565z"/>
<path d="M6570 3450 l0 -80 80 0 80 0 0 80 0 80 -80 0 -80 0 0 -80z"/>
<path d="M3370 2800 l0 -400 235 0 235 0 0 80 0 80 -160 0 -160 0 0 320 0 320
-75 0 -75 0 0 -400z"/>
<path d="M4810 3125 l0 -75 155 0 155 0 0 75 0 75 -155 0 -155 0 0 -75z"/>
<path d="M5770 3125 l0 -75 155 0 155 0 0 75 0 75 -155 0 -155 0 0 -75z"/>
<path d="M2080 2640 l0 -240 80 0 80 0 0 240 0 240 -80 0 -80 0 0 -240z"/>
<path d="M2890 2800 l0 -80 155 0 155 0 0 80 0 80 -155 0 -155 0 0 -80z"/>
<path d="M3850 2800 l0 -80 75 0 75 0 0 80 0 80 -75 0 -75 0 0 -80z"/>
<path d="M4010 2640 l0 -240 75 0 75 0 0 160 0 160 80 0 80 0 0 80 0 80 -155
0 -155 0 0 -240z"/>
<path d="M4330 2640 l0 -240 80 0 80 0 0 240 -1 240 -79 0 -80 0 0 -240z"/>
<path d="M4640 2640 l0 -240 80 0 80 0 0 240 0 240 -80 0 -80 0 0 -240z"/>
<path d="M4810 2800 l0 -80 235 0 235 0 0 80 0 80 -235 0 -235 0 0 -80z"/>
<path d="M5930 2800 l0 -80 155 0 155 0 0 80 0 80 -155 0 -155 0 0 -80z"/>
<path d="M480 2480 l0 -80 80 0 80 0 0 80 0 80 -80 0 -80 0 0 -80z"/>
<path d="M2890 2480 l0 -80 155 0 155 0 0 80 0 80 -155 0 -155 0 0 -80z"/>
<path d="M4970 2480 l0 -80 75 0 75 0 0 80 0 80 -75 0 -75 0 0 -80z"/>
<path d="M5770 2480 l0 -80 235 0 235 0 0 80 0 80 -235 0 -235 0 0 -80z"/>
<path d="M480 2315 l0 -75 -160 0 -160 0 0 -80 0 -80 560 0 560 0 0 155 0 155
-80 0 -80 0 0 -75 0 -75 -240 0 -240 0 0 75 0 75 -80 0 -80 0 0 -75z"/>
<path d="M1760 2315 l0 -75 -160 0 -160 0 0 -80 0 -80 240 0 240 0 0 155 0
155 -80 0 -80 0 0 -75z"/>
<path d="M2080 2235 l0 -155 80 0 80 0 0 155 0 155 -80 0 -80 0 0 -155z"/>
<path d="M2410 2235 l0 -155 235 0 235 0 0 80 0 80 -160 0 -160 0 0 75 0 75
-75 0 -75 0 0 -155z"/>
<path d="M3040 2235 l0 -155 80 0 80 0 0 155 0 155 -80 0 -80 0 0 -155z"/>
<path d="M3370 2235 l0 -155 75 0 75 0 0 155 0 155 -75 0 -75 0 0 -155z"/>
<path d="M4010 2235 l0 -155 155 0 155 0 0 80 0 80 -80 0 -80 0 0 75 0 75 -75
0 -75 0 0 -155z"/>
<path d="M4640 2315 l0 -75 -155 0 -155 0 0 -80 0 -80 235 0 235 0 0 155 0
155 -80 0 -80 0 0 -75z"/>
<path d="M4970 2235 l0 -155 155 0 155 0 0 80 0 80 -80 0 -80 0 0 75 0 75 -75
0 -75 0 0 -155z"/>
<path d="M5600 2235 l0 -155 80 0 80 0 0 155 0 155 -80 0 -80 0 0 -155z"/>
<path d="M6250 2235 l0 -155 80 0 80 0 0 155 0 155 -80 0 -80 0 0 -155z"/>
<path d="M7210 2235 l0 -155 155 0 155 0 0 155 0 155 -155 0 -155 0 0 -155z"/>
<path d="M7530 2235 l0 -155 235 0 235 0 0 155 0 155 -235 0 -235 0 0 -155z"/>
<path d="M3680 2160 l0 -80 80 0 80 0 0 80 0 80 -80 0 -80 0 0 -80z"/>
<path d="M3850 2160 l0 -80 75 0 75 0 0 80 0 80 -75 0 -75 0 0 -80z"/>
<path d="M5290 2160 l0 -80 80 0 80 0 0 80 0 80 -80 0 -80 0 0 -80z"/>
<path d="M5930 2160 l0 -80 75 0 75 0 0 80 0 80 -75 0 -75 0 0 -80z"/>
<path d="M6570 2160 l0 -80 80 0 80 0 0 80 0 80 -80 0 -80 0 0 -80z"/>
<path d="M6890 2160 l0 -80 75 0 75 0 0 80 0 80 -75 0 -75 0 0 -80z"/>
<path d="M160 1915 l0 -155 80 0 80 0 0 155 0 155 -80 0 -80 0 0 -155z"/>
<path d="M1440 1990 l0 -80 -480 0 -480 0 0 -75 0 -75 560 0 560 0 0 155 0
155 -80 0 -80 0 0 -80z"/>
<path d="M2081 1915 l0 -155 159 0 160 0 0 75 0 75 -80 0 -80 0 0 80 0 80 -80
0 -79 0 0 -155z"/>
<path d="M3042 1990 l3 -80 -77 0 -78 0 0 -75 0 -75 155 0 155 0 0 155 0 155
-81 0 -81 0 4 -80z"/>
<path d="M3370 1915 l0 -155 235 0 235 0 0 75 0 75 -160 0 -160 0 0 80 0 80
-75 0 -75 0 0 -155z"/>
<path d="M4640 1915 l0 -155 80 0 80 0 0 155 0 155 -80 0 -80 0 0 -155z"/>
<path d="M5290 1915 l0 -155 235 0 235 0 0 75 0 75 -157 0 -158 0 3 80 4 80
-81 0 -81 0 0 -155z"/>
<path d="M5930 1990 l0 -80 -80 0 -80 0 0 -75 0 -75 235 0 235 0 0 75 0 75
-80 0 -80 0 0 80 0 80 -75 0 -75 0 0 -80z"/>
<path d="M6570 1915 l0 -155 80 0 80 0 0 155 0 155 -80 0 -80 0 0 -155z"/>
<path d="M6890 1915 l0 -155 75 0 75 0 0 155 0 155 -75 0 -75 0 0 -155z"/>
<path d="M7210 1915 l0 -155 155 0 155 0 0 155 0 155 -155 0 -155 0 0 -155z"/>
<path d="M7530 1915 l0 -155 235 0 235 0 0 155 0 155 -235 0 -235 0 0 -155z"/>
<path d="M1760 1835 l0 -75 80 0 80 0 0 75 0 75 -80 0 -80 0 0 -75z"/>
<path d="M2410 1835 l0 -75 235 0 235 0 0 75 0 75 -235 0 -235 0 0 -75z"/>
<path d="M3850 1835 l0 -75 75 0 75 0 0 75 0 75 -75 0 -75 0 0 -75z"/>
<path d="M4010 1835 l0 -75 155 0 155 0 0 75 0 75 -155 0 -155 0 0 -75z"/>
<path d="M4330 1835 l0 -75 80 0 80 0 0 75 0 75 -80 0 -80 0 0 -75z"/>
<path d="M4810 1835 l0 -75 155 0 155 0 0 75 0 75 -155 0 -155 0 0 -75z"/>
<path d="M6250 1835 l0 -75 155 0 155 0 0 75 0 75 -155 0 -155 0 0 -75z"/>
<path d="M480 1670 l0 -80 -160 0 -160 0 0 -75 0 -75 240 0 240 0 0 155 0 155
-80 0 -80 0 0 -80z"/>
<path d="M800 1595 l0 -155 80 0 80 0 0 155 0 155 -80 0 -80 0 0 -155z"/>
<path d="M1440 1595 l0 -155 80 0 80 0 0 155 0 155 -80 0 -80 0 0 -155z"/>
<path d="M1760 1595 l0 -155 80 0 80 0 0 155 0 155 -80 0 -80 0 0 -155z"/>
<path d="M2080 1595 l0 -155 80 0 80 0 0 155 0 155 -80 0 -80 0 0 -155z"/>
<path d="M3680 1670 l0 -80 -155 0 -155 0 0 -75 0 -75 235 0 235 0 0 155 0
155 -80 0 -80 0 0 -80z"/>
<path d="M4330 1595 l0 -155 80 0 80 0 0 155 0 155 -80 0 -80 0 0 -155z"/>
<path d="M4640 1595 l0 -155 80 0 80 0 0 155 0 155 -80 0 -80 0 0 -155z"/>
<path d="M5290 1595 l0 -155 235 0 235 0 0 75 0 75 -155 0 -155 0 0 80 0 80
-80 0 -80 0 0 -155z"/>
<path d="M6570 1595 l0 -155 80 0 80 0 0 155 0 155 -80 0 -80 0 0 -155z"/>
<path d="M6890 1595 l0 -155 75 0 75 0 0 155 0 155 -75 0 -75 0 0 -155z"/>
<path d="M7530 1595 l0 -155 235 0 235 0 0 155 0 155 -235 0 -235 0 0 -155z"/>
<path d="M1120 1515 l0 -75 80 0 80 0 0 75 0 75 -80 0 -80 0 0 -75z"/>
<path d="M2410 1515 l0 -75 235 0 235 0 0 75 0 75 -235 0 -235 0 0 -75z"/>
<path d="M2890 1515 l0 -75 235 0 235 0 0 75 0 75 -235 0 -235 0 0 -75z"/>
<path d="M4010 1515 l0 -75 75 0 75 0 0 75 0 75 -75 0 -75 0 0 -75z"/>
<path d="M4970 1515 l0 -75 155 0 155 0 0 75 0 75 -155 0 -155 0 0 -75z"/>
<path d="M5770 1515 l0 -75 155 0 155 0 0 75 0 75 -155 0 -155 0 0 -75z"/>
<path d="M6250 1515 l0 -75 80 0 80 0 0 75 0 75 -80 0 -80 0 0 -75z"/>
<path d="M7050 1515 l0 -75 160 0 160 0 0 75 0 75 -160 0 -160 0 0 -75z"/>
<path d="M1120 1270 l0 -160 400 0 400 0 0 160 0 160 -80 0 -80 0 0 -80 0 -80
-240 0 -240 0 0 80 0 80 -80 0 -80 0 0 -160z"/>
<path d="M2080 1350 l0 -80 -75 0 -75 0 0 -80 0 -80 235 0 235 0 0 80 0 80
-80 0 -80 0 0 80 0 80 -80 0 -80 0 0 -80z"/>
<path d="M2720 1270 l0 -160 80 0 80 0 0 160 0 160 -80 0 -80 0 0 -160z"/>
<path d="M3370 1110 l0 -319 235 -1 235 0 0 80 0 80 -160 0 -160 0 0 240 0
240 -75 0 -75 0 0 -320z"/>
<path d="M4010 1270 l0 -160 155 0 155 0 0 80 0 80 -80 0 -80 0 0 80 0 80 -75
0 -75 0 0 -160z"/>
<path d="M4640 1350 l0 -80 -155 0 -155 0 0 -80 0 -80 235 0 235 0 0 160 0
160 -80 0 -80 0 0 -80z"/>
<path d="M5930 1270 l0 -160 75 0 75 0 0 160 0 160 -75 0 -75 0 0 -160z"/>
<path d="M6250 1110 l0 -320 155 0 155 0 0 80 0 80 -75 0 -75 0 0 240 0 240
-80 0 -80 0 0 -320z"/>
<path d="M6570 1110 l0 -320 235 0 235 0 0 80 0 80 -155 0 -155 0 0 240 0 240
-80 0 -80 0 0 -320z"/>
<path d="M6890 1270 l0 -160 75 0 75 0 0 160 0 160 -75 0 -75 0 0 -160z"/>
<path d="M7530 1270 l0 -160 160 0 160 0 0 -80 0 -80 -160 0 -160 0 0 -80 0
-80 160 0 160 0 0 80 0 80 75 0 75 0 0 240 0 240 -235 0 -235 0 0 -160z"/>
<path d="M2410 1190 l0 -80 75 0 75 0 0 80 0 80 -75 0 -75 0 0 -80z"/>
<path d="M2890 1190 l0 -80 155 0 155 0 0 80 0 80 -155 0 -155 0 0 -80z"/>
<path d="M3680 1190 l0 -80 80 0 80 0 0 80 0 80 -80 0 -80 0 0 -80z"/>
<path d="M3850 1190 l0 -80 75 0 75 0 0 80 0 80 -75 0 -75 0 0 -80z"/>
<path d="M4810 1190 l0 -80 235 0 235 0 0 80 0 80 -235 0 -235 0 0 -80z"/>
<path d="M5290 1190 l0 -80 235 0 235 0 0 80 0 80 -235 0 -235 0 0 -80z"/>
<path d="M7050 1190 l0 -80 235 0 235 0 0 80 0 80 -235 0 -235 0 0 -80z"/>
<path d="M1930 870 l0 -80 235 0 235 0 0 80 0 80 -235 0 -235 0 0 -80z"/>
<path d="M2410 870 l0 -80 235 0 235 0 0 80 0 80 -235 0 -235 0 0 -80z"/>
<path d="M2890 870 l0 -80 235 0 235 0 0 80 0 80 -235 0 -235 0 0 -80z"/>
<path d="M3850 870 l0 -80 75 0 75 0 0 80 0 80 -75 0 -75 0 0 -80z"/>
<path d="M4010 870 l0 -80 155 0 155 0 0 80 0 80 -155 0 -155 0 0 -80z"/>
<path d="M4330 870 l0 -79 235 -1 235 0 0 80 0 80 -235 0 -235 0 0 -80z"/>
<path d="M4810 870 l0 -80 235 0 235 0 0 80 0 80 -235 0 -235 0 0 -80z"/>
<path d="M5290 870 l0 -80 235 0 235 0 0 80 0 80 -235 0 -235 0 0 -80z"/>
<path d="M5770 870 l0 -80 235 0 235 0 0 80 0 80 -235 0 -235 0 0 -80z"/>
<path d="M7050 870 l0 -80 235 0 235 0 0 80 0 80 -235 0 -235 0 0 -80z"/>
<path d="M2784 606 l-34 -34 0 -235 0 -235 27 -31 27 -31 493 0 492 0 31 30
30 29 0 236 0 235 -29 32 -29 33 -487 3 -486 3 -35 -35z m290 -162 c10 -26 7
-52 -9 -67 -8 -9 -11 -17 -6 -19 4 -2 11 -22 14 -46 5 -40 4 -43 -16 -40 -17
2 -23 11 -25 36 -3 29 -6 32 -38 32 -32 0 -34 -2 -34 -35 0 -28 -4 -35 -20
-35 -19 0 -20 7 -20 95 l0 95 74 0 c58 0 75 -3 80 -16z m386 -9 c0 -8 5 -15
10 -15 6 0 10 -7 10 -15 0 -8 -4 -15 -10 -15 -5 0 -10 -20 -10 -45 0 -25 5
-45 10 -45 6 0 10 -7 10 -16 0 -11 -8 -14 -27 -12 -27 3 -28 6 -31 61 -2 31
-7 57 -12 57 -6 0 -10 7 -10 15 0 8 5 15 10 15 6 0 10 7 10 15 0 8 9 15 20 15
11 0 20 -7 20 -15z m360 0 c0 -8 5 -15 10 -15 6 0 10 -7 10 -15 0 -8 -4 -15
-10 -15 -5 0 -10 -20 -10 -45 0 -25 5 -45 10 -45 6 0 10 -7 10 -16 0 -11 -8
-14 -27 -12 -27 3 -28 6 -31 61 -2 31 -7 57 -12 57 -6 0 -10 7 -10 15 0 8 5
15 10 15 6 0 10 7 10 15 0 8 9 15 20 15 11 0 20 -7 20 -15z m-608 -28 c9 -7
20 -25 23 -40 7 -27 7 -27 -44 -27 -37 0 -51 -4 -51 -14 0 -19 24 -27 60 -19
34 6 41 -10 11 -27 -29 -15 -67 -12 -85 6 -22 21 -21 92 2 115 20 21 60 24 84
6z m151 -1 c9 -7 17 -18 17 -25 0 -14 -23 -14 -37 0 -14 14 -47 4 -38 -11 3
-5 14 -10 24 -10 11 0 29 -8 41 -18 28 -23 20 -59 -16 -68 -36 -9 -94 4 -94
22 0 12 9 14 46 8 59 -9 58 14 -2 31 -44 12 -55 36 -28 66 20 22 61 24 87 5z
m238 4 c16 -9 19 -22 19 -74 l0 -63 -52 2 c-71 3 -68 1 -68 31 0 31 25 53 58
54 13 0 22 6 22 15 0 17 -25 20 -35 5 -7 -11 -45 -14 -45 -3 0 3 7 15 17 25
18 20 54 23 84 8z m149 -12 c0 -11 -9 -22 -20 -25 -17 -4 -20 -14 -20 -54 0
-42 -3 -49 -20 -49 -18 0 -20 7 -20 74 l0 75 40 -1 c33 0 40 -4 40 -20z"/>
<path d="M2960 405 c0 -14 7 -28 16 -32 22 -8 64 17 64 39 0 14 -8 18 -40 18
-36 0 -40 -2 -40 -25z"/>
<path d="M3155 380 c-4 -6 5 -10 20 -10 15 0 24 4 20 10 -3 6 -12 10 -20 10
-8 0 -17 -4 -20 -10z"/>
<path d="M3540 330 c-11 -7 -12 -12 -3 -21 15 -15 43 -5 43 16 0 17 -18 19
-40 5z"/>
<path d="M4184 606 l-34 -34 0 -235 0 -235 27 -31 27 -31 496 0 495 0 25 27
25 26 3 239 3 239 -34 34 -35 35 -482 0 -482 0 -34 -34z m264 -158 c17 -17 15
-48 -3 -48 -9 0 -18 7 -21 15 -8 20 -74 21 -74 0 0 -8 12 -17 28 -21 86 -18
116 -60 72 -104 -36 -36 -140 -17 -140 26 0 19 27 18 47 -2 19 -18 67 -15 71
6 2 15 -29 32 -80 44 -32 7 -46 43 -28 75 9 17 20 21 63 21 29 0 58 -5 65 -12z
m92 -13 c0 -8 5 -15 10 -15 6 0 10 -7 10 -15 0 -8 -4 -15 -10 -15 -5 0 -10
-20 -10 -45 0 -25 5 -45 10 -45 6 0 10 -7 10 -16 0 -11 -8 -14 -27 -12 -27 3
-28 6 -31 61 -2 31 -7 57 -12 57 -6 0 -10 7 -10 15 0 8 5 15 10 15 6 0 10 7
10 15 0 8 9 15 20 15 11 0 20 -7 20 -15z m360 0 c0 -8 5 -15 10 -15 6 0 10 -7
10 -15 0 -8 -4 -15 -10 -15 -5 0 -10 -20 -10 -45 0 -25 5 -45 10 -45 6 0 10
-7 10 -15 0 -16 -17 -19 -44 -9 -12 5 -16 20 -16 60 0 30 -4 54 -10 54 -5 0
-10 7 -10 15 0 8 5 15 10 15 6 0 10 7 10 15 0 8 9 15 20 15 11 0 20 -7 20 -15z
m-219 -25 c16 -9 19 -22 19 -74 l0 -63 -52 2 c-71 3 -68 1 -68 31 0 31 25 53
58 54 13 0 22 6 22 15 0 17 -25 20 -35 5 -7 -11 -45 -14 -45 -3 0 3 7 15 17
25 18 20 54 23 84 8z m149 -12 c0 -11 -9 -22 -20 -25 -17 -4 -20 -14 -20 -54
0 -42 -3 -49 -20 -49 -18 0 -20 7 -20 74 l0 75 40 -1 c33 0 40 -4 40 -20z"/>
<path d="M4620 325 c-10 -12 -9 -16 3 -21 20 -7 37 3 37 22 0 18 -24 18 -40
-1z"/>
</g>
</svg>
